<?xml version="1.0" encoding="UTF-8"?>
<svg xmlns="http://www.w3.org/2000/svg" xmlns:xlink="http://www.w3.org/1999/xlink" viewBox="0 0 16 16" version="1.1">
<g id="surface1">
<path style=" stroke:none;fill-rule:nonzero;fill:rgb(87.843138%,40.392157%,99.607843%);fill-opacity:1;" d="M 7.25 0.125 C 7.269531 0.128906 7.292969 0.136719 7.3125 0.140625 C 7.941406 0.316406 8.511719 0.660156 8.980469 1.109375 C 9.058594 1.183594 9.136719 1.25 9.21875 1.3125 C 9.242188 1.300781 9.265625 1.289062 9.289062 1.277344 C 9.492188 1.179688 9.6875 1.101562 9.90625 1.039062 C 9.925781 1.03125 9.949219 1.023438 9.972656 1.015625 C 10.792969 0.785156 11.699219 0.929688 12.441406 1.335938 C 13.273438 1.84375 13.800781 2.578125 14.03125 3.515625 C 14.0625 3.636719 14.070312 3.753906 14.078125 3.882812 C 14.09375 4.011719 14.109375 4.050781 14.214844 4.132812 C 14.308594 4.1875 14.40625 4.234375 14.503906 4.28125 C 15.171875 4.632812 15.632812 5.390625 15.871094 6.085938 C 16.117188 6.882812 16.042969 7.78125 15.660156 8.527344 C 15.542969 8.742188 15.410156 8.9375 15.25 9.125 C 15.230469 9.148438 15.210938 9.175781 15.1875 9.199219 C 14.777344 9.683594 14.207031 10.042969 13.59375 10.21875 C 13.550781 10.230469 13.550781 10.230469 13.507812 10.246094 C 13.089844 10.347656 12.664062 10.324219 12.238281 10.320312 C 12.128906 10.316406 12.023438 10.316406 11.914062 10.316406 C 11.703125 10.316406 11.492188 10.3125 11.28125 10.3125 C 11.28125 10.632812 11.28125 10.953125 11.28125 11.28125 C 11.394531 11.28125 11.394531 11.28125 11.507812 11.277344 C 11.753906 11.277344 12.003906 11.277344 12.25 11.273438 C 12.398438 11.273438 12.550781 11.273438 12.699219 11.273438 C 12.84375 11.269531 12.988281 11.269531 13.132812 11.269531 C 13.1875 11.269531 13.242188 11.269531 13.296875 11.269531 C 13.375 11.265625 13.453125 11.265625 13.53125 11.265625 C 13.554688 11.265625 13.574219 11.265625 13.597656 11.265625 C 13.757812 11.265625 13.847656 11.308594 13.96875 11.40625 C 14.074219 11.527344 14.097656 11.628906 14.101562 11.785156 C 14.101562 11.816406 14.101562 11.851562 14.101562 11.882812 C 14.101562 11.9375 14.101562 11.9375 14.105469 11.988281 C 14.105469 12.027344 14.105469 12.0625 14.105469 12.097656 C 14.109375 12.214844 14.109375 12.328125 14.109375 12.445312 C 14.113281 12.519531 14.113281 12.597656 14.117188 12.675781 C 14.117188 12.867188 14.121094 13.058594 14.125 13.25 C 14.148438 13.261719 14.171875 13.277344 14.195312 13.289062 C 14.226562 13.304688 14.257812 13.324219 14.292969 13.339844 C 14.320312 13.355469 14.351562 13.375 14.382812 13.390625 C 14.699219 13.566406 14.898438 13.878906 15 14.21875 C 15.089844 14.585938 15.042969 14.96875 14.863281 15.300781 C 14.652344 15.625 14.347656 15.878906 13.972656 15.984375 C 13.570312 16.074219 13.160156 16 12.816406 15.78125 C 12.503906 15.5625 12.292969 15.265625 12.199219 14.894531 C 12.140625 14.511719 12.195312 14.140625 12.40625 13.8125 C 12.589844 13.558594 12.816406 13.390625 13.09375 13.25 C 13.105469 12.910156 13.113281 12.570312 13.125 12.21875 C 13.011719 12.21875 13.011719 12.21875 12.898438 12.222656 C 12.652344 12.222656 12.402344 12.222656 12.15625 12.226562 C 12.007812 12.226562 11.855469 12.226562 11.707031 12.226562 C 11.5625 12.230469 11.417969 12.230469 11.273438 12.230469 C 11.21875 12.230469 11.164062 12.230469 11.109375 12.230469 C 11.03125 12.234375 10.953125 12.234375 10.875 12.234375 C 10.851562 12.234375 10.832031 12.234375 10.808594 12.234375 C 10.648438 12.234375 10.558594 12.191406 10.4375 12.09375 C 10.332031 11.976562 10.308594 11.875 10.308594 11.722656 C 10.308594 11.6875 10.308594 11.65625 10.308594 11.625 C 10.308594 11.589844 10.308594 11.558594 10.308594 11.523438 C 10.308594 11.492188 10.308594 11.460938 10.308594 11.429688 C 10.308594 11.316406 10.308594 11.203125 10.3125 11.085938 C 10.3125 10.832031 10.3125 10.574219 10.3125 10.3125 C 9.703125 10.3125 9.09375 10.3125 8.46875 10.3125 C 8.480469 11.28125 8.488281 12.25 8.5 13.25 C 8.613281 13.3125 8.726562 13.375 8.84375 13.4375 C 9.128906 13.636719 9.3125 13.957031 9.394531 14.292969 C 9.453125 14.675781 9.398438 15.046875 9.1875 15.375 C 8.964844 15.679688 8.65625 15.917969 8.28125 16 C 7.8125 16.039062 7.441406 15.980469 7.0625 15.6875 C 6.773438 15.429688 6.585938 15.105469 6.554688 14.714844 C 6.546875 14.277344 6.660156 13.933594 6.949219 13.601562 C 7.113281 13.457031 7.269531 13.347656 7.46875 13.25 C 7.484375 11.796875 7.484375 11.796875 7.5 10.3125 C 6.890625 10.3125 6.28125 10.3125 5.65625 10.3125 C 5.660156 10.816406 5.660156 10.816406 5.664062 11.324219 C 5.664062 11.386719 5.664062 11.453125 5.664062 11.515625 C 5.667969 11.5625 5.667969 11.5625 5.667969 11.613281 C 5.667969 11.785156 5.664062 11.914062 5.5625 12.0625 C 5.40625 12.203125 5.3125 12.222656 5.105469 12.222656 C 5.070312 12.222656 5.070312 12.222656 5.035156 12.222656 C 4.953125 12.222656 4.871094 12.222656 4.789062 12.222656 C 4.734375 12.222656 4.679688 12.222656 4.621094 12.222656 C 4.476562 12.222656 4.328125 12.222656 4.179688 12.222656 C 4.03125 12.21875 3.878906 12.21875 3.730469 12.21875 C 3.433594 12.21875 3.140625 12.21875 2.84375 12.21875 C 2.839844 12.363281 2.839844 12.503906 2.839844 12.648438 C 2.839844 12.699219 2.835938 12.746094 2.835938 12.796875 C 2.832031 12.953125 2.832031 13.097656 2.875 13.25 C 2.980469 13.347656 3.085938 13.390625 3.21875 13.4375 C 3.503906 13.636719 3.6875 13.957031 3.769531 14.292969 C 3.828125 14.675781 3.773438 15.046875 3.5625 15.375 C 3.339844 15.679688 3.03125 15.917969 2.65625 16 C 2.1875 16.039062 1.816406 15.980469 1.4375 15.6875 C 1.148438 15.429688 0.960938 15.105469 0.929688 14.714844 C 0.921875 14.277344 1.035156 13.933594 1.324219 13.601562 C 1.488281 13.460938 1.648438 13.347656 1.84375 13.25 C 1.84375 13.230469 1.84375 13.210938 1.84375 13.191406 C 1.847656 12.980469 1.847656 12.773438 1.851562 12.566406 C 1.851562 12.488281 1.855469 12.410156 1.855469 12.332031 C 1.855469 12.222656 1.855469 12.109375 1.859375 12 C 1.859375 11.964844 1.859375 11.929688 1.859375 11.894531 C 1.863281 11.71875 1.867188 11.585938 1.96875 11.4375 C 2.125 11.296875 2.21875 11.277344 2.425781 11.277344 C 2.460938 11.277344 2.460938 11.277344 2.496094 11.277344 C 2.578125 11.277344 2.660156 11.277344 2.742188 11.277344 C 2.796875 11.277344 2.851562 11.277344 2.910156 11.277344 C 3.054688 11.277344 3.203125 11.277344 3.351562 11.277344 C 3.5 11.28125 3.652344 11.28125 3.800781 11.28125 C 4.097656 11.28125 4.390625 11.28125 4.6875 11.28125 C 4.6875 10.960938 4.6875 10.640625 4.6875 10.3125 C 4.5625 10.3125 4.433594 10.316406 4.304688 10.316406 C 4.203125 10.316406 4.097656 10.320312 3.996094 10.320312 C 3.890625 10.320312 3.78125 10.320312 3.675781 10.320312 C 3.089844 10.328125 2.542969 10.324219 2 10.085938 C 1.980469 10.074219 1.957031 10.066406 1.9375 10.054688 C 1.15625 9.710938 0.527344 9.042969 0.210938 8.253906 C -0.0898438 7.421875 -0.0976562 6.5 0.273438 5.691406 C 0.609375 4.984375 1.140625 4.414062 1.84375 4.0625 C 1.863281 3.988281 1.863281 3.988281 1.871094 3.898438 C 1.875 3.867188 1.882812 3.832031 1.886719 3.796875 C 1.894531 3.742188 1.894531 3.742188 1.898438 3.6875 C 1.945312 3.359375 2.007812 3.058594 2.125 2.75 C 2.136719 2.71875 2.148438 2.683594 2.160156 2.652344 C 2.570312 1.621094 3.359375 0.789062 4.371094 0.335938 C 5.261719 -0.0429688 6.3125 -0.144531 7.25 0.125 Z M 7.25 0.125 "/>
<path style=" stroke:none;fill-rule:nonzero;fill:rgb(99.607843%,89.019608%,99.215686%);fill-opacity:1;" d="M 6.03125 4.03125 C 6.0625 4.050781 6.0625 4.050781 6.089844 4.070312 C 6.316406 4.242188 6.492188 4.542969 6.5625 4.8125 C 6.570312 4.921875 6.570312 5.027344 6.570312 5.136719 C 6.570312 5.167969 6.570312 5.199219 6.570312 5.230469 C 6.574219 5.335938 6.574219 5.441406 6.574219 5.546875 C 6.574219 5.621094 6.574219 5.695312 6.574219 5.769531 C 6.574219 5.921875 6.574219 6.078125 6.574219 6.230469 C 6.574219 6.429688 6.574219 6.625 6.574219 6.824219 C 6.578125 6.976562 6.578125 7.128906 6.578125 7.277344 C 6.578125 7.351562 6.578125 7.425781 6.578125 7.496094 C 6.578125 7.597656 6.578125 7.699219 6.578125 7.800781 C 6.578125 7.832031 6.578125 7.863281 6.578125 7.894531 C 6.578125 8.074219 6.554688 8.171875 6.4375 8.3125 C 6.335938 8.402344 6.253906 8.433594 6.117188 8.445312 C 5.949219 8.433594 5.851562 8.386719 5.742188 8.265625 C 5.664062 8.15625 5.652344 8.101562 5.652344 7.972656 C 5.652344 7.941406 5.652344 7.910156 5.652344 7.878906 C 5.652344 7.847656 5.652344 7.8125 5.652344 7.777344 C 5.652344 7.742188 5.652344 7.707031 5.652344 7.671875 C 5.652344 7.5625 5.652344 7.449219 5.65625 7.339844 C 5.65625 7.265625 5.65625 7.191406 5.65625 7.113281 C 5.65625 6.929688 5.65625 6.746094 5.65625 6.5625 C 5.335938 6.5625 5.015625 6.5625 4.6875 6.5625 C 4.6875 6.671875 4.691406 6.785156 4.691406 6.898438 C 4.691406 7.003906 4.695312 7.113281 4.695312 7.21875 C 4.695312 7.292969 4.695312 7.367188 4.695312 7.441406 C 4.699219 7.550781 4.699219 7.65625 4.699219 7.765625 C 4.699219 7.796875 4.699219 7.832031 4.703125 7.867188 C 4.703125 8.054688 4.691406 8.167969 4.5625 8.3125 C 4.460938 8.402344 4.378906 8.433594 4.242188 8.445312 C 4.074219 8.433594 3.976562 8.386719 3.867188 8.265625 C 3.796875 8.164062 3.777344 8.113281 3.777344 7.992188 C 3.777344 7.964844 3.777344 7.9375 3.777344 7.910156 C 3.777344 7.878906 3.777344 7.851562 3.777344 7.820312 C 3.777344 7.785156 3.773438 7.753906 3.773438 7.722656 C 3.773438 7.617188 3.773438 7.511719 3.773438 7.40625 C 3.773438 7.371094 3.773438 7.332031 3.773438 7.296875 C 3.773438 7.105469 3.773438 6.914062 3.773438 6.722656 C 3.773438 6.523438 3.769531 6.328125 3.769531 6.128906 C 3.769531 5.980469 3.769531 5.828125 3.769531 5.675781 C 3.769531 5.601562 3.769531 5.53125 3.765625 5.457031 C 3.765625 5.355469 3.765625 5.253906 3.765625 5.152344 C 3.765625 5.121094 3.765625 5.089844 3.765625 5.0625 C 3.769531 4.707031 3.921875 4.417969 4.15625 4.15625 C 4.714844 3.664062 5.414062 3.609375 6.03125 4.03125 Z M 6.03125 4.03125 "/>
<path style=" stroke:none;fill-rule:nonzero;fill:rgb(99.607843%,89.803922%,99.215686%);fill-opacity:1;" d="M 7.972656 3.742188 C 8.011719 3.742188 8.011719 3.742188 8.050781 3.742188 C 8.078125 3.742188 8.105469 3.742188 8.132812 3.742188 C 8.160156 3.742188 8.1875 3.742188 8.21875 3.738281 C 8.277344 3.738281 8.335938 3.738281 8.398438 3.738281 C 8.488281 3.738281 8.578125 3.738281 8.667969 3.738281 C 8.726562 3.738281 8.785156 3.738281 8.84375 3.738281 C 8.871094 3.738281 8.894531 3.738281 8.925781 3.738281 C 9.324219 3.742188 9.683594 3.910156 9.96875 4.1875 C 10.050781 4.289062 10.121094 4.390625 10.1875 4.5 C 10.203125 4.523438 10.214844 4.542969 10.230469 4.566406 C 10.320312 4.75 10.324219 4.929688 10.324219 5.125 C 10.328125 5.152344 10.328125 5.179688 10.328125 5.207031 C 10.324219 5.550781 10.183594 5.882812 9.953125 6.140625 C 9.675781 6.402344 9.320312 6.566406 8.933594 6.566406 C 8.90625 6.566406 8.875 6.566406 8.847656 6.566406 C 8.800781 6.566406 8.800781 6.566406 8.753906 6.5625 C 8.726562 6.5625 8.695312 6.5625 8.664062 6.5625 C 8.589844 6.5625 8.511719 6.5625 8.4375 6.5625 C 8.4375 6.582031 8.4375 6.601562 8.4375 6.621094 C 8.441406 6.816406 8.441406 7.011719 8.441406 7.207031 C 8.441406 7.28125 8.445312 7.351562 8.445312 7.425781 C 8.445312 7.53125 8.445312 7.636719 8.445312 7.742188 C 8.445312 7.773438 8.449219 7.804688 8.449219 7.839844 C 8.449219 8.011719 8.441406 8.132812 8.34375 8.28125 C 8.230469 8.386719 8.148438 8.433594 7.988281 8.445312 C 7.824219 8.433594 7.726562 8.386719 7.613281 8.265625 C 7.539062 8.152344 7.527344 8.066406 7.527344 7.929688 C 7.527344 7.894531 7.527344 7.863281 7.523438 7.828125 C 7.523438 7.789062 7.523438 7.753906 7.523438 7.714844 C 7.523438 7.65625 7.523438 7.65625 7.523438 7.59375 C 7.523438 7.464844 7.523438 7.332031 7.523438 7.203125 C 7.523438 7.179688 7.519531 7.160156 7.519531 7.136719 C 7.519531 6.925781 7.519531 6.71875 7.519531 6.507812 C 7.519531 6.242188 7.515625 5.972656 7.515625 5.707031 C 7.511719 5.515625 7.511719 5.328125 7.511719 5.140625 C 7.511719 5.027344 7.511719 4.917969 7.511719 4.804688 C 7.507812 4.679688 7.507812 4.554688 7.507812 4.425781 C 7.507812 4.390625 7.507812 4.351562 7.507812 4.316406 C 7.507812 4.117188 7.523438 3.996094 7.667969 3.851562 C 7.765625 3.777344 7.847656 3.742188 7.972656 3.742188 Z M 7.972656 3.742188 "/>
<path style=" stroke:none;fill-rule:nonzero;fill:rgb(69.01961%,25.098041%,99.607843%);fill-opacity:1;" d="M 14.5 13.46875 C 14.585938 13.546875 14.585938 13.546875 14.65625 13.625 C 14.671875 13.640625 14.6875 13.65625 14.703125 13.671875 C 14.972656 13.953125 15.042969 14.316406 15.039062 14.695312 C 15.011719 15.074219 14.847656 15.40625 14.5625 15.65625 C 14.179688 15.980469 13.800781 16.039062 13.3125 16 C 12.921875 15.921875 12.617188 15.664062 12.386719 15.351562 C 12.183594 15.027344 12.136719 14.640625 12.207031 14.265625 C 12.335938 13.824219 12.605469 13.519531 13 13.289062 C 13.488281 13.085938 14.074219 13.152344 14.5 13.46875 Z M 14.5 13.46875 "/>
<path style=" stroke:none;fill-rule:nonzero;fill:rgb(69.01961%,25.098041%,99.607843%);fill-opacity:1;" d="M 8.875 13.46875 C 8.960938 13.546875 8.960938 13.546875 9.03125 13.625 C 9.046875 13.640625 9.0625 13.65625 9.078125 13.671875 C 9.347656 13.953125 9.417969 14.316406 9.414062 14.695312 C 9.386719 15.074219 9.222656 15.40625 8.9375 15.65625 C 8.554688 15.980469 8.175781 16.039062 7.6875 16 C 7.296875 15.921875 6.992188 15.664062 6.761719 15.351562 C 6.558594 15.027344 6.511719 14.640625 6.582031 14.265625 C 6.710938 13.824219 6.980469 13.519531 7.375 13.289062 C 7.863281 13.085938 8.449219 13.152344 8.875 13.46875 Z M 8.875 13.46875 "/>
<path style=" stroke:none;fill-rule:nonzero;fill:rgb(69.01961%,25.098041%,99.607843%);fill-opacity:1;" d="M 3.25 13.46875 C 3.335938 13.546875 3.335938 13.546875 3.40625 13.625 C 3.421875 13.640625 3.4375 13.65625 3.453125 13.671875 C 3.722656 13.953125 3.792969 14.316406 3.789062 14.695312 C 3.761719 15.074219 3.597656 15.40625 3.3125 15.65625 C 2.929688 15.980469 2.550781 16.039062 2.0625 16 C 1.671875 15.921875 1.367188 15.664062 1.136719 15.351562 C 0.933594 15.027344 0.886719 14.640625 0.957031 14.265625 C 1.085938 13.824219 1.355469 13.519531 1.75 13.289062 C 2.238281 13.085938 2.824219 13.152344 3.25 13.46875 Z M 3.25 13.46875 "/>
<path style=" stroke:none;fill-rule:nonzero;fill:rgb(99.607843%,78.823531%,98.039216%);fill-opacity:1;" d="M 10.3125 10.3125 C 10.632812 10.3125 10.953125 10.3125 11.28125 10.3125 C 11.28125 10.632812 11.28125 10.953125 11.28125 11.28125 C 11.355469 11.28125 11.429688 11.28125 11.507812 11.277344 C 11.753906 11.277344 12.003906 11.277344 12.25 11.273438 C 12.398438 11.273438 12.550781 11.273438 12.699219 11.273438 C 12.84375 11.269531 12.988281 11.269531 13.132812 11.269531 C 13.1875 11.269531 13.242188 11.269531 13.296875 11.269531 C 13.375 11.265625 13.453125 11.265625 13.53125 11.265625 C 13.566406 11.265625 13.566406 11.265625 13.597656 11.265625 C 13.757812 11.265625 13.847656 11.308594 13.96875 11.40625 C 14.074219 11.527344 14.097656 11.625 14.097656 11.785156 C 14.097656 11.832031 14.097656 11.832031 14.097656 11.882812 C 14.097656 11.917969 14.097656 11.953125 14.097656 11.988281 C 14.097656 12.027344 14.097656 12.0625 14.097656 12.097656 C 14.097656 12.214844 14.097656 12.328125 14.09375 12.445312 C 14.09375 12.519531 14.09375 12.597656 14.09375 12.675781 C 14.09375 12.867188 14.09375 13.058594 14.09375 13.25 C 14.074219 13.246094 14.050781 13.246094 14.03125 13.242188 C 14 13.242188 13.972656 13.238281 13.945312 13.234375 C 13.902344 13.230469 13.902344 13.230469 13.859375 13.226562 C 13.757812 13.214844 13.660156 13.214844 13.554688 13.214844 C 13.503906 13.214844 13.503906 13.214844 13.449219 13.214844 C 13.339844 13.21875 13.234375 13.234375 13.125 13.25 C 13.125 12.910156 13.125 12.570312 13.125 12.21875 C 13.011719 12.21875 13.011719 12.21875 12.898438 12.222656 C 12.652344 12.222656 12.402344 12.222656 12.15625 12.226562 C 12.007812 12.226562 11.855469 12.226562 11.707031 12.226562 C 11.5625 12.230469 11.417969 12.230469 11.273438 12.230469 C 11.21875 12.230469 11.164062 12.230469 11.109375 12.230469 C 11.03125 12.234375 10.953125 12.234375 10.875 12.234375 C 10.851562 12.234375 10.832031 12.234375 10.808594 12.234375 C 10.648438 12.234375 10.558594 12.191406 10.4375 12.09375 C 10.332031 11.976562 10.308594 11.875 10.308594 11.722656 C 10.308594 11.691406 10.308594 11.660156 10.308594 11.625 C 10.308594 11.59375 10.308594 11.558594 10.308594 11.523438 C 10.308594 11.488281 10.308594 11.453125 10.308594 11.417969 C 10.308594 11.308594 10.308594 11.199219 10.3125 11.085938 C 10.3125 11.011719 10.3125 10.9375 10.3125 10.863281 C 10.3125 10.679688 10.3125 10.496094 10.3125 10.3125 Z M 10.3125 10.3125 "/>
<path style=" stroke:none;fill-rule:nonzero;fill:rgb(99.607843%,78.823531%,98.039216%);fill-opacity:1;" d="M 4.6875 10.3125 C 5.007812 10.3125 5.328125 10.3125 5.65625 10.3125 C 5.660156 10.53125 5.660156 10.75 5.660156 10.96875 C 5.660156 11.042969 5.664062 11.117188 5.664062 11.191406 C 5.664062 11.300781 5.664062 11.40625 5.664062 11.515625 C 5.664062 11.546875 5.667969 11.582031 5.667969 11.617188 C 5.667969 11.789062 5.664062 11.914062 5.5625 12.0625 C 5.40625 12.203125 5.3125 12.222656 5.105469 12.222656 C 5.070312 12.222656 5.070312 12.222656 5.035156 12.222656 C 4.953125 12.222656 4.871094 12.222656 4.789062 12.222656 C 4.734375 12.222656 4.679688 12.222656 4.621094 12.222656 C 4.476562 12.222656 4.328125 12.222656 4.179688 12.222656 C 4.03125 12.21875 3.878906 12.21875 3.730469 12.21875 C 3.433594 12.21875 3.140625 12.21875 2.84375 12.21875 C 2.84375 12.558594 2.84375 12.898438 2.84375 13.25 C 2.742188 13.238281 2.636719 13.230469 2.53125 13.21875 C 2.457031 13.214844 2.382812 13.214844 2.304688 13.214844 C 2.253906 13.214844 2.253906 13.214844 2.199219 13.214844 C 2.089844 13.21875 1.984375 13.234375 1.875 13.25 C 1.871094 13.023438 1.871094 12.792969 1.871094 12.566406 C 1.871094 12.488281 1.867188 12.410156 1.867188 12.332031 C 1.867188 12.222656 1.867188 12.109375 1.867188 12 C 1.867188 11.964844 1.863281 11.929688 1.863281 11.894531 C 1.863281 11.71875 1.867188 11.585938 1.96875 11.4375 C 2.125 11.296875 2.21875 11.277344 2.425781 11.277344 C 2.460938 11.277344 2.460938 11.277344 2.496094 11.277344 C 2.578125 11.277344 2.660156 11.277344 2.742188 11.277344 C 2.796875 11.277344 2.851562 11.277344 2.910156 11.277344 C 3.054688 11.277344 3.203125 11.277344 3.351562 11.277344 C 3.5 11.28125 3.652344 11.28125 3.800781 11.28125 C 4.097656 11.28125 4.390625 11.28125 4.6875 11.28125 C 4.6875 10.960938 4.6875 10.640625 4.6875 10.3125 Z M 4.6875 10.3125 "/>
<path style=" stroke:none;fill-rule:nonzero;fill:rgb(99.607843%,89.019608%,99.215686%);fill-opacity:1;" d="M 11.945312 3.785156 C 12.046875 3.855469 12.128906 3.917969 12.1875 4.03125 C 12.210938 4.164062 12.207031 4.292969 12.207031 4.425781 C 12.207031 4.464844 12.207031 4.503906 12.207031 4.546875 C 12.207031 4.652344 12.207031 4.761719 12.207031 4.871094 C 12.207031 4.984375 12.207031 5.097656 12.207031 5.210938 C 12.207031 5.402344 12.207031 5.59375 12.207031 5.785156 C 12.207031 6.003906 12.207031 6.226562 12.207031 6.445312 C 12.207031 6.65625 12.207031 6.871094 12.207031 7.082031 C 12.207031 7.171875 12.207031 7.261719 12.207031 7.351562 C 12.207031 7.480469 12.203125 7.605469 12.203125 7.730469 C 12.203125 7.769531 12.203125 7.804688 12.203125 7.84375 C 12.203125 8.039062 12.195312 8.164062 12.0625 8.3125 C 11.960938 8.402344 11.878906 8.433594 11.742188 8.445312 C 11.574219 8.433594 11.476562 8.386719 11.367188 8.265625 C 11.289062 8.152344 11.277344 8.097656 11.277344 7.964844 C 11.277344 7.929688 11.277344 7.894531 11.273438 7.859375 C 11.273438 7.820312 11.273438 7.785156 11.273438 7.746094 C 11.273438 7.707031 11.273438 7.667969 11.273438 7.625 C 11.273438 7.492188 11.273438 7.363281 11.273438 7.230469 C 11.273438 7.207031 11.269531 7.1875 11.269531 7.164062 C 11.269531 6.953125 11.269531 6.742188 11.269531 6.53125 C 11.269531 6.261719 11.265625 5.988281 11.265625 5.71875 C 11.261719 5.53125 11.261719 5.339844 11.261719 5.152344 C 11.261719 5.039062 11.261719 4.925781 11.261719 4.8125 C 11.257812 4.683594 11.257812 4.558594 11.257812 4.429688 C 11.257812 4.394531 11.257812 4.355469 11.257812 4.316406 C 11.257812 4.121094 11.273438 3.996094 11.417969 3.851562 C 11.582031 3.726562 11.75 3.71875 11.945312 3.785156 Z M 11.945312 3.785156 "/>
<path style=" stroke:none;fill-rule:nonzero;fill:rgb(99.607843%,78.431374%,98.039216%);fill-opacity:1;" d="M 7.5 10.3125 C 7.820312 10.3125 8.140625 10.3125 8.46875 10.3125 C 8.46875 11.28125 8.46875 12.25 8.46875 13.25 C 8.367188 13.238281 8.261719 13.230469 8.15625 13.21875 C 8.082031 13.214844 8.007812 13.214844 7.929688 13.214844 C 7.878906 13.214844 7.878906 13.214844 7.824219 13.214844 C 7.714844 13.21875 7.609375 13.234375 7.5 13.25 C 7.5 12.28125 7.5 11.3125 7.5 10.3125 Z M 7.5 10.3125 "/>
<path style=" stroke:none;fill-rule:nonzero;fill:rgb(89.019608%,41.568628%,99.607843%);fill-opacity:1;" d="M 5.382812 4.722656 C 5.484375 4.792969 5.566406 4.859375 5.625 4.96875 C 5.644531 5.082031 5.640625 5.191406 5.632812 5.308594 C 5.632812 5.414062 5.628906 5.515625 5.625 5.625 C 5.324219 5.625 5.027344 5.625 4.71875 5.625 C 4.714844 5.519531 4.710938 5.417969 4.707031 5.3125 C 4.707031 5.277344 4.703125 5.246094 4.703125 5.210938 C 4.699219 5.027344 4.722656 4.925781 4.851562 4.792969 C 5.015625 4.660156 5.1875 4.65625 5.382812 4.722656 Z M 5.382812 4.722656 "/>
<path style=" stroke:none;fill-rule:nonzero;fill:rgb(89.019608%,41.568628%,99.607843%);fill-opacity:1;" d="M 8.46875 4.6875 C 8.558594 4.6875 8.648438 4.683594 8.738281 4.679688 C 8.765625 4.679688 8.792969 4.679688 8.820312 4.679688 C 9.027344 4.675781 9.152344 4.722656 9.308594 4.859375 C 9.398438 4.972656 9.394531 5.089844 9.386719 5.230469 C 9.363281 5.386719 9.289062 5.46875 9.171875 5.566406 C 9.027344 5.644531 8.914062 5.640625 8.753906 5.632812 C 8.613281 5.628906 8.613281 5.628906 8.46875 5.625 C 8.46875 5.316406 8.46875 5.007812 8.46875 4.6875 Z M 8.46875 4.6875 "/>
</g>
</svg>
