<?xml version="1.0" encoding="UTF-8"?>
<svg xmlns="http://www.w3.org/2000/svg" xmlns:xlink="http://www.w3.org/1999/xlink" width="64px" height="px" viewBox="0 0 64 64" version="1.1">
<g id="surface1">
<path style=" stroke:none;fill-rule:nonzero;fill:rgb(99.607843%,78.431374%,59.607846%);fill-opacity:1;" d="M 21.84375 1.71875 C 22.609375 1.777344 23.207031 2.300781 23.710938 2.859375 C 24.265625 3.652344 24.453125 4.589844 24.320312 5.542969 C 24.105469 6.527344 23.566406 7.390625 23.085938 8.265625 C 22.984375 8.453125 22.882812 8.640625 22.78125 8.828125 C 22.527344 9.300781 22.273438 9.765625 22.019531 10.234375 C 21.800781 10.636719 21.582031 11.042969 21.363281 11.445312 C 20.996094 12.132812 20.625 12.816406 20.25 13.5 C 20.640625 13.5 20.835938 13.433594 21.191406 13.285156 C 21.300781 13.242188 21.410156 13.195312 21.523438 13.152344 C 21.636719 13.101562 21.75 13.054688 21.867188 13.007812 C 22.09375 12.914062 22.316406 12.824219 22.542969 12.730469 C 22.640625 12.691406 22.742188 12.648438 22.84375 12.605469 C 23.6875 12.289062 24.542969 12.246094 25.375 12.609375 C 26.25 13.097656 26.691406 14.152344 27.132812 15 C 27.273438 15.269531 27.417969 15.535156 27.558594 15.804688 C 27.632812 15.9375 27.703125 16.074219 27.78125 16.214844 C 28.191406 16.980469 28.621094 17.734375 29.054688 18.488281 C 29.550781 19.359375 30.027344 20.238281 30.5 21.125 C 30.585938 21.078125 30.675781 21.03125 30.765625 20.984375 C 32.457031 20.070312 34.148438 19.167969 35.859375 18.289062 C 36.898438 17.753906 37.929688 17.214844 38.953125 16.648438 C 40.238281 15.9375 41.542969 15.269531 42.851562 14.601562 C 44.0625 13.984375 45.265625 13.351562 46.453125 12.695312 C 47.480469 12.128906 48.519531 11.597656 49.5625 11.0625 C 50.726562 10.464844 51.886719 9.867188 53.03125 9.234375 C 53.480469 8.988281 53.925781 8.742188 54.375 8.5 C 54.445312 8.460938 54.519531 8.421875 54.59375 8.382812 C 55.078125 8.117188 55.566406 7.855469 56.054688 7.597656 C 56.214844 7.511719 56.375 7.425781 56.53125 7.339844 C 58.109375 6.484375 58.109375 6.484375 59 6.625 C 59.507812 6.890625 59.785156 7.097656 60 7.625 C 60.050781 7.890625 60.050781 7.890625 60.0625 8.164062 C 60.070312 8.296875 60.070312 8.296875 60.082031 8.4375 C 59.917969 9.070312 59.484375 9.476562 58.941406 9.824219 C 58.566406 10.023438 58.191406 10.214844 57.8125 10.398438 C 57.527344 10.542969 57.246094 10.683594 56.960938 10.828125 C 56.820312 10.898438 56.679688 10.96875 56.53125 11.042969 C 55.949219 11.339844 55.375 11.652344 54.804688 11.96875 C 53.675781 12.589844 52.542969 13.195312 51.40625 13.796875 C 50.042969 14.519531 48.679688 15.246094 47.324219 15.980469 C 46.347656 16.507812 45.367188 17.03125 44.390625 17.554688 C 44.246094 17.632812 44.101562 17.710938 43.949219 17.789062 C 43.433594 18.066406 42.917969 18.34375 42.402344 18.617188 C 40.769531 19.492188 39.132812 20.371094 37.5 21.25 C 36.382812 21.851562 35.261719 22.453125 34.140625 23.054688 C 33.996094 23.132812 33.855469 23.207031 33.707031 23.285156 C 33.015625 23.65625 32.328125 24.027344 31.636719 24.394531 C 31.3125 24.566406 30.988281 24.742188 30.664062 24.914062 C 30.507812 24.996094 30.355469 25.078125 30.199219 25.164062 C 29.984375 25.277344 29.769531 25.390625 29.554688 25.507812 C 29.433594 25.570312 29.308594 25.636719 29.183594 25.703125 C 28.859375 25.878906 28.859375 25.878906 28.5 26.125 C 28.644531 26.148438 28.792969 26.171875 28.941406 26.199219 C 29.136719 26.230469 29.328125 26.265625 29.523438 26.296875 C 29.621094 26.3125 29.714844 26.328125 29.816406 26.34375 C 30.320312 26.433594 30.777344 26.53125 31.25 26.75 C 30.953125 27.730469 30.535156 28.628906 30.085938 29.546875 C 30.046875 29.625 30.011719 29.703125 29.972656 29.78125 C 29.730469 30.273438 29.488281 30.765625 29.246094 31.253906 C 29.167969 31.417969 29.085938 31.578125 29.003906 31.742188 C 28.738281 32.285156 28.46875 32.820312 28.195312 33.359375 C 28.125 33.5 28.058594 33.636719 27.984375 33.78125 C 27.359375 34.996094 26.832031 35.667969 25.535156 36.121094 C 24.851562 36.335938 24.15625 36.515625 23.464844 36.6875 C 23.191406 36.757812 22.921875 36.824219 22.652344 36.894531 C 21.984375 37.0625 21.3125 37.234375 20.644531 37.402344 C 20.074219 37.546875 19.507812 37.691406 18.9375 37.835938 C 18.671875 37.902344 18.40625 37.96875 18.140625 38.035156 C 17.976562 38.078125 17.816406 38.117188 17.652344 38.160156 C 17.441406 38.214844 17.441406 38.214844 17.222656 38.269531 C 16.855469 38.363281 16.855469 38.363281 16.5 38.625 C 16.539062 38.964844 16.578125 39.308594 16.617188 39.648438 C 16.628906 39.746094 16.640625 39.839844 16.648438 39.941406 C 16.707031 40.421875 16.769531 40.898438 16.875 41.375 C 16.964844 41.320312 17.054688 41.265625 17.144531 41.207031 C 17.6875 40.886719 18.113281 40.640625 18.742188 40.570312 C 19.175781 40.773438 19.199219 40.832031 19.371094 41.253906 C 19.414062 41.355469 19.457031 41.457031 19.5 41.5625 C 19.652344 41.941406 19.800781 42.320312 19.949219 42.703125 C 20.757812 44.796875 21.695312 46.878906 22.875 48.792969 C 23.046875 49.246094 23 49.535156 22.875 50 C 22.671875 50.222656 22.671875 50.222656 22.429688 50.367188 C 22.347656 50.417969 22.269531 50.46875 22.1875 50.519531 C 22.125 50.554688 22.0625 50.589844 22 50.625 C 22.074219 51.113281 22.21875 51.453125 22.476562 51.875 C 22.546875 51.992188 22.621094 52.109375 22.695312 52.230469 C 22.8125 52.417969 22.8125 52.417969 22.929688 52.609375 C 23.007812 52.738281 23.085938 52.863281 23.167969 52.996094 C 23.796875 54.011719 24.449219 55.011719 25.125 56 C 25.375 56.375 25.375 56.375 25.375 56.75 C 25.164062 56.929688 25.164062 56.929688 24.859375 57.125 C 24.738281 57.199219 24.621094 57.277344 24.5 57.355469 C 24.363281 57.4375 24.230469 57.523438 24.09375 57.609375 C 23.875 57.75 23.660156 57.886719 23.441406 58.027344 C 23.28125 58.132812 23.117188 58.234375 22.957031 58.339844 C 21.855469 59.046875 20.765625 59.765625 19.675781 60.488281 C 19.320312 60.722656 18.96875 60.953125 18.613281 61.1875 C 18.445312 61.296875 18.445312 61.296875 18.273438 61.414062 C 18.046875 61.558594 17.824219 61.707031 17.601562 61.855469 C 17.054688 62.214844 16.511719 62.578125 15.96875 62.945312 C 15.8125 63.050781 15.8125 63.050781 15.65625 63.15625 C 15.460938 63.289062 15.265625 63.421875 15.070312 63.558594 C 14.984375 63.617188 14.898438 63.675781 14.808594 63.734375 C 14.734375 63.785156 14.660156 63.835938 14.582031 63.890625 C 14.375 64 14.375 64 14 64 C 13.816406 63.785156 13.816406 63.785156 13.617188 63.480469 C 13.546875 63.367188 13.472656 63.253906 13.394531 63.136719 C 13.316406 63.011719 13.238281 62.886719 13.15625 62.757812 C 13.074219 62.628906 12.992188 62.503906 12.910156 62.371094 C 12.199219 61.257812 11.515625 60.125 10.84375 58.988281 C 10.769531 58.863281 10.695312 58.738281 10.617188 58.605469 C 10.554688 58.496094 10.488281 58.382812 10.421875 58.269531 C 10.257812 57.988281 10.257812 57.988281 10 57.75 C 9.859375 57.777344 9.722656 57.800781 9.578125 57.828125 C 9.429688 57.84375 9.277344 57.859375 9.125 57.875 C 8.746094 57.5625 8.515625 57.222656 8.28125 56.789062 C 8.191406 56.621094 8.191406 56.621094 8.097656 56.449219 C 8.003906 56.269531 8.003906 56.269531 7.90625 56.085938 C 7.804688 55.898438 7.804688 55.898438 7.703125 55.710938 C 7.570312 55.460938 7.4375 55.210938 7.304688 54.960938 C 7.15625 54.683594 7.007812 54.410156 6.851562 54.136719 C 6.046875 52.683594 5.398438 51.15625 4.75 49.625 C 4.675781 49.449219 4.675781 49.449219 4.601562 49.269531 C 4.554688 49.160156 4.507812 49.050781 4.460938 48.9375 C 4.402344 48.796875 4.402344 48.796875 4.339844 48.648438 C 4.191406 48.195312 4.191406 47.847656 4.25 47.375 C 4.546875 46.953125 4.957031 46.867188 5.4375 46.726562 C 5.582031 46.683594 5.722656 46.640625 5.871094 46.597656 C 6.25 46.5 6.25 46.5 6.625 46.5 C 6.605469 46.425781 6.585938 46.351562 6.5625 46.273438 C 5.101562 40.792969 4.484375 34.855469 5.625 29.25 C 5.652344 29.117188 5.679688 28.984375 5.707031 28.847656 C 6.277344 26.082031 7.089844 23.386719 8.023438 20.726562 C 8.074219 20.582031 8.125 20.4375 8.175781 20.285156 C 8.929688 18.179688 8.929688 18.179688 10 17.625 C 10.359375 17.53125 10.359375 17.53125 10.625 17.5 C 10.632812 17.425781 10.636719 17.347656 10.644531 17.269531 C 10.714844 16.519531 10.820312 15.78125 10.953125 15.039062 C 10.972656 14.921875 10.992188 14.808594 11.015625 14.691406 C 11.082031 14.320312 11.148438 13.949219 11.214844 13.574219 C 11.261719 13.316406 11.308594 13.054688 11.355469 12.792969 C 11.449219 12.25 11.546875 11.707031 11.648438 11.164062 C 11.773438 10.464844 11.894531 9.769531 12.019531 9.074219 C 12.113281 8.535156 12.210938 8 12.308594 7.460938 C 12.355469 7.203125 12.398438 6.949219 12.445312 6.691406 C 12.507812 6.332031 12.574219 5.972656 12.640625 5.617188 C 12.667969 5.457031 12.667969 5.457031 12.695312 5.292969 C 12.792969 4.773438 12.871094 4.394531 13.25 4 C 14.296875 4.125 15.15625 4.414062 15.835938 5.261719 C 16.832031 6.945312 16.121094 9.425781 15.875 11.25 C 15.945312 11.128906 15.945312 11.128906 16.015625 11.003906 C 17.164062 9.003906 18.328125 7.015625 19.507812 5.035156 C 19.75 4.625 19.992188 4.214844 20.234375 3.804688 C 20.347656 3.613281 20.347656 3.613281 20.460938 3.417969 C 20.605469 3.175781 20.746094 2.933594 20.886719 2.691406 C 20.949219 2.585938 21.011719 2.480469 21.078125 2.371094 C 21.132812 2.277344 21.1875 2.183594 21.242188 2.089844 C 21.449219 1.753906 21.449219 1.753906 21.84375 1.71875 Z M 23.125 18.5 C 22.882812 18.632812 22.882812 18.632812 22.640625 18.84375 C 22.492188 18.964844 22.492188 18.964844 22.339844 19.089844 C 22.226562 19.183594 22.113281 19.277344 22 19.375 C 21.875 19.476562 21.753906 19.582031 21.625 19.6875 C 21.28125 19.976562 20.9375 20.269531 20.597656 20.5625 C 20.367188 20.757812 20.136719 20.949219 19.90625 21.140625 C 19.753906 21.269531 19.597656 21.402344 19.445312 21.53125 C 19.375 21.589844 19.304688 21.648438 19.230469 21.710938 C 18.523438 22.308594 17.882812 22.921875 17.585938 23.820312 C 17.546875 23.929688 17.507812 24.042969 17.46875 24.15625 C 17 25.851562 17.0625 27.824219 17.890625 29.386719 C 18.460938 30.1875 19.589844 30.652344 20.5 30.960938 C 21.402344 31.105469 22.476562 31.175781 23.285156 30.6875 C 23.746094 30.285156 24.050781 29.765625 24.375 29.25 C 24.535156 29.019531 24.695312 28.789062 24.859375 28.5625 C 25.136719 28.167969 25.136719 28.167969 25.375 27.75 C 24.898438 27.929688 24.464844 28.148438 24.015625 28.390625 C 23.261719 28.769531 22.789062 28.835938 21.960938 28.664062 C 21.625 28.5 21.625 28.5 21.460938 28.1875 C 21.417969 28.03125 21.417969 28.03125 21.375 27.875 C 21.332031 27.792969 21.292969 27.710938 21.25 27.625 C 21.230469 27.371094 21.230469 27.371094 21.226562 27.078125 C 21.226562 26.980469 21.222656 26.886719 21.222656 26.785156 C 21.253906 26.449219 21.316406 26.285156 21.5 26 C 21.808594 25.792969 21.808594 25.792969 22.199219 25.589844 C 22.339844 25.511719 22.484375 25.4375 22.632812 25.359375 C 22.789062 25.277344 22.945312 25.199219 23.101562 25.117188 C 23.257812 25.035156 23.417969 24.949219 23.574219 24.867188 C 23.972656 24.660156 24.371094 24.449219 24.773438 24.242188 C 25.121094 24.0625 25.46875 23.878906 25.816406 23.695312 C 26.417969 23.378906 27.019531 23.0625 27.625 22.75 C 27.625 22.707031 27.625 22.667969 27.625 22.625 C 27.554688 22.617188 27.484375 22.605469 27.414062 22.597656 C 26.40625 22.421875 25.78125 22.035156 25.1875 21.199219 C 24.863281 20.722656 24.554688 20.238281 24.25 19.75 C 24.109375 19.527344 23.964844 19.300781 23.820312 19.078125 C 23.765625 18.992188 23.710938 18.90625 23.65625 18.816406 C 23.496094 18.585938 23.496094 18.585938 23.125 18.5 Z M 23.125 18.5 "/>
<path style=" stroke:none;fill-rule:nonzero;fill:rgb(92.54902%,92.54902%,92.54902%);fill-opacity:1;" d="M 19.125 40.75 C 19.261719 40.96875 19.261719 40.96875 19.375 41.25 C 19.417969 41.351562 19.460938 41.453125 19.503906 41.558594 C 19.542969 41.664062 19.582031 41.769531 19.625 41.875 C 19.660156 41.964844 19.695312 42.058594 19.734375 42.152344 C 19.804688 42.335938 19.878906 42.519531 19.949219 42.703125 C 20.757812 44.796875 21.695312 46.878906 22.875 48.792969 C 23.046875 49.246094 23 49.535156 22.875 50 C 22.671875 50.222656 22.671875 50.222656 22.429688 50.367188 C 22.347656 50.417969 22.269531 50.46875 22.1875 50.519531 C 22.125 50.554688 22.0625 50.589844 22 50.625 C 22.074219 51.113281 22.21875 51.453125 22.476562 51.875 C 22.546875 51.992188 22.621094 52.109375 22.695312 52.230469 C 22.8125 52.417969 22.8125 52.417969 22.929688 52.609375 C 23.007812 52.738281 23.085938 52.863281 23.167969 52.996094 C 23.796875 54.011719 24.449219 55.011719 25.125 56 C 25.375 56.375 25.375 56.375 25.375 56.75 C 25.164062 56.929688 25.164062 56.929688 24.859375 57.125 C 24.738281 57.199219 24.621094 57.277344 24.5 57.355469 C 24.363281 57.4375 24.230469 57.523438 24.09375 57.609375 C 23.875 57.75 23.660156 57.886719 23.441406 58.027344 C 23.28125 58.132812 23.117188 58.234375 22.957031 58.339844 C 21.855469 59.046875 20.765625 59.765625 19.675781 60.488281 C 19.320312 60.722656 18.96875 60.953125 18.613281 61.1875 C 18.445312 61.296875 18.445312 61.296875 18.273438 61.414062 C 18.046875 61.558594 17.824219 61.707031 17.601562 61.855469 C 17.054688 62.214844 16.511719 62.578125 15.96875 62.945312 C 15.867188 63.015625 15.761719 63.085938 15.65625 63.15625 C 15.460938 63.289062 15.265625 63.421875 15.070312 63.558594 C 14.941406 63.644531 14.941406 63.644531 14.808594 63.734375 C 14.734375 63.785156 14.660156 63.835938 14.582031 63.890625 C 14.375 64 14.375 64 14 64 C 13.816406 63.785156 13.816406 63.785156 13.617188 63.480469 C 13.546875 63.367188 13.472656 63.253906 13.394531 63.136719 C 13.316406 63.011719 13.238281 62.886719 13.15625 62.757812 C 13.074219 62.628906 12.992188 62.503906 12.910156 62.371094 C 12.199219 61.257812 11.515625 60.125 10.84375 58.988281 C 10.769531 58.863281 10.695312 58.738281 10.617188 58.605469 C 10.554688 58.496094 10.488281 58.382812 10.421875 58.269531 C 10.257812 57.988281 10.257812 57.988281 10 57.75 C 9.859375 57.777344 9.722656 57.800781 9.578125 57.828125 C 9.429688 57.84375 9.277344 57.859375 9.125 57.875 C 8.746094 57.5625 8.515625 57.222656 8.28125 56.789062 C 8.191406 56.621094 8.191406 56.621094 8.097656 56.449219 C 8.035156 56.328125 7.972656 56.210938 7.90625 56.085938 C 7.804688 55.898438 7.804688 55.898438 7.703125 55.710938 C 7.570312 55.460938 7.4375 55.210938 7.304688 54.960938 C 7.15625 54.683594 7.007812 54.410156 6.851562 54.136719 C 6.046875 52.683594 5.398438 51.15625 4.75 49.625 C 4.699219 49.507812 4.652344 49.390625 4.601562 49.269531 C 4.554688 49.160156 4.507812 49.050781 4.460938 48.9375 C 4.421875 48.84375 4.382812 48.746094 4.339844 48.648438 C 4.191406 48.195312 4.191406 47.847656 4.25 47.375 C 4.542969 46.964844 4.925781 46.878906 5.398438 46.742188 C 5.601562 46.683594 5.601562 46.683594 5.808594 46.621094 C 6.109375 46.539062 6.410156 46.464844 6.714844 46.394531 C 7.390625 46.226562 8.03125 45.964844 8.679688 45.703125 C 8.816406 45.648438 8.953125 45.59375 9.09375 45.539062 C 12.074219 44.320312 15 42.886719 17.625 41.015625 C 18.191406 40.613281 18.441406 40.539062 19.125 40.75 Z M 19.125 40.75 "/>
<path style=" stroke:none;fill-rule:nonzero;fill:rgb(29.019609%,29.019609%,40.392157%);fill-opacity:1;" d="M 59 6.625 C 59.507812 6.890625 59.785156 7.097656 60 7.625 C 60.050781 7.890625 60.050781 7.890625 60.0625 8.164062 C 60.070312 8.296875 60.070312 8.296875 60.082031 8.4375 C 59.917969 9.070312 59.484375 9.476562 58.941406 9.824219 C 58.566406 10.023438 58.191406 10.214844 57.8125 10.398438 C 57.527344 10.542969 57.246094 10.683594 56.960938 10.828125 C 56.820312 10.898438 56.679688 10.96875 56.53125 11.042969 C 55.949219 11.339844 55.375 11.652344 54.804688 11.96875 C 53.675781 12.589844 52.542969 13.195312 51.40625 13.796875 C 50.042969 14.519531 48.679688 15.246094 47.324219 15.980469 C 46.347656 16.507812 45.367188 17.03125 44.390625 17.554688 C 44.246094 17.632812 44.101562 17.710938 43.949219 17.789062 C 43.433594 18.066406 42.917969 18.34375 42.402344 18.617188 C 40.769531 19.492188 39.132812 20.371094 37.5 21.25 C 36.234375 21.929688 34.96875 22.609375 33.703125 23.289062 C 32.949219 23.691406 32.199219 24.09375 31.445312 24.5 C 31.140625 24.664062 30.835938 24.828125 30.53125 24.992188 C 30.457031 25.03125 30.382812 25.070312 30.308594 25.113281 C 29.390625 25.605469 28.464844 26.085938 27.53125 26.542969 C 27.007812 26.804688 26.5 27.082031 25.992188 27.375 C 25.402344 27.714844 25.402344 27.714844 25.125 27.875 C 25.042969 27.921875 24.964844 27.96875 24.882812 28.015625 C 24.632812 28.160156 24.382812 28.296875 24.132812 28.4375 C 24.058594 28.480469 23.980469 28.523438 23.90625 28.570312 C 23.375 28.863281 22.976562 28.925781 22.375 28.875 C 21.796875 28.683594 21.488281 28.429688 21.210938 27.878906 C 21.015625 27.304688 21.007812 26.746094 21.273438 26.195312 C 21.546875 25.808594 21.789062 25.671875 22.210938 25.453125 C 22.425781 25.339844 22.425781 25.339844 22.644531 25.222656 C 22.800781 25.144531 22.953125 25.0625 23.109375 24.984375 C 23.269531 24.902344 23.425781 24.816406 23.585938 24.734375 C 23.90625 24.566406 24.226562 24.402344 24.546875 24.234375 C 24.949219 24.027344 25.347656 23.816406 25.746094 23.605469 C 26.707031 23.097656 27.671875 22.597656 28.648438 22.117188 C 29.425781 21.734375 30.183594 21.316406 30.941406 20.890625 C 31.792969 20.414062 32.660156 19.964844 33.53125 19.515625 C 34.550781 18.992188 35.5625 18.460938 36.5625 17.90625 C 37.851562 17.195312 39.164062 16.523438 40.476562 15.851562 C 41.6875 15.234375 42.890625 14.601562 44.078125 13.945312 C 45.195312 13.328125 46.328125 12.753906 47.460938 12.171875 C 48.515625 11.632812 49.570312 11.082031 50.609375 10.507812 C 51.996094 9.742188 53.40625 9.019531 54.816406 8.300781 C 54.996094 8.207031 55.175781 8.117188 55.355469 8.023438 C 55.441406 7.980469 55.53125 7.9375 55.621094 7.890625 C 56.308594 7.539062 56.988281 7.167969 57.664062 6.785156 C 58.167969 6.542969 58.453125 6.519531 59 6.625 Z M 59 6.625 "/>
<path style=" stroke:none;fill-rule:nonzero;fill:rgb(90.980393%,38.039216%,41.960785%);fill-opacity:1;" d="M 45.261719 28.515625 C 45.488281 28.53125 45.488281 28.53125 45.722656 28.546875 C 45.890625 28.558594 46.058594 28.574219 46.226562 28.585938 C 46.402344 28.597656 46.574219 28.609375 46.75 28.621094 C 47.128906 28.648438 47.507812 28.675781 47.882812 28.707031 C 48.425781 28.746094 48.964844 28.78125 49.503906 28.816406 C 49.957031 28.84375 50.410156 28.875 50.863281 28.90625 C 51.082031 28.921875 51.304688 28.9375 51.523438 28.949219 C 51.835938 28.96875 52.148438 28.992188 52.460938 29.015625 C 52.601562 29.023438 52.601562 29.023438 52.742188 29.03125 C 53.4375 29.085938 54.050781 29.238281 54.609375 29.6875 C 54.980469 30.183594 54.921875 30.789062 54.875 31.375 C 54.777344 31.957031 54.644531 32.53125 54.507812 33.109375 C 54.472656 33.273438 54.433594 33.441406 54.394531 33.609375 C 54.316406 33.957031 54.234375 34.300781 54.15625 34.648438 C 54.050781 35.089844 53.949219 35.53125 53.851562 35.972656 C 53.773438 36.316406 53.691406 36.660156 53.613281 37.003906 C 53.558594 37.242188 53.503906 37.484375 53.449219 37.726562 C 52.832031 40.34375 52.832031 40.34375 51.75 41.125 C 50.804688 41.667969 49.855469 41.789062 48.796875 41.550781 C 47.933594 41.265625 47.371094 40.753906 46.875 40 C 46.410156 39.058594 46.410156 38.097656 46.707031 37.101562 C 47.058594 36.269531 47.78125 35.570312 48.609375 35.222656 C 49.652344 34.960938 50.660156 35.046875 51.625 35.5 C 52.019531 34.046875 52.386719 32.585938 52.75 31.125 C 52.667969 31.125 52.585938 31.128906 52.503906 31.128906 C 51.621094 31.136719 50.753906 31.089844 49.875 31.015625 C 49.738281 31.003906 49.601562 30.992188 49.460938 30.980469 C 49.027344 30.945312 48.597656 30.910156 48.164062 30.875 C 47.871094 30.851562 47.574219 30.828125 47.28125 30.804688 C 46.5625 30.742188 45.84375 30.683594 45.125 30.625 C 45.097656 30.773438 45.066406 30.921875 45.039062 31.074219 C 44.742188 32.570312 44.429688 34.058594 44.085938 35.542969 C 44.035156 35.777344 43.980469 36.011719 43.929688 36.246094 C 43.171875 39.644531 43.171875 39.644531 41.875 40.5 C 41.023438 41.011719 40.042969 41.007812 39.078125 40.816406 C 38.242188 40.542969 37.601562 40.007812 37.203125 39.226562 C 36.816406 38.371094 36.703125 37.464844 36.96875 36.546875 C 37.394531 35.554688 37.96875 34.9375 38.953125 34.46875 C 40.109375 34.210938 41.070312 34.351562 42.125 34.875 C 42.136719 34.734375 42.148438 34.59375 42.15625 34.445312 C 42.253906 33.582031 42.457031 32.738281 42.652344 31.890625 C 42.71875 31.601562 42.78125 31.3125 42.84375 31.023438 C 42.886719 30.835938 42.929688 30.648438 42.976562 30.464844 C 42.992188 30.378906 43.011719 30.292969 43.03125 30.203125 C 43.183594 29.558594 43.414062 29.207031 43.875 28.75 C 44.347656 28.480469 44.722656 28.480469 45.261719 28.515625 Z M 45.261719 28.515625 "/>
<path style=" stroke:none;fill-rule:nonzero;fill:rgb(95.686275%,70.19608%,48.627451%);fill-opacity:1;" d="M 21.84375 1.71875 C 22.609375 1.777344 23.207031 2.300781 23.710938 2.859375 C 24.265625 3.652344 24.453125 4.589844 24.320312 5.542969 C 24.105469 6.519531 23.570312 7.382812 23.09375 8.25 C 22.992188 8.4375 22.890625 8.625 22.789062 8.8125 C 22.636719 9.097656 22.480469 9.382812 22.324219 9.667969 C 21.996094 10.273438 21.675781 10.878906 21.359375 11.488281 C 21.28125 11.636719 21.199219 11.789062 21.121094 11.941406 C 20.976562 12.21875 20.832031 12.496094 20.6875 12.777344 C 20.621094 12.902344 20.558594 13.023438 20.488281 13.152344 C 20.40625 13.3125 20.40625 13.3125 20.320312 13.476562 C 19.910156 14.050781 19.242188 14.242188 18.601562 14.488281 C 18.46875 14.539062 18.46875 14.539062 18.332031 14.589844 C 18.046875 14.703125 17.757812 14.8125 17.46875 14.921875 C 17.0625 15.078125 16.65625 15.234375 16.253906 15.390625 C 16.097656 15.449219 16.097656 15.449219 15.941406 15.511719 C 15.222656 15.789062 14.507812 16.066406 13.792969 16.351562 C 13.699219 16.390625 13.601562 16.425781 13.503906 16.464844 C 13.136719 16.613281 12.769531 16.757812 12.398438 16.90625 C 12.148438 17.007812 11.894531 17.105469 11.644531 17.207031 C 11.5 17.261719 11.359375 17.320312 11.210938 17.378906 C 10.875 17.5 10.875 17.5 10.625 17.5 C 10.699219 16.671875 10.804688 15.855469 10.953125 15.039062 C 10.972656 14.921875 10.992188 14.808594 11.015625 14.691406 C 11.082031 14.320312 11.148438 13.949219 11.214844 13.574219 C 11.261719 13.316406 11.308594 13.054688 11.355469 12.792969 C 11.449219 12.25 11.546875 11.707031 11.648438 11.164062 C 11.773438 10.464844 11.894531 9.769531 12.019531 9.074219 C 12.113281 8.535156 12.210938 8 12.308594 7.460938 C 12.355469 7.203125 12.398438 6.949219 12.445312 6.691406 C 12.507812 6.332031 12.574219 5.972656 12.640625 5.617188 C 12.65625 5.507812 12.675781 5.402344 12.695312 5.292969 C 12.792969 4.773438 12.871094 4.394531 13.25 4 C 14.296875 4.125 15.15625 4.414062 15.835938 5.261719 C 16.832031 6.945312 16.121094 9.425781 15.875 11.25 C 15.945312 11.128906 15.945312 11.128906 16.015625 11.003906 C 17.164062 9.003906 18.328125 7.015625 19.507812 5.035156 C 19.75 4.625 19.992188 4.214844 20.234375 3.804688 C 20.308594 3.675781 20.382812 3.550781 20.460938 3.417969 C 20.605469 3.175781 20.746094 2.933594 20.886719 2.691406 C 20.949219 2.585938 21.011719 2.480469 21.078125 2.371094 C 21.132812 2.277344 21.1875 2.183594 21.242188 2.089844 C 21.449219 1.753906 21.449219 1.753906 21.84375 1.71875 Z M 21.84375 1.71875 "/>
<path style=" stroke:none;fill-rule:nonzero;fill:rgb(29.019609%,29.019609%,40.784314%);fill-opacity:1;" d="M 21.875 50.75 C 21.933594 50.859375 21.992188 50.972656 22.054688 51.085938 C 22.953125 52.734375 23.964844 54.328125 25.042969 55.863281 C 25.375 56.339844 25.375 56.339844 25.375 56.75 C 25.164062 56.929688 25.164062 56.929688 24.859375 57.125 C 24.738281 57.199219 24.621094 57.277344 24.5 57.355469 C 24.296875 57.480469 24.296875 57.480469 24.09375 57.609375 C 23.875 57.75 23.660156 57.886719 23.441406 58.027344 C 23.28125 58.132812 23.117188 58.234375 22.957031 58.339844 C 21.855469 59.046875 20.765625 59.765625 19.675781 60.488281 C 19.320312 60.722656 18.96875 60.953125 18.613281 61.1875 C 18.5 61.261719 18.386719 61.335938 18.273438 61.414062 C 18.046875 61.558594 17.824219 61.707031 17.601562 61.855469 C 17.054688 62.214844 16.511719 62.578125 15.96875 62.945312 C 15.867188 63.015625 15.761719 63.085938 15.65625 63.15625 C 15.460938 63.289062 15.265625 63.421875 15.070312 63.558594 C 14.941406 63.644531 14.941406 63.644531 14.808594 63.734375 C 14.734375 63.785156 14.660156 63.835938 14.582031 63.890625 C 14.375 64 14.375 64 14 64 C 13.816406 63.785156 13.816406 63.785156 13.617188 63.480469 C 13.546875 63.367188 13.472656 63.253906 13.394531 63.136719 C 13.316406 63.011719 13.238281 62.886719 13.15625 62.757812 C 13.074219 62.628906 12.992188 62.503906 12.910156 62.371094 C 12.285156 61.394531 11.679688 60.40625 11.078125 59.414062 C 10.996094 59.28125 10.917969 59.148438 10.832031 59.007812 C 10.757812 58.882812 10.683594 58.761719 10.605469 58.632812 C 10.539062 58.519531 10.472656 58.410156 10.40625 58.296875 C 10.265625 58.027344 10.183594 57.796875 10.125 57.5 C 10.207031 57.460938 10.292969 57.417969 10.378906 57.375 C 14.167969 55.519531 17.792969 53.429688 21.25 51 C 21.625 50.75 21.625 50.75 21.875 50.75 Z M 21.875 50.75 "/>
<path style=" stroke:none;fill-rule:nonzero;fill:rgb(90.980393%,61.56863%,36.862746%);fill-opacity:1;" d="M 28.851562 26.21875 C 29.652344 26.226562 30.53125 26.390625 31.25 26.75 C 30.953125 27.730469 30.535156 28.628906 30.085938 29.546875 C 30.046875 29.625 30.011719 29.703125 29.972656 29.78125 C 29.730469 30.273438 29.488281 30.765625 29.246094 31.253906 C 29.167969 31.417969 29.085938 31.578125 29.003906 31.742188 C 28.738281 32.285156 28.46875 32.820312 28.195312 33.359375 C 28.125 33.5 28.058594 33.636719 27.984375 33.78125 C 27.359375 34.996094 26.832031 35.667969 25.535156 36.121094 C 24.851562 36.335938 24.15625 36.515625 23.464844 36.6875 C 23.191406 36.757812 22.921875 36.824219 22.652344 36.894531 C 21.984375 37.0625 21.3125 37.234375 20.644531 37.402344 C 20.074219 37.546875 19.507812 37.691406 18.9375 37.835938 C 18.671875 37.902344 18.40625 37.96875 18.140625 38.035156 C 17.976562 38.078125 17.816406 38.117188 17.652344 38.160156 C 17.441406 38.214844 17.441406 38.214844 17.222656 38.269531 C 16.855469 38.363281 16.855469 38.363281 16.5 38.625 C 16.539062 38.960938 16.578125 39.296875 16.617188 39.632812 C 16.628906 39.726562 16.640625 39.820312 16.648438 39.917969 C 16.71875 40.488281 16.792969 41.058594 16.875 41.625 C 16.589844 41.808594 16.308594 41.996094 16.023438 42.179688 C 15.902344 42.257812 15.902344 42.257812 15.78125 42.339844 C 15.441406 42.558594 15.136719 42.746094 14.75 42.875 C 13.3125 38.179688 13.3125 38.179688 13.625 36.625 C 14.0625 36.332031 14.480469 36.246094 14.984375 36.140625 C 15.132812 36.105469 15.132812 36.105469 15.285156 36.074219 C 15.5 36.027344 15.714844 35.980469 15.929688 35.933594 C 16.496094 35.808594 17.0625 35.683594 17.628906 35.554688 C 17.746094 35.53125 17.859375 35.503906 17.976562 35.480469 C 19.003906 35.25 20.027344 35.015625 21.046875 34.773438 C 21.222656 34.730469 21.398438 34.691406 21.570312 34.652344 C 23.320312 34.273438 23.320312 34.273438 24.625 33.125 C 24.761719 32.902344 24.894531 32.675781 25.023438 32.445312 C 25.132812 32.246094 25.132812 32.246094 25.246094 32.039062 C 25.363281 31.828125 25.363281 31.828125 25.484375 31.609375 C 25.523438 31.535156 25.566406 31.464844 25.605469 31.386719 C 26.332031 30.078125 27.027344 28.75 27.710938 27.414062 C 27.78125 27.28125 27.851562 27.144531 27.921875 27.007812 C 27.980469 26.886719 28.042969 26.769531 28.105469 26.644531 C 28.316406 26.253906 28.316406 26.253906 28.851562 26.21875 Z M 28.851562 26.21875 "/>
<path style=" stroke:none;fill-rule:nonzero;fill:rgb(24.705882%,77.64706%,76.078433%);fill-opacity:1;" d="M 41.65625 0.09375 C 41.957031 0.25 42.222656 0.425781 42.5 0.625 C 42.574219 0.679688 42.652344 0.730469 42.730469 0.785156 C 44.332031 1.914062 44.332031 1.914062 44.5 2.25 C 44.542969 2.726562 44.566406 3.019531 44.3125 3.429688 C 43.875 3.703125 43.492188 3.71875 43 3.625 C 42.597656 3.417969 42.253906 3.152344 41.898438 2.875 C 41.714844 2.734375 41.527344 2.59375 41.339844 2.453125 C 41.261719 2.390625 41.179688 2.328125 41.097656 2.261719 C 40.867188 2.09375 40.867188 2.09375 40.5 2.125 C 40.5 2.222656 40.5 2.324219 40.496094 2.425781 C 40.492188 3.367188 40.480469 4.304688 40.46875 5.246094 C 40.464844 5.726562 40.460938 6.210938 40.457031 6.695312 C 40.453125 7.160156 40.449219 7.628906 40.441406 8.09375 C 40.441406 8.273438 40.4375 8.449219 40.4375 8.625 C 40.429688 10.1875 40.28125 11.203125 39.183594 12.351562 C 38.46875 12.980469 37.660156 13.207031 36.726562 13.28125 C 35.585938 13.207031 34.675781 12.828125 33.875 12 C 33.125 10.921875 33.03125 9.910156 33.125 8.625 C 33.347656 7.730469 33.894531 6.917969 34.683594 6.4375 C 35.332031 6.101562 35.910156 5.859375 36.648438 5.84375 C 36.777344 5.839844 36.777344 5.839844 36.910156 5.835938 C 37.421875 5.894531 37.890625 6.074219 38.375 6.25 C 38.371094 6.113281 38.371094 5.980469 38.367188 5.839844 C 38.359375 5.335938 38.351562 4.832031 38.347656 4.328125 C 38.34375 4.113281 38.339844 3.894531 38.335938 3.675781 C 38.332031 3.363281 38.328125 3.046875 38.328125 2.734375 C 38.324219 2.636719 38.320312 2.542969 38.316406 2.445312 C 38.316406 1.644531 38.542969 0.984375 39.089844 0.390625 C 39.882812 -0.113281 40.757812 -0.207031 41.65625 0.09375 Z M 41.65625 0.09375 "/>
<path style=" stroke:none;fill-rule:nonzero;fill:rgb(90.980393%,61.176473%,36.470589%);fill-opacity:1;" d="M 13.25 4 C 14.296875 4.125 15.15625 4.414062 15.835938 5.261719 C 16.378906 6.179688 16.339844 7.09375 16.25 8.125 C 16.238281 8.257812 16.230469 8.386719 16.21875 8.523438 C 16.050781 10.589844 15.699219 12.222656 14.558594 13.964844 C 14.371094 14.257812 14.195312 14.558594 14.019531 14.863281 C 12.972656 16.703125 12.972656 16.703125 11.804688 17.148438 C 11.71875 17.183594 11.632812 17.214844 11.546875 17.25 C 10.910156 17.5 10.910156 17.5 10.625 17.5 C 10.699219 16.671875 10.804688 15.855469 10.953125 15.039062 C 10.972656 14.921875 10.992188 14.808594 11.015625 14.691406 C 11.082031 14.320312 11.148438 13.949219 11.214844 13.574219 C 11.261719 13.316406 11.308594 13.054688 11.355469 12.792969 C 11.449219 12.25 11.546875 11.707031 11.648438 11.164062 C 11.773438 10.464844 11.894531 9.769531 12.019531 9.074219 C 12.113281 8.535156 12.210938 8 12.308594 7.460938 C 12.355469 7.203125 12.398438 6.949219 12.445312 6.691406 C 12.507812 6.332031 12.574219 5.972656 12.640625 5.617188 C 12.65625 5.507812 12.675781 5.402344 12.695312 5.292969 C 12.792969 4.773438 12.871094 4.394531 13.25 4 Z M 13.25 4 "/>
<path style=" stroke:none;fill-rule:nonzero;fill:rgb(78.823531%,78.823531%,78.823531%);fill-opacity:1;" d="M 19.125 40.75 C 19.261719 40.96875 19.261719 40.96875 19.375 41.25 C 19.417969 41.351562 19.460938 41.453125 19.503906 41.558594 C 19.542969 41.664062 19.582031 41.769531 19.625 41.875 C 19.679688 42.011719 19.679688 42.011719 19.734375 42.152344 C 19.804688 42.335938 19.878906 42.519531 19.949219 42.703125 C 20.757812 44.796875 21.695312 46.878906 22.875 48.792969 C 23.046875 49.25 23.003906 49.535156 22.875 50 C 22.636719 50.246094 22.636719 50.246094 22.328125 50.4375 C 22.214844 50.507812 22.105469 50.578125 21.992188 50.652344 C 21.871094 50.726562 21.75 50.800781 21.625 50.875 C 21.371094 51.039062 21.113281 51.203125 20.859375 51.367188 C 20.65625 51.496094 20.453125 51.621094 20.25 51.75 C 20.222656 51.59375 20.195312 51.4375 20.167969 51.277344 C 20 50.519531 19.667969 49.871094 19.304688 49.1875 C 19.242188 49.0625 19.183594 48.9375 19.121094 48.808594 C 18.796875 48.152344 18.796875 48.152344 18.210938 47.773438 C 17.910156 47.738281 17.910156 47.738281 17.625 47.75 C 17.375 47.75 17.375 47.75 17.054688 47.539062 C 16.8125 47.148438 16.792969 46.953125 16.875 46.5 C 17.066406 46.230469 17.28125 45.996094 17.5 45.75 C 17.4375 45.597656 17.4375 45.597656 17.375 45.445312 C 17.21875 45.074219 17.066406 44.703125 16.914062 44.328125 C 16.847656 44.167969 16.78125 44.007812 16.710938 43.84375 C 16.617188 43.613281 16.519531 43.382812 16.425781 43.148438 C 16.367188 43.011719 16.3125 42.871094 16.25 42.726562 C 16.125 42.375 16.125 42.375 16.125 42 C 16.292969 41.84375 16.292969 41.84375 16.527344 41.695312 C 16.652344 41.613281 16.652344 41.613281 16.78125 41.527344 C 16.867188 41.472656 16.957031 41.417969 17.046875 41.359375 C 17.132812 41.300781 17.222656 41.246094 17.3125 41.1875 C 18.355469 40.511719 18.355469 40.511719 19.125 40.75 Z M 19.125 40.75 "/>
<path style=" stroke:none;fill-rule:nonzero;fill:rgb(20%,20%,33.725491%);fill-opacity:1;" d="M 21.875 50.75 C 21.933594 50.859375 21.992188 50.972656 22.054688 51.085938 C 22.953125 52.734375 23.964844 54.328125 25.042969 55.863281 C 25.375 56.339844 25.375 56.339844 25.375 56.75 C 25.140625 56.957031 25.140625 56.957031 24.8125 57.171875 C 24.695312 57.253906 24.582031 57.332031 24.460938 57.410156 C 24.335938 57.492188 24.214844 57.574219 24.085938 57.65625 C 23.964844 57.738281 23.84375 57.820312 23.714844 57.90625 C 23.597656 57.984375 23.480469 58.0625 23.359375 58.140625 C 23.253906 58.214844 23.144531 58.285156 23.035156 58.359375 C 22.75 58.5 22.75 58.5 22.375 58.375 C 22.164062 58.085938 21.96875 57.800781 21.78125 57.5 C 21.722656 57.410156 21.664062 57.316406 21.605469 57.222656 C 21.054688 56.347656 20.519531 55.464844 19.984375 54.578125 C 19.902344 54.441406 19.820312 54.304688 19.734375 54.160156 C 19.65625 54.03125 19.578125 53.902344 19.5 53.769531 C 19.429688 53.65625 19.359375 53.539062 19.289062 53.421875 C 19.125 53.125 19.125 53.125 19 52.75 C 19.5 52.214844 20.042969 51.808594 20.648438 51.398438 C 20.738281 51.335938 20.828125 51.273438 20.921875 51.207031 C 21.59375 50.75 21.59375 50.75 21.875 50.75 Z M 21.875 50.75 "/>
<path style=" stroke:none;fill-rule:nonzero;fill:rgb(30.588236%,30.588236%,41.960785%);fill-opacity:1;" d="M 18.875 45.75 C 19.199219 46.03125 19.242188 46.199219 19.304688 46.625 C 19.238281 47.089844 19.117188 47.214844 18.75 47.5 C 18.308594 47.804688 17.902344 47.804688 17.375 47.75 C 17.070312 47.546875 17.070312 47.546875 16.875 47.25 C 16.804688 46.882812 16.804688 46.882812 16.875 46.5 C 17.484375 45.753906 17.921875 45.507812 18.875 45.75 Z M 18.875 45.75 "/>
</g>
</svg>
