<!DOCTYPE svg PUBLIC "-//W3C//DTD SVG 1.1//EN" "http://www.w3.org/Graphics/SVG/1.1/DTD/svg11.dtd">

<!-- Uploaded to: SVG Repo, www.svgrepo.com, Transformed by: SVG Repo Mixer Tools -->
<svg width="64px" height="64px" viewBox="0 0 24 24" fill="none" xmlns="http://www.w3.org/2000/svg">

<g id="SVGRepo_bgCarrier" stroke-width="0"/>

<g id="SVGRepo_tracerCarrier" stroke-linecap="round" stroke-linejoin="round"/>

<g id="SVGRepo_iconCarrier"> <path d="M19 16.5H5M19 16.5C19.5523 16.5 20 16.0523 20 15.5V6.5C20 5.94772 19.5523 5.5 19 5.5H5C4.44772 5.5 4 5.94771 4 6.5V15.5C4 16.0523 4.44772 16.5 5 16.5M19 16.5H20.25C20.9404 16.5 21.5 17.0596 21.5 17.75C21.5 18.4404 20.9404 19 20.25 19H3.75C3.05964 19 2.5 18.4404 2.5 17.75C2.5 17.0596 3.05964 16.5 3.75 16.5H5" stroke="current" stroke-width="1.5" stroke-linecap="round" stroke-linejoin="round"/> </g>

</svg>