<?xml version="1.0" encoding="utf-8"?>
<!-- Generator: Adobe Illustrator 27.5.0, SVG Export Plug-In . SVG Version: 6.00 Build 0)  -->
<svg version="1.1" id="Layer_1" xmlns="http://www.w3.org/2000/svg" xmlns:xlink="http://www.w3.org/1999/xlink" x="0px" y="0px"
	 viewBox="0 0 500 500" style="enable-background:new 0 0 500 500;" xml:space="preserve">
<style type="text/css">
	<!-- .st0{display:none;} -->
	<!-- .st1{fill:#2B39EC;}
	.st2{fill:#E6E8FD;}
	.st3{fill:#CCCFFB;} -->
	.st1{fill:#8c8c8c;}
	.st2{fill:#8c8c8c;}
	.st3{fill:#8c8c8c;}
</style>
<g>
	<g id="HQ">
		<!-- <rect x="0" y="0" class="st0" width="64px" height="64px"/> -->
		
			<!-- <image style="overflow:visible;enable-background:new    ;" width="64px" height="64px" xlink:href="71F55875BD399BC4.png"  transform="matrix(0.2399 0 0 0.2399 -13.55 -66.0554)">
		</image> -->
		<g>
			<path class="st1" d="M165.4,234.4c0.1,0.1,0.3,0.1,0.4,0.1c0.2,0,0.3,0,0.5-0.1c7.9-5.1,17.1-7.8,26.4-7.8c0.5,0,0.8-0.4,0.8-0.9
				v-5.6c8.8-3,17.8-5.3,26.9-6.9c0.4-0.1,0.7-0.4,0.7-0.8v-3.1c8.7-1.7,17.5-2.7,26.4-2.7c9.1,0,18.2,0.8,27.1,2.4l0,0
				c15.3,2.9,24.8,7.4,26.9,8.4v6.8c0,0.5,0.4,0.8,0.8,0.9c9.6,0.1,18.8,3.4,26.4,9.2c0.2,0.1,0.3,0.2,0.5,0.2c0.1,0,0.3,0,0.4-0.1
				c0.3-0.1,0.5-0.4,0.5-0.8V95.2c0-0.5-0.4-0.9-0.9-0.9h-54.5c-0.5,0-0.9,0.4-0.9,0.9v35.7h-53.6c-0.5,0-0.9,0.4-0.9,0.8v0v49.4
				h-53.6c-0.5,0-0.9,0.4-0.9,0.9v51.6C165,234,165.1,234.3,165.4,234.4z M219.5,208.7v3.1c-9.2,1.5-18.3,3.9-27.1,7
				c-0.3,0.1-0.5,0.4-0.5,0.8v5.3c-8.9,0.2-17.6,2.7-25.2,7.2v-49.2h52.8L219.5,208.7z M273.9,207.3c-8.7-1.5-17.5-2.3-26.4-2.3
				c-8.9,0-17.7,0.9-26.4,2.7v-75h52.8V207.3z M302.8,216.3c-0.1-0.1-9.9-5.4-27.1-8.7V96.1h52.8V232c-7.4-5.3-16.1-8.2-25.2-8.5
				V217C303.2,216.7,303.1,216.5,302.8,216.3L302.8,216.3z"/>
			<path class="st1" d="M329.3,234.8c-0.2,0-0.5-0.1-0.7-0.2c-7.5-5.8-16.7-9-26.2-9.1c-0.6,0-1.1-0.5-1.1-1.1v-6.6
				c-2.1-1.1-11.6-5.6-26.7-8.4c-8.9-1.6-17.9-2.5-27-2.4c-8.8,0-17.5,0.9-26.1,2.7v2.9c0,0.5-0.4,1-0.9,1.1
				c-9.1,1.5-18,3.8-26.7,6.8v5.4c0,0.6-0.5,1.1-1.1,1.1c-9.3,0.1-18.5,2.8-26.3,7.8c-0.4,0.2-0.8,0.2-1.1,0l0,0
				c-0.4-0.2-0.6-0.6-0.6-1V182c0-0.6,0.5-1.1,1.1-1.1h53.4v-49.1c0-0.6,0.5-1.1,1.1-1.1h0h53.4V95.2c0-0.6,0.5-1.1,1.1-1.1h54.5
				c0.6,0,1.1,0.5,1.1,1.1v138.4c0,0.4-0.2,0.8-0.6,1C329.6,234.8,329.5,234.8,329.3,234.8z M247.5,206.4c9.1,0,18.2,0.8,27.1,2.4
				c15.5,2.9,25.2,7.6,27,8.5l0.1,0.1v6.9c0,0.3,0.3,0.6,0.6,0.6c9.6,0.1,18.9,3.4,26.5,9.2c0.2,0.1,0.4,0.2,0.6,0.1
				c0.2-0.1,0.3-0.3,0.3-0.5V95.2c0-0.3-0.3-0.6-0.6-0.6c0,0,0,0,0,0h-54.5c-0.3,0-0.6,0.3-0.6,0.6v35.9h-53.9
				c-0.3,0-0.6,0.3-0.6,0.6v0v49.6h-53.9c-0.3,0-0.6,0.3-0.6,0.6c0,0,0,0,0,0v51.6c0,0.2,0.1,0.4,0.3,0.5l0,0c0.2,0.1,0.4,0.1,0.6,0
				c7.9-5.1,17.2-7.8,26.6-7.9c0.3,0,0.6-0.3,0.6-0.6V220l0.2-0.1c8.8-3,17.8-5.4,26.9-6.9c0.3,0,0.5-0.3,0.5-0.6v-3.3h0.2
				C229.8,207.4,238.7,206.5,247.5,206.4L247.5,206.4z M166.4,232.6v-50h53.3v29.3h-0.2c-9.2,1.5-18.2,3.9-27,7
				c-0.2,0.1-0.4,0.3-0.4,0.6v5.6h-0.2c-8.8,0.2-17.5,2.7-25.1,7.2L166.4,232.6z M166.9,183.1v48.6c7.5-4.4,16-6.8,24.7-7.1v-5.1
				c0-0.4,0.3-0.8,0.7-1c8.7-3.1,17.7-5.5,26.9-7v-28.4L166.9,183.1z M328.7,232.5l-0.4-0.3c-7.3-5.2-16.1-8.2-25.1-8.5H303v-6.7
				c0-0.2-0.1-0.4-0.3-0.5l0,0c-0.1-0.1-9.9-5.4-27.1-8.7h-0.2v-112h53.3L328.7,232.5z M303.5,223.3c8.9,0.3,17.4,3.2,24.7,8.3V96.3
				h-52.3v111c17.1,3.3,26.9,8.7,27,8.7l0,0c0.4,0.2,0.6,0.6,0.6,1L303.5,223.3z M220.9,207.9v-75.6h53.3v75.2l-0.3-0.1
				c-8.7-1.5-17.5-2.3-26.4-2.3c-8.8,0-17.7,0.9-26.3,2.6L220.9,207.9z M221.4,132.9v74.4c8.6-1.7,17.4-2.6,26.1-2.6
				c8.8,0,17.5,0.7,26.1,2.3v-74.1L221.4,132.9z"/>
			<path class="st1" d="M302,239.4c-25.4,0-46.1,20.3-46.5,45.7H240c-0.4-25.7-21.7-46.2-47.4-45.8s-46.2,21.7-45.8,47.4
				c0.4,25.7,21.7,46.2,47.4,45.8c14.9-0.3,28.8-7.6,37.3-19.8v40.7c0,0.4,0.3,0.7,0.8,0.8h24c0.4,0,0.7-0.3,0.8-0.8v-7
				c0.3-0.4,0.2-0.9-0.2-1.2c-0.1-0.1-0.3-0.1-0.5-0.1H240v-58.3h15.5c0.5,25.7,21.7,46.2,47.4,45.7s46.2-21.7,45.7-47.4
				C348.1,259.7,327.4,239.4,302,239.4z M346.9,285.9c0,24.8-20.1,44.9-44.9,44.9c-24.8,0-44.9-20.1-44.9-44.9s20.1-44.9,44.9-44.9
				c0,0,0,0,0,0C326.8,241.1,346.9,261.2,346.9,285.9L346.9,285.9z M233,310.4c2.3-3.7,4.1-7.8,5.3-12v47.5c0,0.5,0.4,0.9,0.8,0.9h0
				h16.4v5.9H233V310.4z M193.5,330.8c-24.8,0-44.9-20.1-44.9-44.9c0-24.8,20.1-44.9,44.9-44.9s44.9,20.1,44.9,44.9c0,0,0,0,0,0
				C238.3,310.7,218.2,330.8,193.5,330.8z"/>
			<path class="st1" d="M256.3,354.4h-24c-0.6,0-1-0.4-1-1v-39.9c-15.2,20.8-44.5,25.4-65.3,10.1c-20.8-15.2-25.4-44.5-10.1-65.3
				s44.5-25.4,65.3-10.1c11.7,8.6,18.8,22.1,19.1,36.7h15c0.6-25.8,22-46.2,47.8-45.6c25.8,0.6,46.2,22,45.6,47.8
				s-22,46.2-47.8,45.6c-25-0.6-45-20.7-45.6-45.6h-15v57.8h16.1c0.6,0,1.1,0.4,1.1,1c0,0.2,0,0.4-0.1,0.6v7
				C257.4,353.9,256.9,354.4,256.3,354.4C256.3,354.4,256.3,354.4,256.3,354.4z M231.8,311.9v41.5c0,0.3,0.2,0.5,0.5,0.5h24
				c0.3,0,0.5-0.2,0.5-0.5v-7.1v-0.1c0.1-0.1,0.1-0.2,0.1-0.3c0-0.3-0.3-0.6-0.6-0.6l0,0h-16.5v-58.8h16v0.2
				c0.5,25.5,21.6,45.9,47.1,45.4c25.5-0.5,45.9-21.6,45.4-47.1c-0.5-25.5-21.6-45.9-47.1-45.4c-24.9,0.5-45,20.5-45.4,45.4v0.2h-16
				v-0.2c-0.5-25.6-21.6-46-47.2-45.5s-46,21.6-45.5,47.2s21.6,46,47.2,45.5c14.8-0.3,28.6-7.6,37.1-19.7L231.8,311.9z M255.8,352.9
				h-23v-42.5v-0.1c2.3-3.7,4.1-7.8,5.2-12l0.5-1.8v49.4c0,0.3,0.3,0.6,0.6,0.6h0h16.6L255.8,352.9z M233.3,352.4h22V347h-16.1
				c-0.6,0-1.1-0.5-1.1-1.1l0,0v-45.8c-1.2,3.6-2.8,7.1-4.8,10.4L233.3,352.4z M302,331c-24.9,0-45.1-20.2-45.1-45.1
				s20.2-45.1,45.1-45.1s45.1,20.2,45.1,45.1v0C347.1,310.8,326.9,331,302,331z M302,241.3c-24.6,0-44.6,20-44.6,44.6
				s20,44.6,44.6,44.6s44.6-20,44.6-44.6C346.6,261.3,326.6,241.4,302,241.3L302,241.3z M193.5,331c-24.9,0-45.1-20.2-45.1-45.1
				c0-24.9,20.2-45.1,45.1-45.1s45.1,20.2,45.1,45.1l0,0C238.5,310.8,218.4,331,193.5,331z M193.5,241.3c-24.6,0-44.6,20-44.6,44.6
				c0,24.6,20,44.6,44.6,44.6s44.6-20,44.6-44.6C238,261.3,218.1,241.4,193.5,241.3L193.5,241.3z"/>
			<path class="st1" d="M274.9,358.8c-0.2,0-0.4,0-0.6,0.2l-31.1,22.5l-14.9-11.5c-0.2-0.1-0.4-0.2-0.6-0.2c-0.2,0-0.4,0.2-0.6,0.3
				c-0.3,0.4-0.2,0.9,0.2,1.2l0.4,0.3c0,0,0,0.1,0,0.1l16,31c0.1,0.2,0.4,0.4,0.6,0.4h0.1c0.2,0,0.5-0.1,0.6-0.3l30-42
				c0.1-0.1,0.1-0.2,0.1-0.3l0.2-0.2c0.4-0.3,0.5-0.8,0.2-1.2C275.3,358.9,275.1,358.8,274.9,358.8z M242.6,383.1
				c0.1,0.1,0.3,0.2,0.5,0.2c0.2,0,0.4-0.1,0.5-0.2l27.8-20.2l-27.1,37.9l-14-27.2L242.6,383.1z"/>
			<path class="st1" d="M244.3,403.4L244.3,403.4c-0.4,0-0.7-0.2-0.9-0.5l-16-31c0,0,0-0.1,0-0.1l-0.3-0.2c-0.5-0.4-0.6-1-0.2-1.5
				c0,0,0,0,0,0c0.2-0.2,0.4-0.4,0.7-0.4c0.3,0,0.6,0,0.8,0.2l14.8,11.3l30.9-22.4c0.2-0.2,0.5-0.2,0.8-0.2c0.3,0,0.6,0.2,0.7,0.4
				c0.4,0.5,0.3,1.2-0.2,1.5c0,0,0,0,0,0l-0.1,0.1c0,0.1-0.1,0.2-0.1,0.4l-30,42C244.9,403.2,244.6,403.4,244.3,403.4z M227.7,370
				L227.7,370c-0.2,0-0.4,0.1-0.5,0.2c-0.2,0.3-0.2,0.6,0.1,0.9l0.4,0.3v0.1l16,31c0.1,0.2,0.2,0.2,0.4,0.3l0,0
				c0.2,0,0.3-0.1,0.4-0.2l30-42c0-0.1,0.1-0.1,0.1-0.2v-0.1l0.3-0.2c0.1-0.1,0.2-0.2,0.2-0.4c0-0.2,0-0.3-0.1-0.5
				c-0.1-0.1-0.2-0.2-0.4-0.2l0,0c-0.2,0-0.3,0-0.5,0.1l-31.2,22.6l-15-11.5C228,370.1,227.9,370,227.7,370z M244.4,401.4l-0.2-0.4
				l-14.6-28.2l13.2,10.1c0.2,0.2,0.5,0.2,0.7,0l29.1-21L244.4,401.4z M231.1,374.6l13.4,25.9l25.9-36.3l-26.6,19.2
				c-0.4,0.3-0.9,0.3-1.3,0L231.1,374.6z"/>
			<path class="st1" d="M190.9,224.6h0.7v-5.9l1.1-0.4c8.4-2.9,17.1-5.2,25.8-6.8l0.6-0.1v-28.3H167v48.4l1.1-0.6
				C175.1,227.2,182.9,225,190.9,224.6z M217.7,184.6v25.5c-8.6,1.6-17.2,3.8-25.4,6.7l-2.1,0.8v5.5c-7.5,0.4-14.9,2.4-21.6,5.9
				v-44.4L217.7,184.6z"/>
			<path class="st1" d="M166.7,232v-49.1h52.7v28.8l-0.8,0.1c-8.8,1.6-17.4,3.8-25.8,6.7l-1,0.4v5.9h-0.9
				c-7.9,0.3-15.7,2.5-22.7,6.3L166.7,232z M167.2,183.4v47.8l0.8-0.4c7-3.9,14.9-6,22.9-6.4h0.5v-5.8l1.3-0.5
				c8.4-2.9,17.1-5.2,25.9-6.8l0.4-0.1v-27.8L167.2,183.4z M168.2,229.5v-45h49.7v26h-0.2c-8.6,1.6-17.1,3.8-25.4,6.7l-2,0.7v5.5
				h-0.2c-7.5,0.4-14.8,2.4-21.5,5.9L168.2,229.5z M168.7,184.9v43.7c6.6-3.3,13.8-5.3,21.1-5.7v-5.4l2.3-0.8
				c8.2-2.9,16.7-5.1,25.3-6.7v-25.1L168.7,184.9z"/>
			<path class="st1" d="M223.8,206c0.1,0,0.2,0,0.2,0c7.7-1.6,15.6-2.4,23.5-2.4c7.9,0,15.7,0.7,23.5,2.1c0.4,0.1,0.8,0,1-0.3
				c0.3-0.2,0.5-0.6,0.5-1v-69.6c0-0.7-0.6-1.3-1.3-1.3h-47.4c-0.7,0-1.3,0.6-1.3,1.3c0,0,0,0,0,0v69.9c0,0.4,0.2,0.8,0.5,1
				C223.3,205.9,223.5,206,223.8,206z M224.1,204.4V135h47v69.1c-7.8-1.4-15.6-2.1-23.5-2.1C239.7,202,231.8,202.8,224.1,204.4
				L224.1,204.4z"/>
			<path class="st1" d="M223.8,206.2c-0.4,0-0.7-0.1-1-0.4c-0.3-0.3-0.6-0.7-0.6-1.2v-69.9c0-0.8,0.7-1.5,1.5-1.5c0,0,0,0,0,0h47.4
				c0.8,0,1.5,0.7,1.5,1.5v69.6c0,0.8-0.7,1.5-1.5,1.5c-0.1,0-0.2,0-0.3,0c-7.7-1.4-15.6-2.1-23.4-2.1c-7.9,0-15.7,0.9-23.4,2.4
				C224,206.2,223.9,206.2,223.8,206.2z M223.8,133.8c-0.6,0-1,0.4-1,1v69.9c0,0.3,0.1,0.6,0.4,0.8c0.2,0.2,0.5,0.3,0.9,0.2
				c7.7-1.6,15.6-2.4,23.5-2.5c7.9,0,15.8,0.7,23.5,2.1c0.5,0.1,1.1-0.2,1.2-0.8c0-0.1,0-0.2,0-0.2v-69.6c0-0.6-0.4-1-1-1
				L223.8,133.8z M223.8,204.8v-70h47.5v69.6H271c-7.7-1.4-15.6-2.1-23.4-2.1c-7.9,0-15.7,0.9-23.4,2.4L223.8,204.8z M224.4,135.3
				v68.9c7.6-1.5,15.4-2.3,23.2-2.4c7.8,0,15.5,0.6,23.2,2v-68.5L224.4,135.3z"/>
			<path class="st1" d="M304,222.7l0.7,0.1c7.7,0.5,15.2,2.9,21.8,7l1.1,0.7V96.9h-51.2v110l0.6,0.1c14.9,3,24.1,7.5,25.8,8.4
				l1.2,0.6L304,222.7z M277.9,98.4h48.2v129.4c-6.3-3.7-13.3-5.9-20.6-6.5v-6.2l-2-1c-1.7-0.9-10.8-5.3-25.6-8.4L277.9,98.4z"/>
			<path class="st1" d="M327.9,230.9l-1.5-0.9c-6.5-4.1-14-6.5-21.6-7l-0.9-0.1v-6.7l-1.1-0.6c-1.7-0.9-10.8-5.4-25.7-8.4l-0.8-0.2
				V96.6h51.7V230.9z M304.3,222.5h0.5c7.8,0.5,15.3,2.9,21.9,7l0.8,0.5V97.1h-50.7v109.6l0.4,0.1c14.9,3,24.1,7.5,25.8,8.4l1.4,0.7
				V222.5z M326.4,228.2L326,228c-6.3-3.6-13.3-5.8-20.5-6.4h-0.2v-6.3l-1.9-1c-1.7-0.9-10.8-5.3-25.5-8.4h-0.2V98.1h48.7
				L326.4,228.2z M305.8,221.1c7.1,0.6,13.9,2.7,20.1,6.3V98.6h-47.7v106.9c14.7,3,23.8,7.5,25.4,8.4l2.2,1.1L305.8,221.1z"/>
			<path class="st1" d="M302,241.9c-24.3,0-44,19.7-44,44s19.7,44,44,44s44-19.7,44-44C346,261.7,326.3,242,302,241.9z M302,328.4
				c-23.5,0-42.5-19-42.5-42.5s19-42.5,42.5-42.5s42.5,19,42.5,42.5C344.5,309.4,325.5,328.4,302,328.4z"/>
			<path class="st1" d="M302,330.2c-24.4,0-44.2-19.8-44.2-44.2s19.8-44.2,44.2-44.2s44.2,19.8,44.2,44.2
				C346.2,310.4,326.4,330.2,302,330.2z M302,242.2c-24.2,0-43.8,19.6-43.8,43.8s19.6,43.8,43.8,43.8s43.8-19.6,43.8-43.8l0,0
				C345.7,261.8,326.2,242.2,302,242.2z M302,328.7c-23.6,0-42.8-19.1-42.8-42.8s19.1-42.8,42.8-42.8s42.8,19.1,42.8,42.8
				C344.7,309.5,325.6,328.7,302,328.7z M302,243.7c-23.3,0-42.2,18.9-42.2,42.2s18.9,42.2,42.2,42.2s42.2-18.9,42.2-42.2
				C344.2,262.6,325.3,243.7,302,243.7z"/>
			<path class="st1" d="M193,241.9c-24.3,0-44,19.7-44,44s19.7,44,44,44s44-19.7,44-44C237,261.7,217.3,242,193,241.9z M193,328.4
				c-23.5,0-42.5-19-42.5-42.5s19-42.5,42.5-42.5s42.5,19,42.5,42.5C235.5,309.4,216.5,328.4,193,328.4z"/>
			<path class="st1" d="M193,330.2c-24.4,0-44.2-19.8-44.2-44.2s19.8-44.2,44.2-44.2s44.2,19.8,44.2,44.2
				C237.2,310.4,217.4,330.2,193,330.2z M193,242.2c-24.2,0-43.8,19.6-43.8,43.8s19.6,43.8,43.8,43.8s43.8-19.6,43.8-43.8l0,0
				C236.7,261.8,217.2,242.2,193,242.2z M193,328.7c-23.6,0-42.8-19.1-42.8-42.8s19.1-42.8,42.8-42.8s42.8,19.1,42.8,42.8
				C235.7,309.5,216.6,328.7,193,328.7z M193,243.7c-23.3,0-42.2,18.9-42.2,42.2s18.9,42.2,42.2,42.2s42.2-18.9,42.2-42.2
				C235.2,262.6,216.3,243.7,193,243.7z"/>
		</g>
		
			<image style="overflow:visible;enable-background:new    ;" width="2177" height="2622" xlink:href="71F55875BD399BC5.png"  transform="matrix(0.2399 0 0 0.2399 -7.31 -61.7354)">
		</image>
		
			<image style="overflow:visible;enable-background:new    ;" width="2189" height="2635" xlink:href="71F55875BD399BC3.png"  transform="matrix(0.2399 0 0 0.2399 -14.75 -67.2556)">
		</image>
		<path class="st2" d="M165.8,234.3c-0.3,0-0.6-0.3-0.6-0.6V182c0-0.3,0.3-0.6,0.6-0.6c0,0,0,0,0,0h54.5c0.3,0,0.6,0.3,0.6,0.6
			c0,0,0,0,0,0v30.4c0,0.3-0.2,0.5-0.5,0.6c-9.2,1.6-18.3,3.9-27.1,7v5.8c0,0.3-0.3,0.6-0.6,0.6c-9.4,0.1-18.6,2.8-26.6,7.9
			C166,234.3,165.9,234.3,165.8,234.3z M166.4,182.6v50c7.8-4.7,16.6-7.3,25.7-7.5v-5.6c0-0.2,0.1-0.5,0.4-0.6
			c8.9-3.1,18-5.5,27.2-7.1v-29.3H166.4z"/>
		<path class="st2" d="M220.3,209.3c-0.3,0-0.6-0.3-0.6-0.6v-76.9c0-0.3,0.3-0.6,0.6-0.6h0h54.5c0.3,0,0.6,0.3,0.6,0.6v0v76.5
			c0,0.2-0.1,0.3-0.2,0.5c-0.1,0.1-0.3,0.2-0.5,0.1c-9-1.6-18-2.5-27.1-2.4c-9.1,0-18.2,1-27.1,2.8L220.3,209.3z M220.9,132.4v75.6
			c8.8-1.8,17.7-2.7,26.6-2.7c8.9,0,17.8,0.8,26.6,2.3v-75.2H220.9z"/>
		<path class="st2" d="M329.3,234.3c-0.1,0-0.3,0-0.4-0.1c-7.6-5.9-16.9-9.1-26.5-9.2c-0.3,0-0.6-0.3-0.6-0.6v-6.9
			c-1.8-0.9-11.4-5.6-27.1-8.5c-0.3,0-0.5-0.3-0.5-0.6v-113c0-0.3,0.3-0.6,0.6-0.6h54.5c0.3,0,0.6,0.3,0.6,0.6c0,0,0,0,0,0v138.4
			c0,0.2-0.1,0.4-0.3,0.5C329.5,234.3,329.4,234.3,329.3,234.3z M303,223.7c9.3,0.2,18.2,3.3,25.7,8.8V95.8h-53.3v111.9
			c17.3,3.3,27.2,8.7,27.3,8.7c0.2,0.1,0.3,0.3,0.3,0.5L303,223.7z"/>
		<path class="st2" d="M193.5,332.2c-25.6,0-46.3-20.7-46.3-46.3c0-25.6,20.7-46.3,46.3-46.3c25.6,0,46.3,20.7,46.3,46.3l0,0
			C239.7,311.5,219,332.2,193.5,332.2z M193.5,240.8c-24.9,0-45.1,20.2-45.1,45.1s20.2,45.1,45.1,45.1s45.1-20.2,45.1-45.1
			C238.5,261,218.4,240.9,193.5,240.8z"/>
		<path class="st2" d="M302,332.2c-25.6,0-46.3-20.7-46.3-46.3c0-25.6,20.7-46.3,46.3-46.3c25.6,0,46.3,20.7,46.3,46.3l0,0
			C348.3,311.5,327.6,332.2,302,332.2z M302,240.8c-24.9,0-45.1,20.2-45.1,45.1c0,24.9,20.2,45.1,45.1,45.1
			c24.9,0,45.1-20.2,45.1-45.1l0,0C347.1,261,326.9,240.9,302,240.8z"/>
		<path class="st2" d="M256.3,346.5h-17.2c-0.3,0-0.6-0.3-0.6-0.6l0,0v-60c0-0.3,0.3-0.6,0.6-0.6h0h17.2c0.3,0,0.6,0.3,0.6,0.6
			s-0.3,0.6-0.6,0.6h-16.6v58.8h16.6c0.3,0,0.6,0.3,0.6,0.6S256.7,346.5,256.3,346.5L256.3,346.5z"/>
		<path class="st2" d="M243.1,383.1c-0.1,0-0.3,0-0.4-0.1l-15.4-11.8c-0.3-0.2-0.3-0.6-0.1-0.9c0.2-0.3,0.6-0.3,0.8-0.1l15.1,11.6
			l31.2-22.6c0.3-0.2,0.7-0.1,0.9,0.1c0.2,0.3,0.1,0.7-0.1,0.9l0,0L243.5,383C243.4,383.1,243.3,383.1,243.1,383.1z"/>
		<path class="st2" d="M167.2,231.2v-47.8h51.7v27.8l-0.4,0.1c-8.8,1.6-17.4,3.8-25.9,6.8l-1.3,0.5v5.8h-0.5
			c-8,0.4-15.8,2.5-22.8,6.4L167.2,231.2z M168.2,184.4v45.1c6.8-3.6,14.4-5.7,22.1-6.1v-5.5l2-0.7c8.3-2.9,16.9-5.2,25.6-6.7v-26
			H168.2z"/>
		<path class="st2" d="M223.8,205.7c-0.2,0-0.5-0.1-0.6-0.2c-0.2-0.2-0.4-0.5-0.4-0.8v-69.9c0-0.6,0.4-1,1-1h47.4c0.6,0,1,0.4,1,1
			v69.6c0,0.6-0.4,1-1,1c-0.1,0-0.2,0-0.2,0c-7.8-1.4-15.6-2.1-23.5-2.1c-7.9,0-15.8,0.9-23.5,2.5L223.8,205.7z M223.8,134.7v69.9
			v0.5v-0.5c7.8-1.6,15.7-2.4,23.7-2.5c8,0,15.9,0.7,23.7,2.1v-69.6L223.8,134.7z"/>
		<path class="st2" d="M327.4,230l-0.8-0.5c-6.6-4.1-14.1-6.5-21.9-7h-0.5v-6.6l-1.4-0.7c-1.7-0.9-10.9-5.4-25.8-8.4l-0.4-0.1V97.1
			h50.7V230z M305.3,221.5c7.5,0.6,14.7,2.9,21.1,6.7V98.1h-48.7v107.8c14.8,3,24,7.5,25.7,8.4l1.9,1V221.5z"/>
		<path class="st2" d="M302,329.7c-24.2,0-43.8-19.6-43.8-43.8s19.6-43.8,43.8-43.8s43.8,19.6,43.8,43.8l0,0
			C345.7,310.1,326.2,329.7,302,329.7z M302,243.2c-23.6,0-42.8,19.1-42.8,42.8s19.1,42.8,42.8,42.8s42.8-19.1,42.8-42.8
			C344.7,262.3,325.6,243.2,302,243.2z"/>
		<path class="st2" d="M193,329.7c-24.2,0-43.8-19.6-43.8-43.8s19.6-43.8,43.8-43.8s43.8,19.6,43.8,43.8l0,0
			C236.7,310.1,217.2,329.7,193,329.7z M193,243.2c-23.6,0-42.8,19.1-42.8,42.8s19.1,42.8,42.8,42.8s42.8-19.1,42.8-42.8
			C235.7,262.3,216.6,243.2,193,243.2z"/>
		<path class="st2" d="M256.3,353.9h-24c-0.3,0-0.5-0.2-0.5-0.5v-43.5c0-0.3,0.2-0.5,0.5-0.5s0.5,0.2,0.5,0.5v43h23v-6.5
			c0-0.3,0.2-0.5,0.5-0.5s0.5,0.2,0.5,0.5v7C256.8,353.6,256.6,353.9,256.3,353.9z"/>
		<path class="st2" d="M244.3,402.9L244.3,402.9c-0.2,0-0.3-0.1-0.4-0.3l-16-31c-0.1-0.2,0-0.5,0.2-0.7c0.2-0.1,0.5,0,0.7,0.2
			l15.6,30.3l29.5-41.3c0.2-0.2,0.5-0.3,0.7-0.1c0.2,0.2,0.3,0.5,0.1,0.7c0,0,0,0,0,0l-30,42C244.6,402.8,244.5,402.9,244.3,402.9z"
			/>
		<path class="st3" d="M165.4,234.4c0.1,0.1,0.3,0.1,0.4,0.1c0.2,0,0.3,0,0.5-0.1c7.9-5.1,17.1-7.8,26.4-7.8c0.5,0,0.8-0.4,0.8-0.9
			v-5.6c8.8-3,17.8-5.3,26.9-6.9c0.4-0.1,0.7-0.4,0.7-0.8v-3.1c8.7-1.7,17.5-2.7,26.4-2.7c9.1,0,18.2,0.8,27.1,2.4l0,0
			c15.3,2.9,24.8,7.4,26.9,8.4v6.8c0,0.5,0.4,0.8,0.8,0.9c9.6,0.1,18.8,3.4,26.4,9.2c0.2,0.1,0.3,0.2,0.5,0.2c0.1,0,0.3,0,0.4-0.1
			c0.3-0.1,0.5-0.4,0.5-0.8V95.2c0-0.5-0.4-0.9-0.9-0.9h-54.5c-0.5,0-0.9,0.4-0.9,0.9v35.7h-53.6c-0.5,0-0.9,0.4-0.9,0.8v0v49.4
			h-53.6c-0.5,0-0.9,0.4-0.9,0.9v51.6C165,234,165.1,234.3,165.4,234.4z M219.5,208.7v3.1c-9.2,1.5-18.3,3.9-27.1,7
			c-0.3,0.1-0.5,0.4-0.5,0.8v5.3c-8.9,0.2-17.6,2.7-25.2,7.2v-49.2h52.8L219.5,208.7z M273.9,207.3c-8.7-1.5-17.5-2.3-26.4-2.3
			c-8.9,0-17.7,0.9-26.4,2.7v-75h52.8V207.3z M302.8,216.3c-0.1-0.1-9.9-5.4-27.1-8.7V96.1h52.8V232c-7.4-5.3-16.1-8.2-25.2-8.5V217
			C303.2,216.7,303.1,216.5,302.8,216.3L302.8,216.3z"/>
		<path class="st3" d="M302,239.4c-25.4,0-46.1,20.3-46.5,45.7H240c-0.4-25.7-21.7-46.2-47.4-45.8s-46.2,21.7-45.8,47.4
			c0.4,25.7,21.7,46.2,47.4,45.8c14.9-0.3,28.8-7.6,37.3-19.8v40.7c0,0.4,0.3,0.7,0.8,0.8h24c0.4,0,0.7-0.3,0.8-0.8v-7
			c0.3-0.4,0.2-0.9-0.2-1.2c-0.1-0.1-0.3-0.1-0.5-0.1H240v-58.3h15.5c0.5,25.7,21.7,46.2,47.4,45.7s46.2-21.7,45.7-47.4
			C348.1,259.7,327.4,239.4,302,239.4z M346.9,285.9c0,24.8-20.1,44.9-44.9,44.9c-24.8,0-44.9-20.1-44.9-44.9s20.1-44.9,44.9-44.9
			c0,0,0,0,0,0C326.8,241.1,346.9,261.2,346.9,285.9L346.9,285.9z M233,310.4c2.3-3.7,4.1-7.8,5.3-12v47.5c0,0.5,0.4,0.9,0.8,0.9h0
			h16.4v5.9H233V310.4z M193.5,330.8c-24.8,0-44.9-20.1-44.9-44.9c0-24.8,20.1-44.9,44.9-44.9s44.9,20.1,44.9,44.9c0,0,0,0,0,0
			C238.3,310.7,218.2,330.8,193.5,330.8z"/>
		<path class="st3" d="M274.9,358.8c-0.2,0-0.4,0-0.6,0.2l-31.1,22.5l-14.9-11.5c-0.2-0.1-0.4-0.2-0.6-0.2c-0.2,0-0.4,0.2-0.6,0.3
			c-0.3,0.4-0.2,0.9,0.2,1.2l0.4,0.3c0,0,0,0.1,0,0.1l16,31c0.1,0.2,0.4,0.4,0.6,0.4h0.1c0.2,0,0.5-0.1,0.6-0.3l30-42
			c0.1-0.1,0.1-0.2,0.1-0.3l0.2-0.2c0.4-0.3,0.5-0.8,0.2-1.2C275.3,358.9,275.1,358.8,274.9,358.8z M242.6,383.1
			c0.1,0.1,0.3,0.2,0.5,0.2c0.2,0,0.4-0.1,0.5-0.2l27.8-20.2l-27.1,37.9l-14-27.2L242.6,383.1z"/>
		<path class="st3" d="M190.9,224.6h0.7v-5.9l1.1-0.4c8.4-2.9,17.1-5.2,25.8-6.8l0.6-0.1v-28.3H167v48.4l1.1-0.6
			C175.1,227.2,182.9,225,190.9,224.6z M217.7,184.6v25.5c-8.6,1.6-17.2,3.8-25.4,6.7l-2.1,0.8v5.5c-7.5,0.4-14.9,2.4-21.6,5.9
			v-44.4L217.7,184.6z"/>
		<path class="st3" d="M223.8,206c0.1,0,0.2,0,0.2,0c7.7-1.6,15.6-2.4,23.5-2.4c7.9,0,15.7,0.7,23.5,2.1c0.4,0.1,0.8,0,1-0.3
			c0.3-0.2,0.5-0.6,0.5-1v-69.6c0-0.7-0.6-1.3-1.3-1.3h-47.4c-0.7,0-1.3,0.6-1.3,1.3c0,0,0,0,0,0v69.9c0,0.4,0.2,0.8,0.5,1
			C223.3,205.9,223.5,206,223.8,206z M224.1,204.4V135h47v69.1c-7.8-1.4-15.6-2.1-23.5-2.1C239.7,202,231.8,202.8,224.1,204.4
			L224.1,204.4z"/>
		<path class="st3" d="M304,222.7l0.7,0.1c7.7,0.5,15.2,2.9,21.8,7l1.1,0.7V96.9h-51.2v110l0.6,0.1c14.9,3,24.1,7.5,25.8,8.4
			l1.2,0.6L304,222.7z M277.9,98.4h48.2v129.4c-6.3-3.7-13.3-5.9-20.6-6.5v-6.2l-2-1c-1.7-0.9-10.8-5.3-25.6-8.4L277.9,98.4z"/>
		<path class="st3" d="M302,241.9c-24.3,0-44,19.7-44,44s19.7,44,44,44s44-19.7,44-44C346,261.7,326.3,242,302,241.9z M302,328.4
			c-23.5,0-42.5-19-42.5-42.5s19-42.5,42.5-42.5s42.5,19,42.5,42.5C344.5,309.4,325.5,328.4,302,328.4z"/>
		<path class="st3" d="M193,241.9c-24.3,0-44,19.7-44,44s19.7,44,44,44s44-19.7,44-44C237,261.7,217.3,242,193,241.9z M193,328.4
			c-23.5,0-42.5-19-42.5-42.5s19-42.5,42.5-42.5s42.5,19,42.5,42.5C235.5,309.4,216.5,328.4,193,328.4z"/>
	</g>
</g>
</svg>
