<?xml version="1.0" encoding="UTF-8"?>
<svg xmlns="http://www.w3.org/2000/svg" xmlns:xlink="http://www.w3.org/1999/xlink" width="64px" height="64px" viewBox="0 0 64 64" version="1.1">
<g id="surface1">
<path style=" stroke:none;fill-rule:nonzero;fill:rgb(96.470588%,20.392157%,27.058825%);fill-opacity:1;" d="M 28.914062 1.96875 C 29.011719 1.96875 29.105469 1.96875 29.203125 1.96875 C 30.589844 1.96875 31.90625 2.011719 33.25 2.375 C 33.332031 2.398438 33.417969 2.421875 33.503906 2.445312 C 38.050781 3.707031 41.777344 6.445312 44.375 10.375 C 44.445312 10.3125 44.519531 10.25 44.59375 10.1875 C 44.992188 9.921875 45.226562 9.984375 45.683594 10.050781 C 46.230469 10.179688 46.738281 10.394531 47.25 10.625 C 47.257812 10.769531 47.265625 10.917969 47.273438 11.066406 C 47.324219 12.089844 47.324219 12.089844 47.664062 13.039062 C 48.011719 13.332031 48.257812 13.382812 48.710938 13.351562 C 49.070312 13.292969 49.070312 13.292969 49.40625 13.203125 C 49.796875 13.113281 50.101562 13.074219 50.5 13.125 C 50.78125 13.386719 50.78125 13.386719 51.03125 13.726562 C 51.15625 13.894531 51.15625 13.894531 51.28125 14.066406 C 51.75 14.734375 51.75 14.734375 51.726562 15.050781 C 51.613281 15.414062 51.445312 15.648438 51.21875 15.953125 C 50.917969 16.449219 50.8125 16.765625 50.90625 17.34375 C 51.074219 17.839844 51.214844 17.980469 51.667969 18.253906 C 52.101562 18.460938 52.539062 18.59375 53 18.75 C 53 19.574219 53 20.398438 53 21.25 C 52.71875 21.34375 52.4375 21.441406 52.148438 21.539062 C 51.6875 21.722656 51.324219 21.902344 51.019531 22.304688 C 50.8125 22.875 50.804688 23.21875 51.054688 23.78125 C 51.289062 24.179688 51.289062 24.179688 51.558594 24.546875 C 51.75 24.875 51.75 24.875 51.746094 25.125 C 51.574219 25.476562 51.359375 25.773438 51.125 26.085938 C 50.988281 26.269531 50.988281 26.269531 50.851562 26.453125 C 50.625 26.75 50.625 26.75 50.5 26.875 C 50.308594 26.867188 50.113281 26.847656 49.921875 26.828125 C 49.808594 26.816406 49.695312 26.804688 49.578125 26.792969 C 49.25 26.75 49.25 26.75 48.789062 26.640625 C 48.304688 26.621094 48.0625 26.667969 47.679688 26.964844 C 47.246094 27.648438 47.292969 28.589844 47.25 29.375 C 46.972656 29.480469 46.691406 29.585938 46.414062 29.6875 C 46.335938 29.71875 46.257812 29.746094 46.175781 29.777344 C 45.730469 29.941406 45.351562 30.070312 44.875 30 C 44.585938 29.8125 44.585938 29.8125 44.375 29.625 C 44.28125 29.753906 44.191406 29.878906 44.09375 30.011719 C 40.984375 34.246094 37.074219 36.902344 31.875 37.875 C 31.707031 37.90625 31.707031 37.90625 31.535156 37.941406 C 31.078125 38.007812 30.632812 38.019531 30.171875 38.015625 C 30.082031 38.015625 29.992188 38.015625 29.898438 38.015625 C 29.707031 38.015625 29.519531 38.015625 29.328125 38.015625 C 29.042969 38.015625 28.757812 38.015625 28.46875 38.015625 C 28.285156 38.015625 28.097656 38.015625 27.914062 38.015625 C 27.820312 38.015625 27.730469 38.015625 27.636719 38.015625 C 27.113281 38.011719 26.613281 37.96875 26.09375 37.894531 C 25.597656 37.839844 25.542969 37.84375 25.113281 38.15625 C 25.007812 38.292969 24.910156 38.429688 24.8125 38.570312 C 24.757812 38.644531 24.703125 38.714844 24.644531 38.792969 C 24.527344 38.945312 24.414062 39.101562 24.300781 39.257812 C 24.066406 39.582031 23.816406 39.890625 23.570312 40.203125 C 23.398438 40.417969 23.230469 40.632812 23.0625 40.851562 C 22.757812 41.242188 22.445312 41.621094 22.125 42 C 21.699219 41.921875 21.4375 41.765625 21.097656 41.507812 C 21 41.433594 20.902344 41.363281 20.800781 41.285156 C 20.59375 41.132812 20.390625 40.976562 20.183594 40.820312 C 20.085938 40.75 19.988281 40.675781 19.886719 40.601562 C 19.796875 40.535156 19.707031 40.464844 19.617188 40.398438 C 19.367188 40.21875 19.367188 40.21875 19 40.25 C 18.820312 40.40625 18.820312 40.40625 18.65625 40.625 C 18.589844 40.707031 18.527344 40.789062 18.460938 40.871094 C 18.390625 40.960938 18.320312 41.050781 18.25 41.140625 C 18.175781 41.230469 18.105469 41.324219 18.03125 41.417969 C 17.8125 41.691406 17.59375 41.972656 17.375 42.25 C 17.257812 42.398438 17.140625 42.546875 17.023438 42.699219 C 16.859375 42.910156 16.695312 43.117188 16.53125 43.328125 C 16 44.007812 15.449219 44.671875 14.898438 45.335938 C 14.386719 45.957031 13.882812 46.585938 13.390625 47.21875 C 12.886719 47.863281 12.371094 48.496094 11.855469 49.128906 C 11.421875 49.664062 10.992188 50.199219 10.570312 50.742188 C 9.976562 51.503906 9.367188 52.246094 8.75 52.992188 C 8.203125 53.65625 7.660156 54.324219 7.125 55 C 6.71875 54.925781 6.488281 54.792969 6.171875 54.527344 C 6.085938 54.457031 6.003906 54.386719 5.914062 54.3125 C 5.777344 54.195312 5.777344 54.195312 5.640625 54.078125 C 5.449219 53.917969 5.257812 53.757812 5.070312 53.597656 C 4.972656 53.519531 4.878906 53.4375 4.78125 53.355469 C 4.304688 52.964844 3.816406 52.582031 3.332031 52.207031 C 2.878906 51.855469 2.4375 51.492188 2 51.125 C 2.074219 50.71875 2.207031 50.488281 2.472656 50.171875 C 2.542969 50.085938 2.613281 50.003906 2.6875 49.914062 C 2.765625 49.824219 2.84375 49.734375 2.921875 49.640625 C 3.082031 49.449219 3.242188 49.257812 3.402344 49.066406 C 3.484375 48.972656 3.5625 48.875 3.644531 48.777344 C 3.972656 48.382812 4.289062 47.980469 4.601562 47.578125 C 5.082031 46.960938 5.574219 46.351562 6.070312 45.746094 C 7.011719 44.601562 7.941406 43.453125 8.855469 42.285156 C 9.359375 41.640625 9.875 41.007812 10.394531 40.371094 C 10.898438 39.75 11.394531 39.125 11.886719 38.496094 C 12.339844 37.917969 12.804688 37.351562 13.277344 36.789062 C 13.476562 36.53125 13.617188 36.292969 13.75 36 C 13.621094 35.957031 13.621094 35.957031 13.488281 35.914062 C 13.042969 35.714844 12.683594 35.433594 12.304688 35.132812 C 12.164062 35.023438 12.023438 34.910156 11.882812 34.800781 C 11.691406 34.652344 11.691406 34.652344 11.5 34.5 C 11.332031 34.375 11.167969 34.25 11 34.125 C 11.074219 33.710938 11.214844 33.476562 11.484375 33.15625 C 11.558594 33.066406 11.632812 32.980469 11.707031 32.886719 C 11.785156 32.796875 11.863281 32.703125 11.945312 32.609375 C 12.105469 32.417969 12.265625 32.230469 12.421875 32.039062 C 12.5 31.945312 12.578125 31.855469 12.65625 31.757812 C 13.074219 31.261719 13.472656 30.757812 13.875 30.25 C 13.714844 29.835938 13.535156 29.445312 13.320312 29.054688 C 12.621094 27.769531 12.019531 26.539062 11.625 25.125 C 11.589844 25.003906 11.550781 24.886719 11.515625 24.761719 C 11.054688 23.203125 10.953125 21.644531 10.960938 20.03125 C 10.960938 19.9375 10.960938 19.84375 10.960938 19.746094 C 10.96875 18.382812 11.015625 17.074219 11.375 15.75 C 11.398438 15.667969 11.421875 15.582031 11.445312 15.496094 C 12.753906 10.777344 15.734375 6.714844 20 4.25 C 21.949219 3.191406 23.949219 2.53125 26.125 2.125 C 26.238281 2.101562 26.351562 2.082031 26.464844 2.058594 C 27.273438 1.941406 28.097656 1.96875 28.914062 1.96875 Z M 28.914062 1.96875 "/>
<path style=" stroke:none;fill-rule:nonzero;fill:rgb(87.058824%,86.666667%,92.54902%);fill-opacity:1;" d="M 28.90625 5.960938 C 29.042969 5.960938 29.179688 5.960938 29.320312 5.960938 C 33.226562 6.019531 36.648438 7.765625 39.375 10.5 C 40.375 11.625 40.375 11.625 40.375 12 C 40.15625 12.054688 40.15625 12.054688 39.929688 12.109375 C 37.640625 12.699219 35.71875 13.71875 34.375 15.75 C 33.335938 17.546875 32.730469 19.464844 33.242188 21.539062 C 33.886719 23.808594 35.09375 25.644531 37.152344 26.863281 C 38.199219 27.417969 39.222656 27.738281 40.375 28 C 40.183594 28.644531 39.78125 29.054688 39.328125 29.53125 C 39.25 29.613281 39.171875 29.695312 39.089844 29.78125 C 38.410156 30.492188 37.695312 31.078125 36.875 31.625 C 36.777344 31.691406 36.675781 31.757812 36.574219 31.828125 C 33.511719 33.785156 29.675781 34.546875 26.109375 33.796875 C 25.070312 33.554688 24.089844 33.207031 23.125 32.75 C 23.046875 32.710938 22.964844 32.675781 22.882812 32.636719 C 21.757812 32.09375 20.8125 31.457031 19.875 30.625 C 19.773438 30.542969 19.671875 30.460938 19.566406 30.375 C 17.105469 28.320312 15.40625 24.972656 15.027344 21.800781 C 14.679688 17.921875 15.625 14.21875 18.050781 11.128906 C 20.824219 7.886719 24.585938 5.9375 28.90625 5.960938 Z M 28.90625 5.960938 "/>
<path style=" stroke:none;fill-rule:nonzero;fill:rgb(17.254902%,44.705883%,99.607843%);fill-opacity:1;" d="M 50.125 42 C 50.414062 42.300781 50.414062 42.300781 50.710938 42.6875 C 51.246094 43.3125 51.246094 43.3125 52 43.546875 C 52.769531 43.46875 53.109375 42.859375 53.570312 42.300781 C 53.875 42 53.875 42 54.160156 41.917969 C 54.46875 41.949219 54.710938 42.015625 55 42.125 C 55.113281 42.167969 55.230469 42.207031 55.347656 42.25 C 55.652344 42.367188 55.953125 42.492188 56.25 42.625 C 56.257812 42.769531 56.265625 42.917969 56.273438 43.066406 C 56.324219 44.089844 56.324219 44.089844 56.664062 45.039062 C 57.011719 45.332031 57.257812 45.382812 57.710938 45.351562 C 58.070312 45.292969 58.070312 45.292969 58.40625 45.203125 C 58.796875 45.113281 59.101562 45.074219 59.5 45.125 C 59.78125 45.386719 59.78125 45.386719 60.03125 45.726562 C 60.15625 45.894531 60.15625 45.894531 60.28125 46.066406 C 60.75 46.734375 60.75 46.734375 60.726562 47.050781 C 60.613281 47.414062 60.445312 47.648438 60.21875 47.953125 C 59.917969 48.449219 59.8125 48.765625 59.90625 49.34375 C 60.074219 49.839844 60.214844 49.980469 60.667969 50.253906 C 61.101562 50.460938 61.539062 50.59375 62 50.75 C 62 51.574219 62 52.398438 62 53.25 C 61.71875 53.34375 61.4375 53.441406 61.148438 53.539062 C 60.6875 53.722656 60.324219 53.902344 60.019531 54.304688 C 59.8125 54.875 59.804688 55.21875 60.054688 55.78125 C 60.289062 56.179688 60.289062 56.179688 60.558594 56.546875 C 60.75 56.875 60.75 56.875 60.746094 57.125 C 60.574219 57.476562 60.359375 57.773438 60.125 58.085938 C 60.035156 58.207031 59.945312 58.328125 59.851562 58.453125 C 59.625 58.75 59.625 58.75 59.5 58.875 C 59.308594 58.867188 59.113281 58.847656 58.921875 58.828125 C 58.808594 58.816406 58.695312 58.804688 58.578125 58.792969 C 58.25 58.75 58.25 58.75 57.789062 58.640625 C 57.304688 58.621094 57.0625 58.667969 56.679688 58.964844 C 56.246094 59.648438 56.292969 60.589844 56.25 61.375 C 55.972656 61.480469 55.691406 61.585938 55.414062 61.6875 C 55.335938 61.71875 55.257812 61.746094 55.175781 61.777344 C 54.3125 62.09375 54.3125 62.09375 53.875 62 C 53.585938 61.699219 53.585938 61.699219 53.289062 61.3125 C 52.753906 60.6875 52.753906 60.6875 52 60.453125 C 51.230469 60.53125 50.890625 61.140625 50.429688 61.699219 C 50.125 62 50.125 62 49.839844 62.082031 C 49.53125 62.050781 49.289062 61.984375 49 61.875 C 48.886719 61.832031 48.769531 61.792969 48.652344 61.75 C 48.347656 61.632812 48.046875 61.507812 47.75 61.375 C 47.742188 61.230469 47.734375 61.082031 47.726562 60.933594 C 47.675781 59.910156 47.675781 59.910156 47.335938 58.960938 C 46.988281 58.667969 46.742188 58.617188 46.289062 58.648438 C 45.929688 58.707031 45.929688 58.707031 45.59375 58.796875 C 45.203125 58.886719 44.898438 58.925781 44.5 58.875 C 44.21875 58.613281 44.21875 58.613281 43.96875 58.273438 C 43.886719 58.160156 43.800781 58.050781 43.71875 57.933594 C 43.25 57.265625 43.25 57.265625 43.273438 56.949219 C 43.386719 56.585938 43.554688 56.351562 43.78125 56.046875 C 44.082031 55.550781 44.1875 55.234375 44.09375 54.65625 C 43.925781 54.160156 43.785156 54.019531 43.332031 53.746094 C 42.898438 53.539062 42.460938 53.40625 42 53.25 C 42 52.425781 42 51.601562 42 50.75 C 42.28125 50.65625 42.5625 50.558594 42.851562 50.460938 C 43.3125 50.277344 43.675781 50.097656 43.980469 49.695312 C 44.1875 49.125 44.195312 48.78125 43.945312 48.21875 C 43.710938 47.820312 43.710938 47.820312 43.441406 47.453125 C 43.25 47.125 43.25 47.125 43.253906 46.875 C 43.425781 46.523438 43.640625 46.226562 43.875 45.914062 C 43.964844 45.792969 44.054688 45.671875 44.148438 45.546875 C 44.375 45.25 44.375 45.25 44.5 45.125 C 44.691406 45.132812 44.886719 45.152344 45.078125 45.171875 C 45.246094 45.1875 45.246094 45.1875 45.421875 45.207031 C 45.75 45.25 45.75 45.25 46.210938 45.359375 C 46.695312 45.378906 46.9375 45.332031 47.320312 45.035156 C 47.753906 44.351562 47.707031 43.410156 47.75 42.625 C 48.027344 42.519531 48.308594 42.414062 48.585938 42.3125 C 48.664062 42.28125 48.742188 42.253906 48.824219 42.222656 C 49.6875 41.90625 49.6875 41.90625 50.125 42 Z M 49 49.375 C 48.179688 50.46875 48.003906 51.523438 48.125 52.875 C 48.417969 54.0625 49.078125 54.796875 50.078125 55.460938 C 50.972656 55.953125 51.875 55.992188 52.875 55.875 C 54.152344 55.476562 55.058594 54.648438 55.6875 53.476562 C 56.046875 52.554688 56.046875 51.429688 55.671875 50.515625 C 55.578125 50.339844 55.480469 50.167969 55.375 50 C 55.296875 49.871094 55.296875 49.871094 55.21875 49.734375 C 54.71875 48.980469 54 48.460938 53.140625 48.171875 C 51.574219 47.902344 50.085938 48.167969 49 49.375 Z M 49 49.375 "/>
<path style=" stroke:none;fill-rule:nonzero;fill:rgb(96.470588%,20%,26.666668%);fill-opacity:1;" d="M 14.375 29.75 C 14.765625 29.808594 15.019531 29.949219 15.332031 30.179688 C 15.421875 30.246094 15.507812 30.308594 15.597656 30.375 C 15.738281 30.480469 15.738281 30.480469 15.882812 30.585938 C 15.980469 30.660156 16.082031 30.730469 16.183594 30.804688 C 16.496094 31.035156 16.8125 31.269531 17.125 31.5 C 17.324219 31.648438 17.523438 31.792969 17.722656 31.941406 C 18.019531 32.160156 18.316406 32.375 18.609375 32.59375 C 19.75 33.433594 20.894531 34.261719 22.042969 35.085938 C 23.203125 35.921875 24.359375 36.761719 25.5 37.625 C 25.339844 37.972656 25.160156 38.257812 24.917969 38.550781 C 24.820312 38.667969 24.820312 38.667969 24.71875 38.792969 C 24.648438 38.875 24.578125 38.960938 24.507812 39.046875 C 24.074219 39.574219 23.640625 40.097656 23.230469 40.640625 C 23.136719 40.761719 23.136719 40.761719 23.042969 40.882812 C 22.929688 41.035156 22.8125 41.1875 22.699219 41.34375 C 22.320312 41.84375 22.320312 41.84375 22.015625 41.980469 C 21.632812 42.007812 21.492188 41.863281 21.195312 41.628906 C 21.089844 41.550781 20.988281 41.46875 20.878906 41.390625 C 20.773438 41.304688 20.664062 41.21875 20.554688 41.132812 C 20.339844 40.96875 20.128906 40.800781 19.914062 40.636719 C 19.820312 40.5625 19.726562 40.488281 19.628906 40.414062 C 19.371094 40.214844 19.371094 40.214844 19 40.25 C 18.820312 40.40625 18.820312 40.40625 18.65625 40.625 C 18.589844 40.707031 18.527344 40.789062 18.460938 40.871094 C 18.390625 40.960938 18.320312 41.050781 18.25 41.140625 C 18.175781 41.230469 18.105469 41.324219 18.03125 41.417969 C 17.8125 41.691406 17.59375 41.972656 17.375 42.25 C 17.257812 42.398438 17.140625 42.546875 17.023438 42.699219 C 16.859375 42.910156 16.695312 43.117188 16.53125 43.328125 C 16 44.007812 15.449219 44.671875 14.898438 45.335938 C 14.386719 45.957031 13.882812 46.585938 13.390625 47.21875 C 12.886719 47.863281 12.371094 48.496094 11.855469 49.128906 C 11.421875 49.664062 10.992188 50.199219 10.570312 50.742188 C 9.976562 51.503906 9.367188 52.246094 8.75 52.992188 C 8.203125 53.65625 7.660156 54.324219 7.125 55 C 6.71875 54.925781 6.488281 54.792969 6.171875 54.527344 C 6.042969 54.421875 6.042969 54.421875 5.914062 54.3125 C 5.777344 54.195312 5.777344 54.195312 5.640625 54.078125 C 5.449219 53.917969 5.257812 53.757812 5.070312 53.597656 C 4.925781 53.480469 4.925781 53.480469 4.78125 53.355469 C 4.304688 52.964844 3.816406 52.582031 3.332031 52.207031 C 2.878906 51.855469 2.4375 51.492188 2 51.125 C 2.074219 50.71875 2.207031 50.488281 2.472656 50.171875 C 2.542969 50.085938 2.613281 50.003906 2.6875 49.914062 C 2.804688 49.777344 2.804688 49.777344 2.921875 49.640625 C 3.082031 49.449219 3.242188 49.257812 3.402344 49.066406 C 3.484375 48.972656 3.5625 48.875 3.644531 48.777344 C 3.972656 48.382812 4.289062 47.980469 4.601562 47.578125 C 5.082031 46.960938 5.574219 46.351562 6.070312 45.746094 C 7.011719 44.601562 7.941406 43.453125 8.855469 42.285156 C 9.359375 41.640625 9.875 41.007812 10.394531 40.371094 C 10.898438 39.75 11.394531 39.125 11.886719 38.496094 C 12.339844 37.917969 12.804688 37.351562 13.277344 36.789062 C 13.476562 36.53125 13.617188 36.292969 13.75 36 C 13.621094 35.957031 13.621094 35.957031 13.488281 35.914062 C 13.042969 35.714844 12.683594 35.433594 12.304688 35.132812 C 12.164062 35.023438 12.023438 34.910156 11.882812 34.800781 C 11.757812 34.703125 11.628906 34.601562 11.5 34.5 C 11.332031 34.375 11.167969 34.25 11 34.125 C 11.074219 33.710938 11.210938 33.476562 11.480469 33.160156 C 11.554688 33.074219 11.625 32.984375 11.703125 32.894531 C 11.777344 32.804688 11.855469 32.710938 11.9375 32.617188 C 12.097656 32.425781 12.257812 32.234375 12.417969 32.046875 C 12.496094 31.953125 12.574219 31.859375 12.652344 31.765625 C 13.035156 31.308594 13.40625 30.847656 13.777344 30.386719 C 13.851562 30.300781 13.925781 30.214844 14 30.125 C 14.0625 30.046875 14.121094 29.972656 14.1875 29.894531 C 14.25 29.847656 14.3125 29.796875 14.375 29.75 Z M 14.375 29.75 "/>
<path style=" stroke:none;fill-rule:nonzero;fill:rgb(57.254905%,69.411767%,97.254902%);fill-opacity:1;" d="M 35.203125 7.4375 C 36.234375 7.894531 37.136719 8.53125 38 9.25 C 38.101562 9.335938 38.203125 9.417969 38.308594 9.507812 C 39.085938 10.179688 39.78125 10.910156 40.375 11.75 C 40.375 11.832031 40.375 11.914062 40.375 12 C 40.230469 12.035156 40.082031 12.074219 39.929688 12.109375 C 37.640625 12.699219 35.71875 13.71875 34.375 15.75 C 33.335938 17.546875 32.730469 19.464844 33.242188 21.539062 C 33.886719 23.808594 35.09375 25.644531 37.152344 26.863281 C 38.199219 27.417969 39.222656 27.738281 40.375 28 C 40.183594 28.644531 39.78125 29.054688 39.328125 29.53125 C 39.25 29.613281 39.171875 29.695312 39.089844 29.78125 C 38 30.914062 36.460938 32.320312 34.875 32.625 C 34.539062 32.488281 34.285156 32.355469 33.984375 32.164062 C 33.910156 32.117188 33.832031 32.074219 33.753906 32.027344 C 33.363281 31.785156 32.988281 31.53125 32.625 31.25 C 32.707031 30.507812 32.902344 29.835938 33.125 29.125 C 32.710938 28.710938 32.300781 28.300781 31.875 27.875 C 31.664062 27.933594 31.453125 27.992188 31.234375 28.054688 C 30.742188 28.191406 30.257812 28.296875 29.75 28.375 C 28.4375 26.378906 28.4375 26.378906 28.125 25.625 C 28.265625 25.199219 28.402344 25.089844 28.742188 24.804688 C 29.003906 24.582031 29.257812 24.367188 29.5 24.125 C 29.472656 23.785156 29.429688 23.460938 29.375 23.125 C 29.351562 22.9375 29.328125 22.75 29.304688 22.5625 C 29.285156 22.417969 29.269531 22.273438 29.25 22.125 C 29.128906 22.109375 29.007812 22.09375 28.878906 22.074219 C 28.722656 22.050781 28.5625 22.03125 28.398438 22.007812 C 28.242188 21.984375 28.082031 21.964844 27.917969 21.941406 C 27.5 21.875 27.5 21.875 27.125 21.75 C 27.125 20.59375 27.125 19.441406 27.125 18.25 C 28.828125 17.875 28.828125 17.875 29.25 17.875 C 29.257812 17.804688 29.265625 17.734375 29.273438 17.660156 C 29.289062 17.515625 29.289062 17.515625 29.304688 17.367188 C 29.316406 17.265625 29.324219 17.160156 29.335938 17.054688 C 29.375 16.75 29.375 16.75 29.507812 16.304688 C 29.5 15.78125 29.390625 15.699219 29.03125 15.335938 C 28.738281 15.066406 28.457031 14.847656 28.125 14.625 C 28.421875 13.519531 29.066406 12.53125 29.75 11.625 C 29.917969 11.660156 30.082031 11.699219 30.25 11.734375 C 30.40625 11.765625 30.40625 11.765625 30.5625 11.796875 C 30.875 11.875 30.875 11.875 31.128906 11.992188 C 31.414062 12.113281 31.5625 12.167969 31.875 12.125 C 32.351562 11.757812 32.738281 11.332031 33.125 10.875 C 33.097656 10.785156 33.074219 10.695312 33.046875 10.601562 C 33.015625 10.480469 32.980469 10.359375 32.945312 10.234375 C 32.910156 10.117188 32.878906 9.996094 32.84375 9.875 C 32.75 9.5 32.683594 9.128906 32.625 8.75 C 32.90625 8.566406 33.1875 8.386719 33.46875 8.203125 C 33.546875 8.152344 33.628906 8.101562 33.710938 8.046875 C 34.777344 7.355469 34.777344 7.355469 35.203125 7.4375 Z M 35.203125 7.4375 "/>
<path style=" stroke:none;fill-rule:nonzero;fill:rgb(99.215686%,84.705883%,40.000001%);fill-opacity:1;" d="M 40.570312 12 C 41.367188 13.113281 41.9375 14.308594 42.367188 15.601562 C 42.421875 15.761719 42.421875 15.761719 42.472656 15.921875 C 42.894531 17.25 43.046875 18.515625 43.039062 19.90625 C 43.039062 20.054688 43.039062 20.203125 43.035156 20.359375 C 43.023438 21.453125 42.933594 22.445312 42.625 23.5 C 42.601562 23.585938 42.578125 23.671875 42.550781 23.761719 C 42.125 25.269531 41.535156 27.023438 40.375 28.125 C 37.6875 27.457031 35.527344 26.347656 34.03125 23.890625 C 33.015625 21.984375 32.621094 19.933594 33.25 17.84375 C 34.011719 15.558594 35.625 13.765625 37.757812 12.679688 C 40.058594 11.671875 40.058594 11.671875 40.570312 12 Z M 40.570312 12 "/>
<path style=" stroke:none;fill-rule:nonzero;fill:rgb(57.254905%,69.01961%,97.254902%);fill-opacity:1;" d="M 45.101562 9.984375 C 45.878906 10.070312 46.539062 10.304688 47.25 10.625 C 47.257812 10.769531 47.265625 10.917969 47.273438 11.066406 C 47.324219 12.089844 47.324219 12.089844 47.664062 13.039062 C 48.011719 13.332031 48.257812 13.382812 48.710938 13.351562 C 49.070312 13.292969 49.070312 13.292969 49.40625 13.203125 C 49.796875 13.113281 50.101562 13.074219 50.5 13.125 C 50.78125 13.386719 50.78125 13.386719 51.03125 13.726562 C 51.113281 13.839844 51.199219 13.949219 51.28125 14.066406 C 51.75 14.734375 51.75 14.734375 51.726562 15.050781 C 51.613281 15.414062 51.445312 15.648438 51.21875 15.953125 C 50.917969 16.449219 50.8125 16.765625 50.90625 17.34375 C 51.074219 17.839844 51.214844 17.980469 51.667969 18.253906 C 52.101562 18.460938 52.539062 18.59375 53 18.75 C 53 19.574219 53 20.398438 53 21.25 C 52.71875 21.34375 52.4375 21.441406 52.148438 21.539062 C 51.6875 21.722656 51.324219 21.902344 51.019531 22.304688 C 50.8125 22.875 50.804688 23.21875 51.054688 23.78125 C 51.289062 24.179688 51.289062 24.179688 51.558594 24.546875 C 51.75 24.875 51.75 24.875 51.746094 25.125 C 51.574219 25.476562 51.359375 25.773438 51.125 26.085938 C 51.035156 26.207031 50.945312 26.328125 50.851562 26.453125 C 50.625 26.75 50.625 26.75 50.5 26.875 C 50.308594 26.867188 50.113281 26.847656 49.921875 26.828125 C 49.808594 26.816406 49.695312 26.804688 49.578125 26.792969 C 49.25 26.75 49.25 26.75 48.789062 26.640625 C 48.304688 26.621094 48.0625 26.667969 47.679688 26.964844 C 47.246094 27.648438 47.292969 28.589844 47.25 29.375 C 46.972656 29.480469 46.691406 29.585938 46.414062 29.6875 C 46.335938 29.71875 46.257812 29.746094 46.175781 29.777344 C 45.730469 29.941406 45.351562 30.0625 44.875 30 C 44.585938 29.75 44.585938 29.75 44.375 29.5 C 44.539062 28.957031 44.753906 28.484375 45.023438 27.984375 C 45.40625 27.246094 45.703125 26.488281 45.976562 25.703125 C 46.011719 25.597656 46.050781 25.496094 46.085938 25.386719 C 47.597656 20.9375 47.03125 16.054688 45 11.875 C 44.824219 11.570312 44.648438 11.269531 44.457031 10.976562 C 44.375 10.75 44.375 10.75 44.46875 10.484375 C 44.785156 10.003906 44.785156 10.003906 45.101562 9.984375 Z M 45.101562 9.984375 "/>
<path style=" stroke:none;fill-rule:nonzero;fill:rgb(88.627452%,5.490196%,15.686275%);fill-opacity:1;" d="M 14.375 29.75 C 14.765625 29.808594 15.019531 29.949219 15.332031 30.179688 C 15.421875 30.246094 15.507812 30.308594 15.597656 30.375 C 15.691406 30.445312 15.785156 30.515625 15.882812 30.585938 C 15.980469 30.660156 16.082031 30.730469 16.183594 30.804688 C 16.496094 31.035156 16.8125 31.269531 17.125 31.5 C 17.324219 31.648438 17.523438 31.792969 17.722656 31.941406 C 18.019531 32.160156 18.316406 32.375 18.609375 32.59375 C 19.75 33.433594 20.894531 34.261719 22.042969 35.085938 C 23.203125 35.921875 24.359375 36.761719 25.5 37.625 C 25.339844 37.972656 25.160156 38.257812 24.917969 38.550781 C 24.851562 38.628906 24.789062 38.710938 24.71875 38.792969 C 24.648438 38.875 24.578125 38.960938 24.507812 39.046875 C 24.074219 39.574219 23.640625 40.097656 23.230469 40.640625 C 23.167969 40.722656 23.105469 40.800781 23.042969 40.882812 C 22.929688 41.035156 22.8125 41.1875 22.699219 41.34375 C 22.316406 41.84375 22.316406 41.84375 22.015625 41.980469 C 21.644531 42.007812 21.507812 41.878906 21.210938 41.65625 C 21.109375 41.578125 21.007812 41.503906 20.90625 41.425781 C 20.800781 41.34375 20.695312 41.261719 20.585938 41.179688 C 20.480469 41.101562 20.378906 41.023438 20.273438 40.945312 C 19.8125 40.597656 19.359375 40.242188 18.925781 39.863281 C 18.460938 39.457031 17.964844 39.101562 17.460938 38.742188 C 17.261719 38.601562 17.0625 38.457031 16.863281 38.316406 C 16.761719 38.242188 16.660156 38.171875 16.558594 38.09375 C 16.253906 37.878906 15.953125 37.660156 15.652344 37.4375 C 14.769531 36.796875 13.890625 36.167969 12.960938 35.59375 C 12.277344 35.144531 11.640625 34.632812 11 34.125 C 11.074219 33.710938 11.210938 33.476562 11.480469 33.160156 C 11.554688 33.074219 11.625 32.984375 11.703125 32.894531 C 11.777344 32.804688 11.855469 32.710938 11.9375 32.617188 C 12.097656 32.425781 12.257812 32.234375 12.417969 32.046875 C 12.535156 31.90625 12.535156 31.90625 12.652344 31.765625 C 13.035156 31.308594 13.40625 30.847656 13.777344 30.386719 C 13.851562 30.300781 13.925781 30.214844 14 30.125 C 14.0625 30.046875 14.121094 29.972656 14.1875 29.894531 C 14.25 29.847656 14.3125 29.796875 14.375 29.75 Z M 14.375 29.75 "/>
<path style=" stroke:none;fill-rule:nonzero;fill:rgb(47.450981%,63.529414%,86.666667%);fill-opacity:1;" d="M 54.992188 46.832031 C 55.300781 47.039062 55.589844 47.257812 55.875 47.5 C 55.953125 47.566406 56.035156 47.628906 56.113281 47.699219 C 57.234375 48.714844 57.976562 50.195312 58.054688 51.703125 C 58.101562 53.578125 57.359375 55.03125 56.121094 56.40625 C 55.011719 57.496094 53.527344 58.003906 51.992188 58.039062 C 50.328125 58.023438 48.882812 57.359375 47.664062 56.25 C 46.691406 55.226562 46.113281 53.902344 46 52.5 C 45.992188 52.398438 45.984375 52.296875 45.972656 52.191406 C 45.90625 50.570312 46.488281 49.203125 47.515625 47.984375 C 49.539062 45.828125 52.417969 45.382812 54.992188 46.832031 Z M 49 49.375 C 48.179688 50.46875 48.003906 51.523438 48.125 52.875 C 48.417969 54.0625 49.078125 54.796875 50.078125 55.460938 C 50.972656 55.953125 51.875 55.992188 52.875 55.875 C 54.152344 55.476562 55.058594 54.648438 55.6875 53.476562 C 56.046875 52.554688 56.046875 51.429688 55.671875 50.515625 C 55.578125 50.339844 55.480469 50.167969 55.375 50 C 55.296875 49.871094 55.296875 49.871094 55.21875 49.734375 C 54.71875 48.980469 54 48.460938 53.140625 48.171875 C 51.574219 47.902344 50.085938 48.167969 49 49.375 Z M 49 49.375 "/>
<path style=" stroke:none;fill-rule:nonzero;fill:rgb(92.54902%,91.764706%,94.509804%);fill-opacity:1;" d="M 28.90625 5.960938 C 29.042969 5.960938 29.179688 5.960938 29.320312 5.960938 C 30.960938 5.984375 32.59375 6.253906 34.125 6.875 C 34.167969 6.957031 34.207031 7.039062 34.25 7.125 C 34.125 7.121094 34.125 7.121094 34 7.121094 C 29 7.054688 24.796875 8.03125 20.875 11.25 C 20.765625 11.339844 20.65625 11.425781 20.542969 11.515625 C 17.527344 14.082031 15.925781 17.933594 15.25 21.75 C 14.871094 21.371094 14.960938 21.003906 14.953125 20.488281 C 14.960938 16.410156 16.335938 12.804688 19.203125 9.859375 C 21.757812 7.320312 25.320312 5.941406 28.90625 5.960938 Z M 28.90625 5.960938 "/>
</g>
</svg>
