<?xml version="1.0" encoding="UTF-8"?>
<svg xmlns="http://www.w3.org/2000/svg" xmlns:xlink="http://www.w3.org/1999/xlink" viewBox="0 0 16 16" version="1.1">
<g id="surface1">
<path style=" stroke:none;fill-rule:nonzero;fill:rgb(19.607843%,50.980395%,100%);fill-opacity:1;" d="M 7.855469 3.769531 C 7.878906 3.769531 7.902344 3.769531 7.925781 3.769531 C 7.996094 3.769531 8.070312 3.769531 8.140625 3.765625 C 8.183594 3.765625 8.230469 3.765625 8.273438 3.765625 C 8.316406 3.765625 8.355469 3.765625 8.398438 3.765625 C 8.5 3.78125 8.5 3.78125 8.558594 3.835938 C 8.59375 3.90625 8.617188 3.972656 8.636719 4.050781 C 8.710938 4.351562 8.710938 4.351562 8.886719 4.59375 C 8.96875 4.621094 8.96875 4.621094 9.054688 4.636719 C 9.183594 4.660156 9.292969 4.710938 9.414062 4.765625 C 9.476562 4.792969 9.535156 4.820312 9.597656 4.847656 C 9.65625 4.875 9.65625 4.875 9.761719 4.9375 C 9.929688 4.984375 10.023438 4.914062 10.171875 4.835938 C 10.222656 4.804688 10.273438 4.777344 10.324219 4.753906 C 10.359375 4.734375 10.359375 4.734375 10.394531 4.714844 C 10.496094 4.675781 10.578125 4.675781 10.6875 4.6875 C 10.769531 4.742188 10.769531 4.742188 10.84375 4.816406 C 10.875 4.84375 10.902344 4.871094 10.929688 4.898438 C 10.957031 4.929688 10.984375 4.957031 11.011719 4.984375 C 11.042969 5.015625 11.070312 5.042969 11.101562 5.070312 C 11.128906 5.097656 11.15625 5.125 11.183594 5.15625 C 11.207031 5.179688 11.234375 5.203125 11.257812 5.230469 C 11.328125 5.335938 11.324219 5.40625 11.3125 5.53125 C 11.289062 5.597656 11.289062 5.597656 11.257812 5.65625 C 11.246094 5.675781 11.234375 5.699219 11.222656 5.71875 C 11.210938 5.738281 11.199219 5.761719 11.1875 5.78125 C 11.070312 5.988281 11.070312 5.988281 11.0625 6.21875 C 11.09375 6.304688 11.136719 6.390625 11.179688 6.472656 C 11.273438 6.664062 11.351562 6.847656 11.410156 7.050781 C 11.441406 7.132812 11.464844 7.164062 11.53125 7.21875 C 11.597656 7.25 11.597656 7.25 11.675781 7.273438 C 11.703125 7.28125 11.730469 7.292969 11.757812 7.300781 C 11.789062 7.3125 11.816406 7.320312 11.84375 7.328125 C 11.902344 7.347656 11.960938 7.367188 12.015625 7.386719 C 12.042969 7.394531 12.066406 7.402344 12.09375 7.410156 C 12.15625 7.4375 12.15625 7.4375 12.21875 7.5 C 12.273438 7.660156 12.253906 7.832031 12.253906 8 C 12.257812 8.03125 12.257812 8.066406 12.257812 8.101562 C 12.257812 8.132812 12.257812 8.167969 12.257812 8.199219 C 12.257812 8.230469 12.257812 8.257812 12.257812 8.289062 C 12.25 8.382812 12.226562 8.449219 12.1875 8.53125 C 12.136719 8.570312 12.136719 8.570312 12.070312 8.59375 C 12.046875 8.605469 12.019531 8.613281 11.996094 8.625 C 11.929688 8.648438 11.863281 8.667969 11.792969 8.6875 C 11.582031 8.742188 11.582031 8.742188 11.421875 8.882812 C 11.390625 8.964844 11.390625 8.964844 11.371094 9.050781 C 11.335938 9.183594 11.285156 9.296875 11.230469 9.421875 C 11.222656 9.441406 11.210938 9.460938 11.203125 9.484375 C 11.128906 9.648438 11.128906 9.648438 11.085938 9.722656 C 11.042969 9.828125 11.042969 9.921875 11.085938 10.027344 C 11.128906 10.113281 11.175781 10.195312 11.222656 10.28125 C 11.234375 10.300781 11.246094 10.324219 11.257812 10.34375 C 11.269531 10.363281 11.277344 10.382812 11.289062 10.402344 C 11.324219 10.503906 11.324219 10.582031 11.3125 10.6875 C 11.257812 10.769531 11.257812 10.769531 11.183594 10.84375 C 11.144531 10.886719 11.144531 10.886719 11.101562 10.929688 C 11.058594 10.972656 11.058594 10.972656 11.011719 11.015625 C 10.984375 11.042969 10.957031 11.070312 10.929688 11.101562 C 10.902344 11.128906 10.875 11.15625 10.84375 11.183594 C 10.820312 11.207031 10.796875 11.234375 10.769531 11.257812 C 10.664062 11.328125 10.59375 11.324219 10.46875 11.3125 C 10.402344 11.289062 10.402344 11.289062 10.34375 11.257812 C 10.3125 11.242188 10.3125 11.242188 10.28125 11.222656 C 10.261719 11.210938 10.238281 11.199219 10.214844 11.1875 C 10.011719 11.070312 10.011719 11.070312 9.78125 11.0625 C 9.695312 11.09375 9.609375 11.136719 9.527344 11.179688 C 9.335938 11.273438 9.152344 11.351562 8.949219 11.410156 C 8.867188 11.441406 8.835938 11.464844 8.78125 11.53125 C 8.75 11.597656 8.75 11.597656 8.726562 11.675781 C 8.71875 11.703125 8.707031 11.730469 8.699219 11.757812 C 8.6875 11.789062 8.679688 11.816406 8.667969 11.84375 C 8.652344 11.902344 8.632812 11.960938 8.613281 12.015625 C 8.605469 12.042969 8.597656 12.066406 8.589844 12.09375 C 8.5625 12.15625 8.5625 12.15625 8.5 12.21875 C 8.359375 12.230469 8.214844 12.230469 8.074219 12.230469 C 8.003906 12.230469 7.929688 12.230469 7.859375 12.234375 C 7.816406 12.234375 7.769531 12.234375 7.726562 12.234375 C 7.683594 12.234375 7.644531 12.234375 7.601562 12.234375 C 7.5 12.21875 7.5 12.21875 7.441406 12.164062 C 7.40625 12.09375 7.382812 12.027344 7.359375 11.949219 C 7.289062 11.648438 7.289062 11.648438 7.113281 11.40625 C 7.03125 11.378906 7.03125 11.378906 6.945312 11.363281 C 6.816406 11.339844 6.707031 11.289062 6.585938 11.234375 C 6.523438 11.207031 6.464844 11.179688 6.402344 11.152344 C 6.34375 11.125 6.34375 11.125 6.238281 11.0625 C 6.070312 11.015625 5.976562 11.085938 5.828125 11.164062 C 5.777344 11.195312 5.726562 11.222656 5.675781 11.246094 C 5.652344 11.261719 5.628906 11.273438 5.605469 11.285156 C 5.503906 11.324219 5.421875 11.324219 5.3125 11.3125 C 5.230469 11.257812 5.230469 11.257812 5.15625 11.183594 C 5.113281 11.144531 5.113281 11.144531 5.070312 11.101562 C 5.042969 11.070312 5.015625 11.042969 4.984375 11.015625 C 4.957031 10.984375 4.929688 10.957031 4.898438 10.929688 C 4.871094 10.902344 4.84375 10.875 4.816406 10.84375 C 4.792969 10.820312 4.765625 10.796875 4.742188 10.769531 C 4.671875 10.660156 4.671875 10.59375 4.6875 10.46875 C 4.71875 10.398438 4.71875 10.398438 4.757812 10.339844 C 4.925781 10.085938 4.925781 10.085938 4.957031 9.792969 C 4.902344 9.625 4.8125 9.472656 4.726562 9.320312 C 4.660156 9.199219 4.625 9.074219 4.589844 8.945312 C 4.558594 8.867188 4.53125 8.835938 4.46875 8.78125 C 4.402344 8.75 4.402344 8.75 4.324219 8.726562 C 4.296875 8.71875 4.269531 8.707031 4.242188 8.699219 C 4.210938 8.6875 4.183594 8.679688 4.152344 8.671875 C 4.097656 8.652344 4.039062 8.632812 3.984375 8.613281 C 3.957031 8.605469 3.933594 8.597656 3.90625 8.589844 C 3.84375 8.5625 3.84375 8.5625 3.78125 8.5 C 3.769531 8.359375 3.769531 8.214844 3.769531 8.074219 C 3.769531 8.003906 3.769531 7.929688 3.765625 7.859375 C 3.765625 7.816406 3.765625 7.769531 3.765625 7.726562 C 3.765625 7.683594 3.765625 7.644531 3.765625 7.601562 C 3.78125 7.5 3.78125 7.5 3.835938 7.441406 C 3.90625 7.40625 3.972656 7.382812 4.050781 7.359375 C 4.351562 7.289062 4.351562 7.289062 4.59375 7.113281 C 4.621094 7.03125 4.621094 7.03125 4.636719 6.945312 C 4.660156 6.816406 4.710938 6.707031 4.765625 6.585938 C 4.792969 6.523438 4.820312 6.464844 4.847656 6.402344 C 4.875 6.34375 4.875 6.34375 4.9375 6.238281 C 4.984375 6.070312 4.914062 5.976562 4.832031 5.828125 C 4.804688 5.777344 4.777344 5.726562 4.753906 5.675781 C 4.738281 5.652344 4.726562 5.628906 4.714844 5.605469 C 4.675781 5.503906 4.675781 5.421875 4.6875 5.3125 C 4.742188 5.230469 4.742188 5.230469 4.816406 5.15625 C 4.84375 5.125 4.871094 5.097656 4.898438 5.070312 C 4.929688 5.042969 4.957031 5.015625 4.984375 4.984375 C 5.015625 4.957031 5.042969 4.929688 5.070312 4.898438 C 5.097656 4.871094 5.125 4.84375 5.15625 4.816406 C 5.179688 4.792969 5.203125 4.765625 5.230469 4.742188 C 5.339844 4.671875 5.40625 4.671875 5.53125 4.6875 C 5.601562 4.71875 5.601562 4.71875 5.660156 4.757812 C 5.914062 4.925781 5.914062 4.925781 6.207031 4.957031 C 6.375 4.902344 6.527344 4.8125 6.679688 4.726562 C 6.800781 4.660156 6.925781 4.625 7.054688 4.589844 C 7.132812 4.558594 7.164062 4.53125 7.21875 4.46875 C 7.25 4.402344 7.25 4.402344 7.273438 4.324219 C 7.28125 4.296875 7.292969 4.269531 7.300781 4.242188 C 7.3125 4.210938 7.320312 4.183594 7.328125 4.15625 C 7.347656 4.097656 7.367188 4.039062 7.386719 3.984375 C 7.394531 3.957031 7.402344 3.933594 7.410156 3.90625 C 7.488281 3.71875 7.683594 3.769531 7.855469 3.769531 Z M 6.4375 6.25 C 6.414062 6.269531 6.390625 6.289062 6.367188 6.308594 C 5.929688 6.710938 5.699219 7.300781 5.648438 7.882812 C 5.628906 8.515625 5.839844 9.085938 6.25 9.5625 C 6.277344 9.597656 6.277344 9.597656 6.308594 9.632812 C 6.714844 10.070312 7.304688 10.304688 7.890625 10.351562 C 8.523438 10.367188 9.085938 10.160156 9.5625 9.75 C 9.585938 9.730469 9.609375 9.710938 9.632812 9.691406 C 10.082031 9.277344 10.296875 8.6875 10.351562 8.089844 C 10.371094 7.46875 10.148438 6.902344 9.75 6.4375 C 9.730469 6.414062 9.710938 6.390625 9.691406 6.367188 C 9.285156 5.929688 8.695312 5.695312 8.109375 5.648438 C 7.476562 5.632812 6.914062 5.839844 6.4375 6.25 Z M 6.4375 6.25 "/>
<path style=" stroke:none;fill-rule:nonzero;fill:rgb(27.450982%,40.784314%,100%);fill-opacity:1;" d="M 5.15625 1.90625 C 5.226562 1.964844 5.226562 1.964844 5.304688 2.042969 C 5.332031 2.070312 5.359375 2.097656 5.390625 2.128906 C 5.417969 2.15625 5.445312 2.1875 5.476562 2.21875 C 5.507812 2.246094 5.535156 2.277344 5.566406 2.304688 C 5.78125 2.523438 5.78125 2.523438 5.78125 2.59375 C 5.765625 2.601562 5.746094 2.609375 5.730469 2.617188 C 5.132812 2.890625 4.621094 3.199219 4.125 3.625 C 4.078125 3.664062 4.078125 3.664062 4.03125 3.703125 C 3.871094 3.84375 3.730469 3.992188 3.59375 4.15625 C 3.582031 4.171875 3.566406 4.1875 3.554688 4.203125 C 2.617188 5.3125 2.257812 6.578125 2.125 8 C 2.433594 8 2.742188 8 3.0625 8 C 2.851562 8.246094 2.851562 8.246094 2.746094 8.351562 C 2.722656 8.375 2.695312 8.398438 2.671875 8.425781 C 2.648438 8.449219 2.621094 8.472656 2.597656 8.5 C 2.570312 8.527344 2.542969 8.550781 2.519531 8.578125 C 2.433594 8.660156 2.351562 8.742188 2.269531 8.828125 C 2.214844 8.882812 2.15625 8.9375 2.101562 8.996094 C 1.964844 9.132812 1.824219 9.269531 1.6875 9.40625 C 1.578125 9.359375 1.511719 9.300781 1.429688 9.214844 C 1.402344 9.191406 1.375 9.164062 1.347656 9.136719 C 1.320312 9.109375 1.292969 9.082031 1.261719 9.050781 C 1.21875 9.007812 1.21875 9.007812 1.175781 8.964844 C 1.113281 8.902344 1.054688 8.839844 0.992188 8.78125 C 0.914062 8.699219 0.835938 8.621094 0.757812 8.542969 C 0.683594 8.46875 0.605469 8.394531 0.53125 8.320312 C 0.492188 8.277344 0.492188 8.277344 0.445312 8.234375 C 0.421875 8.207031 0.394531 8.179688 0.367188 8.152344 C 0.34375 8.132812 0.324219 8.109375 0.300781 8.085938 C 0.25 8.03125 0.25 8.03125 0.25 8 C 0.570312 8 0.890625 8 1.21875 8 C 1.21875 7.933594 1.214844 7.867188 1.210938 7.796875 C 1.199219 6.035156 2.027344 4.375 3.234375 3.132812 C 3.386719 2.984375 3.550781 2.851562 3.71875 2.71875 C 3.75 2.695312 3.78125 2.667969 3.8125 2.644531 C 4.085938 2.421875 4.382812 2.242188 4.6875 2.0625 C 4.714844 2.046875 4.714844 2.046875 4.742188 2.027344 C 4.792969 2 4.839844 1.972656 4.886719 1.945312 C 4.925781 1.921875 4.925781 1.921875 4.964844 1.902344 C 5.046875 1.867188 5.074219 1.875 5.15625 1.90625 Z M 5.15625 1.90625 "/>
<path style=" stroke:none;fill-rule:nonzero;fill:rgb(23.529412%,45.882353%,100%);fill-opacity:1;" d="M 2.59375 10.21875 C 2.601562 10.238281 2.609375 10.257812 2.621094 10.277344 C 2.800781 10.675781 2.988281 11.054688 3.25 11.40625 C 3.265625 11.425781 3.277344 11.445312 3.292969 11.460938 C 3.550781 11.804688 3.824219 12.132812 4.15625 12.40625 C 4.171875 12.421875 4.1875 12.433594 4.207031 12.449219 C 4.46875 12.667969 4.734375 12.863281 5.03125 13.03125 C 5.054688 13.042969 5.074219 13.058594 5.097656 13.070312 C 6.011719 13.597656 6.964844 13.773438 8 13.875 C 8 13.566406 8 13.257812 8 12.9375 C 8.246094 13.148438 8.246094 13.148438 8.351562 13.253906 C 8.375 13.277344 8.398438 13.304688 8.425781 13.328125 C 8.449219 13.351562 8.472656 13.378906 8.5 13.402344 C 8.527344 13.429688 8.550781 13.457031 8.578125 13.480469 C 8.660156 13.566406 8.742188 13.648438 8.828125 13.730469 C 8.882812 13.785156 8.9375 13.84375 8.996094 13.898438 C 9.132812 14.035156 9.269531 14.175781 9.40625 14.3125 C 9.359375 14.421875 9.300781 14.488281 9.214844 14.570312 C 9.191406 14.597656 9.164062 14.625 9.136719 14.652344 C 9.09375 14.695312 9.09375 14.695312 9.050781 14.738281 C 9.023438 14.765625 8.992188 14.792969 8.964844 14.824219 C 8.902344 14.886719 8.839844 14.945312 8.78125 15.007812 C 8.699219 15.085938 8.621094 15.164062 8.542969 15.242188 C 8.46875 15.316406 8.394531 15.394531 8.320312 15.46875 C 8.289062 15.496094 8.261719 15.523438 8.234375 15.554688 C 8.207031 15.578125 8.179688 15.605469 8.152344 15.632812 C 8.132812 15.65625 8.109375 15.675781 8.085938 15.699219 C 8.03125 15.75 8.03125 15.75 8 15.75 C 8 15.429688 8 15.109375 8 14.78125 C 7.933594 14.78125 7.867188 14.785156 7.796875 14.789062 C 6.328125 14.800781 4.84375 14.210938 3.71875 13.28125 C 3.691406 13.257812 3.691406 13.257812 3.664062 13.234375 C 3.3125 12.945312 3 12.640625 2.71875 12.28125 C 2.695312 12.25 2.667969 12.21875 2.644531 12.1875 C 2.421875 11.914062 2.242188 11.617188 2.0625 11.3125 C 2.050781 11.292969 2.039062 11.273438 2.027344 11.257812 C 2 11.207031 1.972656 11.160156 1.945312 11.113281 C 1.929688 11.089844 1.914062 11.0625 1.902344 11.035156 C 1.867188 10.953125 1.875 10.925781 1.90625 10.84375 C 1.964844 10.773438 1.964844 10.773438 2.042969 10.695312 C 2.085938 10.652344 2.085938 10.652344 2.128906 10.609375 C 2.15625 10.582031 2.1875 10.554688 2.21875 10.523438 C 2.246094 10.492188 2.277344 10.464844 2.304688 10.433594 C 2.523438 10.21875 2.523438 10.21875 2.59375 10.21875 Z M 2.59375 10.21875 "/>
<path style=" stroke:none;fill-rule:nonzero;fill:rgb(9.019608%,63.529414%,100%);fill-opacity:1;" d="M 14.3125 6.59375 C 14.421875 6.640625 14.488281 6.699219 14.570312 6.785156 C 14.597656 6.808594 14.625 6.835938 14.652344 6.863281 C 14.695312 6.90625 14.695312 6.90625 14.738281 6.949219 C 14.765625 6.976562 14.792969 7.007812 14.824219 7.035156 C 14.886719 7.097656 14.945312 7.160156 15.007812 7.21875 C 15.085938 7.300781 15.164062 7.378906 15.242188 7.457031 C 15.316406 7.53125 15.394531 7.605469 15.46875 7.679688 C 15.507812 7.722656 15.507812 7.722656 15.554688 7.765625 C 15.578125 7.792969 15.605469 7.820312 15.632812 7.847656 C 15.65625 7.867188 15.675781 7.890625 15.699219 7.914062 C 15.75 7.96875 15.75 7.96875 15.75 8 C 15.429688 8 15.109375 8 14.78125 8 C 14.78125 8.066406 14.785156 8.132812 14.789062 8.203125 C 14.800781 9.773438 14.128906 11.382812 13.0625 12.527344 C 13.003906 12.585938 12.953125 12.652344 12.898438 12.714844 C 12.453125 13.222656 11.890625 13.597656 11.3125 13.9375 C 11.292969 13.949219 11.277344 13.960938 11.257812 13.972656 C 10.996094 14.128906 10.996094 14.128906 10.910156 14.121094 C 10.816406 14.082031 10.765625 14.027344 10.695312 13.957031 C 10.667969 13.929688 10.640625 13.902344 10.609375 13.871094 C 10.582031 13.84375 10.554688 13.8125 10.523438 13.78125 C 10.492188 13.753906 10.464844 13.722656 10.433594 13.695312 C 10.21875 13.476562 10.21875 13.476562 10.21875 13.40625 C 10.238281 13.398438 10.257812 13.390625 10.277344 13.378906 C 10.675781 13.199219 11.054688 13.011719 11.40625 12.75 C 11.425781 12.734375 11.445312 12.722656 11.460938 12.707031 C 11.804688 12.449219 12.132812 12.175781 12.40625 11.84375 C 12.421875 11.828125 12.433594 11.8125 12.449219 11.792969 C 12.667969 11.53125 12.863281 11.265625 13.03125 10.96875 C 13.042969 10.945312 13.058594 10.921875 13.070312 10.898438 C 13.53125 10.078125 13.785156 9.199219 13.835938 8.257812 C 13.84375 8.15625 13.84375 8.15625 13.875 8 C 13.566406 8 13.257812 8 12.9375 8 C 13.148438 7.753906 13.148438 7.753906 13.253906 7.648438 C 13.277344 7.625 13.304688 7.601562 13.328125 7.574219 C 13.351562 7.550781 13.378906 7.527344 13.402344 7.5 C 13.429688 7.472656 13.457031 7.449219 13.480469 7.421875 C 13.566406 7.339844 13.648438 7.257812 13.730469 7.171875 C 13.785156 7.117188 13.84375 7.0625 13.898438 7.003906 C 14.035156 6.867188 14.175781 6.730469 14.3125 6.59375 Z M 14.3125 6.59375 "/>
<path style=" stroke:none;fill-rule:nonzero;fill:rgb(14.901961%,56.078434%,100%);fill-opacity:1;" d="M 8 0.25 C 8 0.570312 8 0.890625 8 1.21875 C 8.101562 1.214844 8.101562 1.214844 8.203125 1.210938 C 9.671875 1.199219 11.15625 1.789062 12.28125 2.71875 C 12.308594 2.742188 12.308594 2.742188 12.335938 2.765625 C 12.6875 3.054688 13 3.359375 13.28125 3.71875 C 13.304688 3.75 13.332031 3.78125 13.355469 3.8125 C 13.578125 4.085938 13.757812 4.382812 13.9375 4.6875 C 13.949219 4.707031 13.960938 4.726562 13.972656 4.742188 C 14 4.792969 14.027344 4.839844 14.054688 4.886719 C 14.070312 4.910156 14.085938 4.9375 14.097656 4.964844 C 14.132812 5.046875 14.125 5.074219 14.09375 5.15625 C 14.035156 5.226562 14.035156 5.226562 13.957031 5.304688 C 13.914062 5.347656 13.914062 5.347656 13.871094 5.390625 C 13.84375 5.417969 13.8125 5.445312 13.78125 5.476562 C 13.753906 5.507812 13.722656 5.535156 13.695312 5.566406 C 13.476562 5.78125 13.476562 5.78125 13.40625 5.78125 C 13.398438 5.765625 13.390625 5.746094 13.382812 5.730469 C 13.109375 5.132812 12.800781 4.621094 12.375 4.125 C 12.347656 4.09375 12.324219 4.0625 12.296875 4.03125 C 12.15625 3.871094 12.007812 3.730469 11.84375 3.59375 C 11.828125 3.582031 11.8125 3.566406 11.796875 3.554688 C 10.683594 2.613281 9.421875 2.265625 8 2.125 C 8 2.433594 8 2.742188 8 3.0625 C 7.753906 2.851562 7.753906 2.851562 7.648438 2.746094 C 7.625 2.722656 7.601562 2.695312 7.574219 2.671875 C 7.550781 2.648438 7.527344 2.621094 7.5 2.597656 C 7.472656 2.570312 7.449219 2.542969 7.421875 2.519531 C 7.339844 2.433594 7.257812 2.351562 7.171875 2.269531 C 7.117188 2.214844 7.0625 2.15625 7.003906 2.101562 C 6.867188 1.964844 6.730469 1.824219 6.59375 1.6875 C 6.640625 1.578125 6.699219 1.511719 6.785156 1.429688 C 6.808594 1.402344 6.835938 1.375 6.863281 1.347656 C 6.890625 1.320312 6.917969 1.292969 6.949219 1.261719 C 6.976562 1.234375 7.007812 1.207031 7.035156 1.175781 C 7.097656 1.113281 7.160156 1.054688 7.21875 0.992188 C 7.300781 0.914062 7.378906 0.835938 7.457031 0.757812 C 7.53125 0.683594 7.605469 0.605469 7.679688 0.53125 C 7.710938 0.503906 7.738281 0.476562 7.765625 0.445312 C 7.804688 0.40625 7.804688 0.40625 7.847656 0.367188 C 7.867188 0.34375 7.890625 0.324219 7.914062 0.300781 C 7.96875 0.25 7.96875 0.25 8 0.25 Z M 8 0.25 "/>
<path style=" stroke:none;fill-rule:nonzero;fill:rgb(17.254902%,53.333336%,100%);fill-opacity:1;" d="M 9.125 7 C 9.203125 7.050781 9.265625 7.113281 9.328125 7.179688 C 9.347656 7.199219 9.367188 7.214844 9.386719 7.234375 C 9.425781 7.273438 9.460938 7.3125 9.5 7.351562 C 9.558594 7.410156 9.617188 7.46875 9.675781 7.527344 C 9.714844 7.5625 9.75 7.601562 9.789062 7.640625 C 9.804688 7.65625 9.824219 7.671875 9.84375 7.691406 C 9.953125 7.808594 10.003906 7.894531 10 8.0625 C 9.941406 8.199219 9.835938 8.300781 9.734375 8.402344 C 9.707031 8.429688 9.707031 8.429688 9.683594 8.457031 C 9.648438 8.492188 9.613281 8.527344 9.578125 8.5625 C 9.523438 8.617188 9.46875 8.671875 9.417969 8.726562 C 9.382812 8.761719 9.347656 8.796875 9.3125 8.832031 C 9.296875 8.847656 9.28125 8.863281 9.265625 8.882812 C 9.152344 8.992188 9.066406 9.027344 8.90625 9.03125 C 8.8125 8.988281 8.765625 8.964844 8.71875 8.875 C 8.699219 8.773438 8.691406 8.722656 8.71875 8.625 C 8.804688 8.507812 8.910156 8.410156 9.015625 8.3125 C 9.042969 8.285156 9.070312 8.257812 9.101562 8.230469 C 9.171875 8.164062 9.242188 8.097656 9.3125 8.03125 C 9.265625 7.925781 9.210938 7.863281 9.128906 7.785156 C 9.105469 7.765625 9.082031 7.742188 9.054688 7.71875 C 9.003906 7.671875 8.957031 7.625 8.90625 7.578125 C 8.726562 7.410156 8.726562 7.410156 8.699219 7.304688 C 8.699219 7.207031 8.714844 7.136719 8.757812 7.046875 C 8.875 6.941406 8.984375 6.964844 9.125 7 Z M 9.125 7 "/>
<path style=" stroke:none;fill-rule:nonzero;fill:rgb(21.960784%,47.843137%,100%);fill-opacity:1;" d="M 7.15625 7 C 7.230469 7.046875 7.230469 7.046875 7.28125 7.125 C 7.300781 7.230469 7.308594 7.277344 7.28125 7.375 C 7.195312 7.492188 7.089844 7.589844 6.984375 7.6875 C 6.957031 7.714844 6.929688 7.742188 6.898438 7.769531 C 6.828125 7.835938 6.757812 7.902344 6.6875 7.96875 C 6.734375 8.074219 6.789062 8.136719 6.871094 8.214844 C 6.894531 8.234375 6.917969 8.257812 6.945312 8.28125 C 6.996094 8.328125 7.042969 8.375 7.09375 8.421875 C 7.273438 8.589844 7.273438 8.589844 7.300781 8.695312 C 7.300781 8.800781 7.289062 8.863281 7.230469 8.953125 C 7.136719 9.011719 7.078125 9.027344 6.96875 9.03125 C 6.835938 8.964844 6.734375 8.867188 6.628906 8.765625 C 6.609375 8.75 6.59375 8.730469 6.574219 8.714844 C 6.539062 8.679688 6.503906 8.644531 6.46875 8.609375 C 6.414062 8.554688 6.359375 8.5 6.304688 8.449219 C 6.269531 8.414062 6.234375 8.378906 6.199219 8.34375 C 6.183594 8.328125 6.167969 8.3125 6.148438 8.296875 C 6.070312 8.214844 6.03125 8.15625 6 8.042969 C 6 7.839844 6.132812 7.734375 6.269531 7.597656 C 6.289062 7.578125 6.304688 7.5625 6.320312 7.542969 C 6.359375 7.507812 6.394531 7.472656 6.429688 7.4375 C 6.484375 7.382812 6.539062 7.328125 6.59375 7.273438 C 6.628906 7.238281 6.664062 7.203125 6.699219 7.167969 C 6.714844 7.152344 6.730469 7.136719 6.746094 7.117188 C 6.886719 6.984375 6.964844 6.949219 7.15625 7 Z M 7.15625 7 "/>
<path style=" stroke:none;fill-rule:nonzero;fill:rgb(20%,50.588238%,100%);fill-opacity:1;" d="M 8.40625 6.875 C 8.5 6.9375 8.5 6.9375 8.5625 7.03125 C 8.589844 7.246094 8.507812 7.433594 8.4375 7.636719 C 8.421875 7.671875 8.410156 7.707031 8.398438 7.746094 C 8.363281 7.84375 8.328125 7.941406 8.292969 8.039062 C 8.257812 8.136719 8.222656 8.234375 8.1875 8.335938 C 8.160156 8.410156 8.132812 8.484375 8.109375 8.5625 C 8.09375 8.597656 8.082031 8.632812 8.070312 8.667969 C 8.058594 8.703125 8.046875 8.734375 8.035156 8.769531 C 8.023438 8.796875 8.011719 8.828125 8.003906 8.855469 C 7.910156 9.074219 7.910156 9.074219 7.8125 9.125 C 7.675781 9.140625 7.613281 9.140625 7.5 9.0625 C 7.425781 8.949219 7.417969 8.878906 7.4375 8.75 C 7.472656 8.621094 7.519531 8.492188 7.5625 8.363281 C 7.578125 8.328125 7.589844 8.292969 7.601562 8.253906 C 7.636719 8.15625 7.671875 8.058594 7.707031 7.960938 C 7.742188 7.863281 7.777344 7.765625 7.8125 7.664062 C 7.839844 7.589844 7.867188 7.515625 7.890625 7.4375 C 7.910156 7.386719 7.910156 7.386719 7.929688 7.332031 C 7.941406 7.296875 7.953125 7.265625 7.964844 7.230469 C 7.976562 7.203125 7.988281 7.171875 7.996094 7.144531 C 8.089844 6.917969 8.15625 6.847656 8.40625 6.875 Z M 8.40625 6.875 "/>
</g>
</svg>
