<?xml version="1.0" encoding="UTF-8"?>
<svg xmlns="http://www.w3.org/2000/svg" xmlns:xlink="http://www.w3.org/1999/xlink" viewBox="0 0 16 16" version="1.1">
<g id="surface1">
<path style=" stroke:none;fill-rule:nonzero;fill:rgb(1.960784%,74.901962%,31.37255%);fill-opacity:1;" d="M 13.253906 3.957031 C 13.289062 3.957031 13.328125 3.957031 13.367188 3.957031 C 13.449219 3.957031 13.53125 3.957031 13.613281 3.957031 C 13.734375 3.957031 13.859375 3.957031 13.984375 3.957031 C 14.0625 3.957031 14.140625 3.957031 14.222656 3.957031 C 14.257812 3.957031 14.292969 3.957031 14.332031 3.957031 C 14.574219 3.957031 14.75 3.988281 14.960938 4.117188 C 15.15625 4.316406 15.175781 4.523438 15.171875 4.792969 C 15.171875 4.847656 15.171875 4.847656 15.171875 4.902344 C 15.171875 5.019531 15.171875 5.136719 15.171875 5.257812 C 15.171875 5.339844 15.175781 5.425781 15.175781 5.511719 C 15.175781 5.695312 15.175781 5.878906 15.175781 6.0625 C 15.175781 6.328125 15.175781 6.59375 15.175781 6.859375 C 15.179688 7.296875 15.179688 7.730469 15.179688 8.167969 C 15.179688 8.585938 15.179688 9.003906 15.179688 9.421875 C 15.179688 9.449219 15.179688 9.472656 15.179688 9.5 C 15.179688 9.628906 15.183594 9.757812 15.183594 9.886719 C 15.1875 11.609375 15.1875 13.335938 15.1875 15.0625 C 15.222656 15.0625 15.261719 15.058594 15.296875 15.058594 C 15.34375 15.058594 15.394531 15.054688 15.441406 15.054688 C 15.464844 15.054688 15.488281 15.050781 15.511719 15.050781 C 15.679688 15.046875 15.773438 15.078125 15.90625 15.1875 C 16.019531 15.3125 16.015625 15.445312 16.011719 15.605469 C 15.996094 15.722656 15.957031 15.789062 15.875 15.875 C 15.738281 15.957031 15.640625 15.980469 15.484375 15.980469 C 15.445312 15.980469 15.402344 15.980469 15.363281 15.980469 C 15.316406 15.980469 15.273438 15.980469 15.230469 15.980469 C 15.179688 15.980469 15.132812 15.980469 15.085938 15.980469 C 14.953125 15.980469 14.824219 15.980469 14.691406 15.980469 C 14.550781 15.980469 14.410156 15.984375 14.269531 15.984375 C 14.023438 15.984375 13.777344 15.984375 13.53125 15.984375 C 13.171875 15.984375 12.816406 15.984375 12.457031 15.984375 C 11.871094 15.988281 11.28125 15.988281 10.695312 15.988281 C 10.132812 15.988281 9.574219 15.992188 9.011719 15.992188 C 8.976562 15.992188 8.941406 15.992188 8.90625 15.992188 C 8.734375 15.992188 8.5625 15.992188 8.390625 15.992188 C 7.207031 15.996094 6.019531 15.996094 4.832031 16 C 4.125 16 3.417969 16 2.710938 16.003906 C 2.457031 16.003906 2.203125 16.003906 1.949219 16.003906 C 1.746094 16.003906 1.546875 16.003906 1.34375 16.003906 C 1.226562 16.007812 1.109375 16.007812 0.988281 16.007812 C 0.9375 16.007812 0.886719 16.007812 0.832031 16.007812 C 0.761719 16.007812 0.695312 16.007812 0.625 16.007812 C 0.585938 16.007812 0.546875 16.007812 0.507812 16.007812 C 0.324219 15.992188 0.195312 15.9375 0.0625 15.8125 C -0.0273438 15.667969 -0.0273438 15.511719 0 15.34375 C 0.0820312 15.191406 0.183594 15.113281 0.34375 15.0625 C 0.425781 15.058594 0.503906 15.054688 0.589844 15.058594 C 0.609375 15.058594 0.632812 15.058594 0.652344 15.058594 C 0.707031 15.058594 0.757812 15.0625 0.8125 15.0625 C 0.8125 15.035156 0.8125 15.003906 0.8125 14.972656 C 0.808594 14.265625 0.808594 13.558594 0.808594 12.851562 C 0.808594 12.507812 0.804688 12.167969 0.804688 11.824219 C 0.804688 11.527344 0.804688 11.226562 0.804688 10.929688 C 0.804688 10.769531 0.804688 10.613281 0.800781 10.453125 C 0.800781 10.304688 0.800781 10.15625 0.800781 10.007812 C 0.800781 9.953125 0.800781 9.898438 0.800781 9.84375 C 0.800781 9.769531 0.800781 9.695312 0.800781 9.621094 C 0.800781 9.597656 0.800781 9.578125 0.800781 9.554688 C 0.800781 9.359375 0.851562 9.191406 0.976562 9.039062 C 1.226562 8.835938 1.429688 8.824219 1.746094 8.828125 C 1.789062 8.828125 1.828125 8.828125 1.871094 8.828125 C 1.960938 8.828125 2.046875 8.828125 2.132812 8.828125 C 2.246094 8.828125 2.355469 8.828125 2.46875 8.828125 C 2.554688 8.828125 2.640625 8.828125 2.726562 8.828125 C 2.789062 8.832031 2.847656 8.828125 2.910156 8.828125 C 3.160156 8.832031 3.328125 8.84375 3.523438 9.011719 C 3.660156 9.171875 3.722656 9.300781 3.726562 9.507812 C 3.726562 9.535156 3.726562 9.5625 3.726562 9.589844 C 3.726562 9.617188 3.726562 9.644531 3.730469 9.675781 C 3.730469 9.71875 3.730469 9.71875 3.730469 9.761719 C 3.734375 9.855469 3.734375 9.945312 3.738281 10.039062 C 3.738281 10.101562 3.738281 10.164062 3.742188 10.226562 C 3.742188 10.378906 3.746094 10.535156 3.75 10.6875 C 3.78125 10.644531 3.78125 10.644531 3.8125 10.601562 C 3.9375 10.449219 4.089844 10.386719 4.285156 10.363281 C 4.398438 10.359375 4.511719 10.359375 4.625 10.359375 C 4.664062 10.359375 4.707031 10.359375 4.75 10.359375 C 4.835938 10.359375 4.921875 10.359375 5.007812 10.359375 C 5.121094 10.359375 5.230469 10.359375 5.34375 10.359375 C 5.429688 10.359375 5.515625 10.359375 5.601562 10.359375 C 5.660156 10.359375 5.722656 10.359375 5.78125 10.359375 C 5.996094 10.359375 6.167969 10.367188 6.34375 10.5 C 6.378906 10.535156 6.410156 10.574219 6.445312 10.613281 C 6.46875 10.644531 6.46875 10.644531 6.492188 10.671875 C 6.507812 10.6875 6.519531 10.703125 6.53125 10.71875 C 6.53125 10.660156 6.53125 10.660156 6.53125 10.597656 C 6.527344 10.222656 6.527344 9.851562 6.527344 9.476562 C 6.527344 9.285156 6.523438 9.089844 6.523438 8.898438 C 6.523438 8.714844 6.523438 8.527344 6.523438 8.339844 C 6.523438 8.269531 6.523438 8.199219 6.519531 8.128906 C 6.519531 8.03125 6.519531 7.929688 6.519531 7.832031 C 6.519531 7.800781 6.519531 7.773438 6.519531 7.742188 C 6.519531 7.523438 6.546875 7.292969 6.683594 7.109375 C 6.703125 7.09375 6.726562 7.078125 6.746094 7.0625 C 6.765625 7.046875 6.789062 7.027344 6.808594 7.011719 C 6.945312 6.921875 7.0625 6.898438 7.222656 6.898438 C 7.261719 6.898438 7.296875 6.894531 7.339844 6.894531 C 7.378906 6.894531 7.417969 6.894531 7.460938 6.894531 C 7.503906 6.894531 7.546875 6.894531 7.589844 6.894531 C 7.679688 6.894531 7.769531 6.894531 7.855469 6.894531 C 7.972656 6.894531 8.085938 6.894531 8.199219 6.894531 C 8.285156 6.890625 8.375 6.890625 8.460938 6.890625 C 8.523438 6.890625 8.585938 6.890625 8.648438 6.890625 C 8.902344 6.890625 9.09375 6.910156 9.28125 7.09375 C 9.296875 7.113281 9.3125 7.136719 9.328125 7.15625 C 9.339844 7.175781 9.355469 7.199219 9.371094 7.21875 C 9.429688 7.324219 9.441406 7.421875 9.445312 7.539062 C 9.445312 7.566406 9.445312 7.59375 9.445312 7.621094 C 9.445312 7.664062 9.445312 7.664062 9.449219 7.707031 C 9.449219 7.734375 9.449219 7.761719 9.449219 7.792969 C 9.453125 7.886719 9.453125 7.976562 9.453125 8.070312 C 9.457031 8.132812 9.457031 8.195312 9.460938 8.257812 C 9.460938 8.410156 9.464844 8.566406 9.46875 8.71875 C 9.488281 8.675781 9.488281 8.675781 9.511719 8.632812 C 9.609375 8.492188 9.746094 8.425781 9.90625 8.375 C 10.050781 8.355469 10.195312 8.351562 10.34375 8.355469 C 10.382812 8.355469 10.425781 8.355469 10.46875 8.355469 C 10.554688 8.355469 10.640625 8.355469 10.726562 8.355469 C 10.835938 8.355469 10.949219 8.355469 11.058594 8.355469 C 11.164062 8.351562 11.269531 8.355469 11.375 8.355469 C 11.414062 8.355469 11.453125 8.355469 11.496094 8.351562 C 11.730469 8.355469 11.933594 8.378906 12.125 8.53125 C 12.167969 8.59375 12.210938 8.65625 12.25 8.71875 C 12.25 8.6875 12.25 8.6875 12.25 8.652344 C 12.25 8.121094 12.253906 7.589844 12.253906 7.058594 C 12.257812 6.800781 12.257812 6.542969 12.257812 6.285156 C 12.257812 6.0625 12.257812 5.835938 12.261719 5.613281 C 12.261719 5.496094 12.261719 5.375 12.261719 5.257812 C 12.261719 5.144531 12.261719 5.03125 12.265625 4.921875 C 12.265625 4.859375 12.265625 4.800781 12.265625 4.742188 C 12.265625 4.484375 12.292969 4.304688 12.476562 4.117188 C 12.722656 3.964844 12.96875 3.953125 13.253906 3.957031 Z M 13.253906 3.957031 "/>
<path style=" stroke:none;fill-rule:nonzero;fill:rgb(95.294118%,25.882354%,12.54902%);fill-opacity:1;" d="M 13.253906 3.957031 C 13.289062 3.957031 13.328125 3.957031 13.367188 3.957031 C 13.449219 3.957031 13.53125 3.957031 13.613281 3.957031 C 13.734375 3.957031 13.859375 3.957031 13.984375 3.957031 C 14.0625 3.957031 14.140625 3.957031 14.222656 3.957031 C 14.257812 3.957031 14.292969 3.957031 14.332031 3.957031 C 14.574219 3.957031 14.75 3.988281 14.960938 4.117188 C 15.15625 4.316406 15.175781 4.523438 15.171875 4.792969 C 15.171875 4.847656 15.171875 4.847656 15.171875 4.902344 C 15.171875 5.019531 15.171875 5.136719 15.171875 5.257812 C 15.171875 5.339844 15.175781 5.425781 15.175781 5.511719 C 15.175781 5.695312 15.175781 5.878906 15.175781 6.0625 C 15.175781 6.328125 15.175781 6.59375 15.175781 6.859375 C 15.179688 7.296875 15.179688 7.730469 15.179688 8.167969 C 15.179688 8.585938 15.179688 9.003906 15.179688 9.421875 C 15.179688 9.460938 15.179688 9.460938 15.179688 9.5 C 15.179688 9.628906 15.183594 9.757812 15.183594 9.886719 C 15.183594 10.679688 15.1875 11.476562 15.1875 12.273438 C 15.1875 12.332031 15.1875 12.394531 15.1875 12.453125 C 15.1875 13.324219 15.1875 14.191406 15.1875 15.0625 C 13.289062 15.0625 11.390625 15.0625 9.4375 15.0625 C 9.429688 13.496094 9.429688 13.496094 9.429688 12.84375 C 9.429688 12.390625 9.429688 11.9375 9.425781 11.484375 C 9.425781 11.152344 9.421875 10.824219 9.421875 10.496094 C 9.421875 10.320312 9.421875 10.144531 9.421875 9.972656 C 9.417969 9.804688 9.417969 9.640625 9.417969 9.476562 C 9.417969 9.417969 9.417969 9.355469 9.417969 9.296875 C 9.417969 9.214844 9.417969 9.132812 9.417969 9.050781 C 9.417969 9.027344 9.417969 9.003906 9.417969 8.976562 C 9.417969 8.796875 9.480469 8.671875 9.59375 8.53125 C 9.808594 8.347656 10.074219 8.351562 10.34375 8.355469 C 10.382812 8.355469 10.425781 8.355469 10.46875 8.355469 C 10.554688 8.355469 10.640625 8.355469 10.726562 8.355469 C 10.835938 8.355469 10.949219 8.355469 11.058594 8.355469 C 11.164062 8.351562 11.269531 8.355469 11.375 8.355469 C 11.414062 8.355469 11.453125 8.355469 11.496094 8.351562 C 11.730469 8.355469 11.933594 8.378906 12.125 8.53125 C 12.167969 8.59375 12.210938 8.65625 12.25 8.71875 C 12.25 8.695312 12.25 8.675781 12.25 8.652344 C 12.25 8.121094 12.253906 7.589844 12.253906 7.058594 C 12.257812 6.800781 12.257812 6.542969 12.257812 6.285156 C 12.257812 6.0625 12.257812 5.835938 12.261719 5.613281 C 12.261719 5.496094 12.261719 5.375 12.261719 5.257812 C 12.261719 5.144531 12.261719 5.03125 12.265625 4.921875 C 12.265625 4.859375 12.265625 4.800781 12.265625 4.742188 C 12.265625 4.484375 12.292969 4.304688 12.476562 4.117188 C 12.722656 3.964844 12.96875 3.953125 13.253906 3.957031 Z M 13.253906 3.957031 "/>
<path style=" stroke:none;fill-rule:nonzero;fill:rgb(99.215686%,59.607846%,0%);fill-opacity:1;" d="M 10.34375 8.355469 C 10.382812 8.355469 10.425781 8.355469 10.46875 8.355469 C 10.554688 8.355469 10.640625 8.355469 10.726562 8.355469 C 10.835938 8.355469 10.949219 8.355469 11.058594 8.355469 C 11.164062 8.351562 11.269531 8.355469 11.375 8.355469 C 11.414062 8.355469 11.453125 8.355469 11.496094 8.351562 C 11.726562 8.355469 11.941406 8.375 12.125 8.53125 C 12.257812 8.699219 12.304688 8.835938 12.300781 9.050781 C 12.300781 9.074219 12.300781 9.101562 12.300781 9.128906 C 12.300781 9.214844 12.300781 9.300781 12.300781 9.386719 C 12.300781 9.449219 12.300781 9.511719 12.300781 9.570312 C 12.300781 9.738281 12.296875 9.90625 12.296875 10.074219 C 12.296875 10.25 12.296875 10.425781 12.296875 10.601562 C 12.296875 10.933594 12.292969 11.265625 12.292969 11.597656 C 12.289062 12.046875 12.289062 12.492188 12.289062 12.941406 C 12.289062 13.648438 12.285156 14.355469 12.28125 15.0625 C 11.34375 15.0625 10.40625 15.0625 9.4375 15.0625 C 9.429688 13.496094 9.429688 13.496094 9.429688 12.84375 C 9.429688 12.390625 9.429688 11.9375 9.425781 11.484375 C 9.425781 11.152344 9.421875 10.824219 9.421875 10.496094 C 9.421875 10.320312 9.421875 10.144531 9.421875 9.972656 C 9.417969 9.804688 9.417969 9.640625 9.417969 9.476562 C 9.417969 9.417969 9.417969 9.355469 9.417969 9.296875 C 9.417969 9.214844 9.417969 9.132812 9.417969 9.050781 C 9.417969 9.027344 9.417969 9.003906 9.417969 8.976562 C 9.417969 8.796875 9.480469 8.671875 9.59375 8.53125 C 9.808594 8.347656 10.074219 8.351562 10.34375 8.355469 Z M 10.34375 8.355469 "/>
<path style=" stroke:none;fill-rule:nonzero;fill:rgb(27.843139%,32.156864%,37.254903%);fill-opacity:1;" d="M 1.746094 8.828125 C 1.789062 8.828125 1.828125 8.828125 1.871094 8.828125 C 1.960938 8.828125 2.046875 8.828125 2.132812 8.828125 C 2.246094 8.828125 2.355469 8.828125 2.46875 8.828125 C 2.554688 8.828125 2.640625 8.828125 2.726562 8.828125 C 2.789062 8.832031 2.847656 8.828125 2.910156 8.828125 C 3.160156 8.832031 3.328125 8.84375 3.523438 9.011719 C 3.699219 9.214844 3.722656 9.375 3.722656 9.636719 C 3.722656 9.664062 3.722656 9.691406 3.722656 9.71875 C 3.722656 9.8125 3.722656 9.902344 3.722656 9.996094 C 3.722656 10.0625 3.722656 10.128906 3.722656 10.195312 C 3.71875 11.078125 3.710938 11.964844 3.703125 12.847656 C 3.703125 13.136719 3.699219 13.425781 3.699219 13.710938 C 3.695312 14.164062 3.691406 14.613281 3.6875 15.0625 C 2.738281 15.0625 1.789062 15.0625 0.8125 15.0625 C 0.808594 13.644531 0.808594 13.644531 0.808594 13.054688 C 0.808594 12.644531 0.808594 12.234375 0.804688 11.824219 C 0.804688 11.527344 0.804688 11.226562 0.804688 10.929688 C 0.804688 10.769531 0.804688 10.613281 0.800781 10.453125 C 0.800781 10.304688 0.800781 10.15625 0.800781 10.007812 C 0.800781 9.953125 0.800781 9.898438 0.800781 9.84375 C 0.800781 9.769531 0.800781 9.695312 0.800781 9.621094 C 0.800781 9.597656 0.800781 9.578125 0.800781 9.554688 C 0.800781 9.359375 0.851562 9.191406 0.976562 9.039062 C 1.226562 8.835938 1.429688 8.824219 1.746094 8.828125 Z M 1.746094 8.828125 "/>
<path style=" stroke:none;fill-rule:nonzero;fill:rgb(83.92157%,79.607844%,76.862746%);fill-opacity:1;" d="M 0.601562 15.054688 C 0.628906 15.054688 0.65625 15.054688 0.679688 15.054688 C 0.769531 15.054688 0.855469 15.054688 0.945312 15.054688 C 1.007812 15.054688 1.070312 15.054688 1.136719 15.054688 C 1.308594 15.054688 1.484375 15.054688 1.660156 15.054688 C 1.847656 15.054688 2.035156 15.054688 2.222656 15.054688 C 2.59375 15.050781 2.960938 15.050781 3.328125 15.050781 C 3.628906 15.050781 3.929688 15.050781 4.230469 15.050781 C 4.316406 15.050781 4.402344 15.050781 4.488281 15.050781 C 4.507812 15.050781 4.53125 15.050781 4.550781 15.050781 C 5.15625 15.050781 5.757812 15.050781 6.359375 15.050781 C 6.382812 15.050781 6.40625 15.050781 6.429688 15.050781 C 6.546875 15.050781 6.660156 15.050781 6.777344 15.050781 C 6.808594 15.050781 6.808594 15.050781 6.84375 15.050781 C 6.890625 15.050781 6.9375 15.050781 6.984375 15.050781 C 7.703125 15.050781 8.425781 15.050781 9.144531 15.050781 C 9.953125 15.046875 10.761719 15.046875 11.570312 15.046875 C 11.65625 15.046875 11.742188 15.046875 11.828125 15.046875 C 11.863281 15.046875 11.863281 15.046875 11.894531 15.046875 C 12.234375 15.046875 12.578125 15.046875 12.917969 15.046875 C 13.261719 15.046875 13.605469 15.046875 13.949219 15.046875 C 14.136719 15.046875 14.324219 15.046875 14.507812 15.046875 C 14.679688 15.046875 14.847656 15.046875 15.019531 15.046875 C 15.082031 15.046875 15.144531 15.046875 15.203125 15.046875 C 15.289062 15.046875 15.371094 15.046875 15.457031 15.046875 C 15.480469 15.046875 15.503906 15.046875 15.527344 15.046875 C 15.691406 15.046875 15.78125 15.085938 15.90625 15.1875 C 16.019531 15.3125 16.015625 15.445312 16.011719 15.605469 C 15.996094 15.722656 15.957031 15.789062 15.875 15.875 C 15.738281 15.957031 15.640625 15.980469 15.484375 15.980469 C 15.445312 15.980469 15.402344 15.980469 15.363281 15.980469 C 15.316406 15.980469 15.273438 15.980469 15.230469 15.980469 C 15.179688 15.980469 15.132812 15.980469 15.085938 15.980469 C 14.953125 15.980469 14.824219 15.980469 14.691406 15.980469 C 14.550781 15.980469 14.410156 15.984375 14.269531 15.984375 C 14.023438 15.984375 13.777344 15.984375 13.53125 15.984375 C 13.171875 15.984375 12.816406 15.984375 12.457031 15.984375 C 11.871094 15.988281 11.28125 15.988281 10.695312 15.988281 C 10.132812 15.988281 9.574219 15.992188 9.011719 15.992188 C 8.960938 15.992188 8.960938 15.992188 8.90625 15.992188 C 8.734375 15.992188 8.5625 15.992188 8.390625 15.992188 C 7.207031 15.996094 6.019531 15.996094 4.832031 16 C 4.125 16 3.417969 16 2.710938 16.003906 C 2.457031 16.003906 2.203125 16.003906 1.949219 16.003906 C 1.746094 16.003906 1.546875 16.003906 1.34375 16.003906 C 1.226562 16.007812 1.109375 16.007812 0.988281 16.007812 C 0.9375 16.007812 0.886719 16.007812 0.832031 16.007812 C 0.761719 16.007812 0.695312 16.007812 0.625 16.007812 C 0.585938 16.007812 0.546875 16.007812 0.507812 16.007812 C 0.324219 15.992188 0.195312 15.9375 0.0625 15.8125 C -0.0273438 15.667969 -0.0273438 15.511719 0 15.34375 C 0.132812 15.09375 0.335938 15.054688 0.601562 15.054688 Z M 0.601562 15.054688 "/>
<path style=" stroke:none;fill-rule:nonzero;fill:rgb(10.588235%,74.901962%,97.254902%);fill-opacity:1;" d="M 4.625 10.359375 C 4.664062 10.359375 4.707031 10.359375 4.75 10.359375 C 4.835938 10.359375 4.921875 10.359375 5.007812 10.359375 C 5.121094 10.359375 5.230469 10.359375 5.34375 10.359375 C 5.429688 10.359375 5.515625 10.359375 5.601562 10.359375 C 5.660156 10.359375 5.722656 10.359375 5.78125 10.359375 C 6.035156 10.359375 6.214844 10.382812 6.40625 10.558594 C 6.421875 10.574219 6.4375 10.59375 6.453125 10.609375 C 6.464844 10.628906 6.480469 10.648438 6.496094 10.667969 C 6.566406 10.769531 6.566406 10.863281 6.566406 10.984375 C 6.566406 11.039062 6.566406 11.039062 6.566406 11.09375 C 6.566406 11.152344 6.566406 11.152344 6.566406 11.214844 C 6.566406 11.253906 6.566406 11.296875 6.566406 11.339844 C 6.566406 11.453125 6.566406 11.566406 6.566406 11.679688 C 6.566406 11.800781 6.566406 11.917969 6.566406 12.035156 C 6.566406 12.261719 6.566406 12.488281 6.566406 12.710938 C 6.5625 13.015625 6.5625 13.320312 6.5625 13.625 C 6.5625 14.105469 6.5625 14.582031 6.5625 15.0625 C 5.613281 15.0625 4.664062 15.0625 3.6875 15.0625 C 3.683594 14.019531 3.683594 14.019531 3.683594 13.585938 C 3.683594 13.285156 3.683594 12.980469 3.679688 12.679688 C 3.679688 12.460938 3.679688 12.242188 3.679688 12.023438 C 3.679688 11.90625 3.679688 11.789062 3.675781 11.671875 C 3.675781 11.542969 3.675781 11.414062 3.675781 11.285156 C 3.675781 11.246094 3.675781 11.207031 3.675781 11.167969 C 3.675781 10.925781 3.707031 10.78125 3.832031 10.570312 C 4.054688 10.355469 4.328125 10.355469 4.625 10.359375 Z M 4.625 10.359375 "/>
<path style=" stroke:none;fill-rule:nonzero;fill:rgb(83.529413%,79.607844%,76.862746%);fill-opacity:1;" d="M 14.058594 0.09375 C 14.210938 0.210938 14.265625 0.34375 14.308594 0.523438 C 14.324219 0.707031 14.28125 0.859375 14.167969 1 C 14.050781 1.113281 13.976562 1.15625 13.816406 1.175781 C 13.71875 1.191406 13.667969 1.207031 13.597656 1.273438 C 13.546875 1.351562 13.5 1.429688 13.453125 1.515625 C 13.414062 1.578125 13.378906 1.640625 13.339844 1.703125 C 13.320312 1.734375 13.300781 1.769531 13.28125 1.800781 C 13.183594 1.964844 13.074219 2.125 12.964844 2.285156 C 12.796875 2.539062 12.625 2.792969 12.464844 3.054688 C 12.335938 3.265625 12.199219 3.46875 12.0625 3.671875 C 11.902344 3.910156 11.746094 4.144531 11.59375 4.386719 C 11.582031 4.40625 11.570312 4.425781 11.558594 4.445312 C 11.496094 4.542969 11.441406 4.640625 11.40625 4.75 C 11.417969 4.78125 11.425781 4.8125 11.4375 4.84375 C 11.453125 5.03125 11.453125 5.183594 11.34375 5.34375 C 11.210938 5.503906 11.070312 5.582031 10.859375 5.605469 C 10.671875 5.585938 10.527344 5.542969 10.398438 5.402344 C 10.328125 5.316406 10.304688 5.253906 10.285156 5.148438 C 10.238281 5.003906 10.171875 4.957031 10.039062 4.886719 C 9.964844 4.851562 9.886719 4.816406 9.8125 4.78125 C 9.773438 4.765625 9.734375 4.746094 9.691406 4.726562 C 9.613281 4.6875 9.535156 4.652344 9.453125 4.613281 C 9.304688 4.542969 9.160156 4.46875 9.015625 4.390625 C 8.96875 4.367188 8.921875 4.339844 8.875 4.316406 C 8.796875 4.273438 8.71875 4.230469 8.640625 4.1875 C 8.445312 4.074219 8.445312 4.074219 8.226562 4.078125 C 8.203125 4.089844 8.183594 4.097656 8.160156 4.105469 C 8.089844 4.125 8.039062 4.125 7.96875 4.125 C 7.84375 4.140625 7.792969 4.199219 7.714844 4.296875 C 7.679688 4.347656 7.640625 4.394531 7.605469 4.445312 C 7.523438 4.550781 7.4375 4.652344 7.351562 4.753906 C 7.316406 4.800781 7.277344 4.847656 7.238281 4.890625 C 7.210938 4.925781 7.210938 4.925781 7.183594 4.960938 C 7.109375 5.050781 7.035156 5.140625 6.960938 5.230469 C 6.925781 5.273438 6.886719 5.320312 6.851562 5.363281 C 6.757812 5.476562 6.667969 5.585938 6.574219 5.699219 C 6.539062 5.746094 6.5 5.789062 6.460938 5.835938 C 6.445312 5.859375 6.425781 5.878906 6.40625 5.902344 C 6.308594 6.023438 6.207031 6.144531 6.105469 6.261719 C 6.0625 6.3125 6.023438 6.363281 5.980469 6.414062 C 5.933594 6.464844 5.890625 6.515625 5.84375 6.566406 C 5.707031 6.722656 5.710938 6.832031 5.71875 7.035156 C 5.71875 7.195312 5.65625 7.308594 5.550781 7.421875 C 5.402344 7.554688 5.265625 7.609375 5.066406 7.601562 C 4.898438 7.578125 4.78125 7.5 4.664062 7.382812 C 4.597656 7.285156 4.589844 7.257812 4.570312 7.148438 C 4.515625 6.976562 4.386719 6.917969 4.234375 6.835938 C 4.167969 6.804688 4.101562 6.773438 4.039062 6.738281 C 3.992188 6.71875 3.945312 6.695312 3.902344 6.671875 C 3.808594 6.625 3.71875 6.578125 3.628906 6.535156 C 3.453125 6.445312 3.277344 6.351562 3.105469 6.253906 C 3.027344 6.210938 2.953125 6.167969 2.875 6.128906 C 2.820312 6.097656 2.765625 6.066406 2.707031 6.035156 C 2.617188 5.996094 2.585938 5.996094 2.492188 6.027344 C 2.308594 6.078125 2.132812 6.085938 1.960938 5.992188 C 1.828125 5.902344 1.734375 5.8125 1.6875 5.65625 C 1.660156 5.421875 1.667969 5.25 1.8125 5.0625 C 1.972656 4.914062 2.117188 4.859375 2.332031 4.863281 C 2.496094 4.886719 2.617188 4.960938 2.730469 5.078125 C 2.816406 5.210938 2.851562 5.308594 2.84375 5.46875 C 2.867188 5.476562 2.886719 5.484375 2.910156 5.496094 C 2.996094 5.53125 3.078125 5.570312 3.160156 5.613281 C 3.191406 5.628906 3.222656 5.644531 3.257812 5.664062 C 3.289062 5.679688 3.324219 5.695312 3.359375 5.714844 C 3.390625 5.734375 3.425781 5.75 3.460938 5.769531 C 3.75 5.917969 4.035156 6.074219 4.320312 6.230469 C 4.34375 6.242188 4.367188 6.257812 4.394531 6.269531 C 4.445312 6.300781 4.496094 6.328125 4.546875 6.359375 C 4.582031 6.382812 4.582031 6.382812 4.621094 6.402344 C 4.640625 6.417969 4.660156 6.429688 4.683594 6.445312 C 4.769531 6.476562 4.820312 6.460938 4.90625 6.4375 C 4.933594 6.4375 4.960938 6.433594 4.988281 6.433594 C 5.171875 6.414062 5.269531 6.375 5.398438 6.234375 C 5.441406 6.179688 5.488281 6.121094 5.53125 6.0625 C 5.570312 6.015625 5.609375 5.96875 5.648438 5.921875 C 5.667969 5.894531 5.6875 5.867188 5.707031 5.84375 C 5.933594 5.558594 6.167969 5.277344 6.402344 5 C 6.515625 4.867188 6.628906 4.730469 6.742188 4.589844 C 6.839844 4.46875 6.9375 4.347656 7.039062 4.226562 C 7.054688 4.203125 7.074219 4.179688 7.09375 4.160156 C 7.113281 4.136719 7.128906 4.113281 7.148438 4.09375 C 7.164062 4.070312 7.183594 4.050781 7.199219 4.027344 C 7.230469 3.992188 7.265625 3.953125 7.296875 3.917969 C 7.371094 3.839844 7.40625 3.792969 7.417969 3.683594 C 7.414062 3.648438 7.410156 3.617188 7.40625 3.582031 C 7.402344 3.398438 7.414062 3.269531 7.53125 3.125 C 7.691406 2.980469 7.835938 2.925781 8.050781 2.929688 C 8.222656 2.949219 8.339844 3.03125 8.46875 3.148438 C 8.546875 3.277344 8.558594 3.382812 8.5625 3.53125 C 8.589844 3.539062 8.617188 3.546875 8.644531 3.554688 C 8.75 3.59375 8.851562 3.640625 8.953125 3.691406 C 8.972656 3.699219 8.992188 3.710938 9.011719 3.71875 C 9.070312 3.75 9.132812 3.78125 9.195312 3.8125 C 9.234375 3.832031 9.277344 3.855469 9.320312 3.875 C 9.605469 4.019531 9.886719 4.164062 10.164062 4.3125 C 10.203125 4.335938 10.242188 4.355469 10.28125 4.375 C 10.332031 4.402344 10.332031 4.402344 10.386719 4.429688 C 10.488281 4.476562 10.519531 4.46875 10.625 4.4375 C 10.644531 4.4375 10.664062 4.433594 10.6875 4.433594 C 10.804688 4.417969 10.882812 4.402344 10.964844 4.3125 C 11.027344 4.226562 11.078125 4.140625 11.132812 4.050781 C 11.171875 3.984375 11.214844 3.917969 11.253906 3.851562 C 11.273438 3.820312 11.296875 3.785156 11.316406 3.753906 C 11.402344 3.613281 11.492188 3.476562 11.582031 3.335938 C 11.617188 3.285156 11.648438 3.234375 11.683594 3.183594 C 11.78125 3.027344 11.882812 2.875 11.984375 2.71875 C 12.019531 2.667969 12.050781 2.613281 12.085938 2.5625 C 12.289062 2.25 12.289062 2.25 12.339844 2.171875 C 12.375 2.121094 12.40625 2.066406 12.441406 2.015625 C 12.527344 1.882812 12.617188 1.746094 12.703125 1.613281 C 12.722656 1.582031 12.742188 1.554688 12.757812 1.527344 C 12.792969 1.472656 12.828125 1.421875 12.863281 1.367188 C 12.910156 1.296875 12.953125 1.226562 13 1.15625 C 13.023438 1.121094 13.023438 1.121094 13.046875 1.085938 C 13.0625 1.0625 13.074219 1.039062 13.089844 1.019531 C 13.109375 0.988281 13.109375 0.988281 13.128906 0.957031 C 13.171875 0.878906 13.152344 0.832031 13.125 0.75 C 13.105469 0.535156 13.117188 0.394531 13.25 0.21875 C 13.480469 -0.0117188 13.769531 -0.0625 14.058594 0.09375 Z M 14.058594 0.09375 "/>
<path style=" stroke:none;fill-rule:nonzero;fill:rgb(77.64706%,15.686275%,10.588235%);fill-opacity:1;" d="M 13.15625 3.960938 C 13.183594 3.964844 13.210938 3.964844 13.238281 3.964844 C 13.304688 3.964844 13.371094 3.96875 13.4375 3.96875 C 13.375 4 13.3125 4.03125 13.25 4.058594 C 13.082031 4.136719 12.984375 4.214844 12.902344 4.382812 C 12.871094 4.480469 12.867188 4.554688 12.867188 4.652344 C 12.867188 4.710938 12.867188 4.710938 12.867188 4.765625 C 12.867188 4.808594 12.867188 4.847656 12.867188 4.890625 C 12.867188 4.933594 12.867188 4.976562 12.867188 5.019531 C 12.867188 5.140625 12.863281 5.261719 12.863281 5.382812 C 12.863281 5.511719 12.863281 5.640625 12.863281 5.773438 C 12.863281 5.996094 12.863281 6.222656 12.863281 6.445312 C 12.863281 6.773438 12.863281 7.097656 12.859375 7.421875 C 12.859375 7.949219 12.859375 8.480469 12.855469 9.007812 C 12.855469 9.519531 12.855469 10.03125 12.855469 10.546875 C 12.855469 10.59375 12.855469 10.59375 12.851562 10.640625 C 12.851562 10.800781 12.851562 10.957031 12.851562 11.117188 C 12.847656 12.433594 12.847656 13.746094 12.84375 15.0625 C 12.65625 15.0625 12.472656 15.0625 12.28125 15.0625 C 12.277344 13.714844 12.277344 12.363281 12.273438 11.015625 C 12.273438 10.855469 12.273438 10.695312 12.273438 10.535156 C 12.273438 10.503906 12.273438 10.472656 12.273438 10.441406 C 12.273438 9.925781 12.273438 9.414062 12.273438 8.898438 C 12.269531 8.375 12.269531 7.847656 12.269531 7.320312 C 12.269531 6.996094 12.269531 6.667969 12.269531 6.34375 C 12.265625 6.121094 12.265625 5.898438 12.265625 5.675781 C 12.265625 5.546875 12.265625 5.417969 12.265625 5.289062 C 12.265625 5.171875 12.265625 5.054688 12.265625 4.9375 C 12.265625 4.875 12.265625 4.8125 12.265625 4.746094 C 12.265625 4.488281 12.292969 4.308594 12.476562 4.117188 C 12.695312 3.984375 12.90625 3.957031 13.15625 3.960938 Z M 13.15625 3.960938 "/>
<path style=" stroke:none;fill-rule:nonzero;fill:rgb(0.784314%,64.705884%,26.666668%);fill-opacity:1;" d="M 7.191406 6.898438 C 7.234375 6.902344 7.234375 6.902344 7.277344 6.902344 C 7.308594 6.902344 7.339844 6.902344 7.367188 6.902344 C 7.398438 6.902344 7.429688 6.902344 7.460938 6.902344 C 7.535156 6.902344 7.613281 6.90625 7.6875 6.90625 C 7.667969 6.914062 7.648438 6.925781 7.632812 6.933594 C 7.574219 6.960938 7.519531 6.988281 7.46875 7.015625 C 7.375 7.0625 7.375 7.0625 7.28125 7.09375 C 7.246094 7.167969 7.246094 7.167969 7.21875 7.25 C 7.207031 7.269531 7.195312 7.289062 7.1875 7.308594 C 7.152344 7.382812 7.148438 7.429688 7.148438 7.511719 C 7.148438 7.550781 7.148438 7.550781 7.148438 7.59375 C 7.148438 7.621094 7.148438 7.652344 7.148438 7.683594 C 7.148438 7.714844 7.148438 7.746094 7.148438 7.777344 C 7.144531 7.882812 7.144531 7.988281 7.144531 8.09375 C 7.144531 8.171875 7.144531 8.246094 7.144531 8.320312 C 7.144531 8.484375 7.144531 8.648438 7.144531 8.8125 C 7.144531 9.046875 7.144531 9.285156 7.140625 9.519531 C 7.140625 9.902344 7.140625 10.285156 7.136719 10.667969 C 7.136719 11.039062 7.136719 11.414062 7.136719 11.785156 C 7.136719 11.820312 7.136719 11.820312 7.132812 11.855469 C 7.132812 11.96875 7.132812 12.085938 7.132812 12.199219 C 7.128906 13.152344 7.128906 14.109375 7.125 15.0625 C 6.9375 15.0625 6.753906 15.0625 6.5625 15.0625 C 6.550781 13.539062 6.542969 12.019531 6.53125 10.496094 C 6.53125 10.339844 6.53125 10.179688 6.53125 10.023438 C 6.527344 9.609375 6.523438 9.199219 6.523438 8.785156 C 6.523438 8.671875 6.523438 8.554688 6.523438 8.441406 C 6.523438 8.308594 6.519531 8.175781 6.519531 8.042969 C 6.519531 7.996094 6.519531 7.949219 6.519531 7.902344 C 6.515625 7.332031 6.515625 7.332031 6.683594 7.109375 C 6.703125 7.09375 6.726562 7.078125 6.746094 7.0625 C 6.765625 7.046875 6.789062 7.027344 6.808594 7.011719 C 6.933594 6.929688 7.042969 6.898438 7.191406 6.898438 Z M 7.191406 6.898438 "/>
<path style=" stroke:none;fill-rule:nonzero;fill:rgb(83.92157%,79.607844%,76.862746%);fill-opacity:1;" d="M 14.058594 0.09375 C 14.210938 0.210938 14.265625 0.34375 14.308594 0.523438 C 14.324219 0.707031 14.28125 0.859375 14.167969 1 C 14.050781 1.113281 13.976562 1.15625 13.816406 1.175781 C 13.71875 1.191406 13.667969 1.207031 13.597656 1.273438 C 13.546875 1.351562 13.5 1.429688 13.453125 1.515625 C 13.414062 1.578125 13.378906 1.640625 13.339844 1.703125 C 13.320312 1.734375 13.300781 1.769531 13.28125 1.800781 C 13.183594 1.964844 13.074219 2.125 12.964844 2.285156 C 12.796875 2.539062 12.625 2.792969 12.464844 3.054688 C 12.335938 3.265625 12.199219 3.46875 12.0625 3.671875 C 11.902344 3.910156 11.746094 4.144531 11.59375 4.386719 C 11.574219 4.414062 11.574219 4.414062 11.558594 4.445312 C 11.496094 4.542969 11.441406 4.640625 11.40625 4.75 C 11.417969 4.78125 11.425781 4.8125 11.4375 4.84375 C 11.453125 5.03125 11.453125 5.183594 11.34375 5.34375 C 11.210938 5.503906 11.070312 5.582031 10.859375 5.605469 C 10.671875 5.585938 10.527344 5.542969 10.394531 5.402344 C 10.300781 5.277344 10.253906 5.15625 10.25 5 C 10.28125 4.8125 10.363281 4.632812 10.5 4.5 C 10.609375 4.441406 10.703125 4.410156 10.828125 4.386719 C 10.964844 4.332031 11.007812 4.265625 11.074219 4.140625 C 11.101562 4.09375 11.128906 4.050781 11.15625 4.003906 C 11.167969 3.980469 11.183594 3.953125 11.199219 3.925781 C 11.289062 3.78125 11.382812 3.640625 11.476562 3.496094 C 11.523438 3.425781 11.566406 3.355469 11.613281 3.285156 C 11.648438 3.234375 11.683594 3.183594 11.714844 3.128906 C 11.808594 2.988281 11.902344 2.847656 11.992188 2.707031 C 12.007812 2.683594 12.023438 2.65625 12.042969 2.632812 C 12.074219 2.582031 12.105469 2.53125 12.140625 2.480469 C 12.207031 2.378906 12.273438 2.273438 12.339844 2.171875 C 12.375 2.121094 12.40625 2.066406 12.441406 2.015625 C 12.527344 1.882812 12.617188 1.746094 12.703125 1.613281 C 12.730469 1.570312 12.730469 1.570312 12.757812 1.527344 C 12.792969 1.472656 12.828125 1.421875 12.863281 1.367188 C 12.910156 1.296875 12.953125 1.226562 13 1.15625 C 13.015625 1.132812 13.03125 1.109375 13.046875 1.085938 C 13.0625 1.0625 13.074219 1.039062 13.089844 1.019531 C 13.101562 1 13.117188 0.976562 13.128906 0.957031 C 13.171875 0.878906 13.152344 0.832031 13.125 0.75 C 13.105469 0.535156 13.117188 0.394531 13.25 0.21875 C 13.480469 -0.0117188 13.769531 -0.0625 14.058594 0.09375 Z M 14.058594 0.09375 "/>
<path style=" stroke:none;fill-rule:nonzero;fill:rgb(93.725491%,47.843137%,1.960784%);fill-opacity:1;" d="M 10.53125 8.375 C 10.441406 8.433594 10.355469 8.472656 10.253906 8.511719 C 10.136719 8.601562 10.050781 8.734375 10.015625 8.875 C 10.011719 8.945312 10.011719 9.011719 10.011719 9.078125 C 10.011719 9.117188 10.011719 9.117188 10.011719 9.15625 C 10.011719 9.242188 10.011719 9.328125 10.011719 9.414062 C 10.011719 9.476562 10.011719 9.539062 10.007812 9.597656 C 10.007812 9.765625 10.007812 9.933594 10.007812 10.101562 C 10.007812 10.273438 10.007812 10.449219 10.007812 10.625 C 10.007812 10.953125 10.007812 11.285156 10.007812 11.613281 C 10.007812 11.988281 10.003906 12.367188 10.003906 12.742188 C 10 13.515625 10 14.289062 10 15.0625 C 9.8125 15.0625 9.628906 15.0625 9.4375 15.0625 C 9.433594 14.246094 9.429688 13.433594 9.429688 12.617188 C 9.429688 12.242188 9.425781 11.863281 9.425781 11.484375 C 9.425781 11.152344 9.421875 10.824219 9.421875 10.496094 C 9.421875 10.320312 9.421875 10.144531 9.421875 9.972656 C 9.417969 9.804688 9.417969 9.640625 9.417969 9.476562 C 9.417969 9.417969 9.417969 9.355469 9.417969 9.296875 C 9.417969 9.214844 9.417969 9.132812 9.417969 9.050781 C 9.417969 9.027344 9.417969 9.003906 9.417969 8.976562 C 9.417969 8.796875 9.484375 8.675781 9.59375 8.53125 C 9.835938 8.300781 10.222656 8.359375 10.53125 8.375 Z M 10.53125 8.375 "/>
<path style=" stroke:none;fill-rule:nonzero;fill:rgb(21.176471%,26.274511%,31.764707%);fill-opacity:1;" d="M 1.65625 8.835938 C 1.703125 8.835938 1.703125 8.835938 1.746094 8.835938 C 1.820312 8.839844 1.894531 8.839844 1.96875 8.84375 C 1.90625 8.875 1.847656 8.90625 1.78125 8.929688 C 1.636719 8.992188 1.546875 9.058594 1.46875 9.195312 C 1.394531 9.398438 1.414062 9.625 1.417969 9.839844 C 1.417969 9.898438 1.417969 9.953125 1.414062 10.011719 C 1.414062 10.164062 1.414062 10.320312 1.414062 10.472656 C 1.414062 10.636719 1.414062 10.796875 1.414062 10.957031 C 1.414062 11.261719 1.414062 11.570312 1.414062 11.875 C 1.414062 12.222656 1.410156 12.570312 1.410156 12.917969 C 1.40625 13.632812 1.40625 14.347656 1.40625 15.0625 C 1.210938 15.0625 1.015625 15.0625 0.8125 15.0625 C 0.808594 14.324219 0.808594 13.589844 0.808594 12.851562 C 0.808594 12.507812 0.804688 12.167969 0.804688 11.824219 C 0.804688 11.527344 0.804688 11.226562 0.804688 10.929688 C 0.804688 10.769531 0.804688 10.613281 0.800781 10.453125 C 0.800781 10.304688 0.800781 10.15625 0.800781 10.007812 C 0.800781 9.953125 0.800781 9.898438 0.800781 9.84375 C 0.800781 9.769531 0.800781 9.695312 0.800781 9.621094 C 0.800781 9.597656 0.800781 9.578125 0.800781 9.554688 C 0.800781 9.359375 0.851562 9.191406 0.976562 9.039062 C 1.195312 8.863281 1.375 8.824219 1.65625 8.835938 Z M 1.65625 8.835938 "/>
<path style=" stroke:none;fill-rule:nonzero;fill:rgb(0.392157%,65.490198%,87.843138%);fill-opacity:1;" d="M 4.53125 10.367188 C 4.578125 10.367188 4.578125 10.367188 4.625 10.367188 C 4.699219 10.371094 4.769531 10.371094 4.84375 10.375 C 4.78125 10.40625 4.722656 10.4375 4.65625 10.464844 C 4.492188 10.535156 4.398438 10.621094 4.3125 10.78125 C 4.28125 10.878906 4.277344 10.945312 4.277344 11.046875 C 4.277344 11.097656 4.277344 11.097656 4.273438 11.152344 C 4.273438 11.191406 4.273438 11.230469 4.273438 11.269531 C 4.273438 11.332031 4.273438 11.332031 4.273438 11.394531 C 4.273438 11.507812 4.273438 11.617188 4.273438 11.730469 C 4.269531 11.847656 4.269531 11.964844 4.269531 12.082031 C 4.269531 12.304688 4.265625 12.523438 4.265625 12.746094 C 4.261719 13 4.261719 13.25 4.261719 13.503906 C 4.257812 14.023438 4.253906 14.542969 4.25 15.0625 C 4.0625 15.0625 3.878906 15.0625 3.6875 15.0625 C 3.683594 14.519531 3.683594 13.976562 3.683594 13.4375 C 3.683594 13.183594 3.679688 12.933594 3.679688 12.679688 C 3.679688 12.460938 3.679688 12.242188 3.679688 12.023438 C 3.679688 11.90625 3.679688 11.789062 3.675781 11.671875 C 3.675781 11.542969 3.675781 11.414062 3.675781 11.285156 C 3.675781 11.246094 3.675781 11.207031 3.675781 11.167969 C 3.675781 10.925781 3.707031 10.78125 3.832031 10.570312 C 4.03125 10.378906 4.265625 10.359375 4.53125 10.367188 Z M 4.53125 10.367188 "/>
<path style=" stroke:none;fill-rule:nonzero;fill:rgb(83.529413%,79.607844%,76.862746%);fill-opacity:1;" d="M 2.601562 4.960938 C 2.730469 5.050781 2.800781 5.167969 2.84375 5.3125 C 2.847656 5.398438 2.847656 5.398438 2.84375 5.46875 C 2.867188 5.476562 2.886719 5.484375 2.910156 5.496094 C 2.996094 5.53125 3.078125 5.570312 3.160156 5.613281 C 3.191406 5.628906 3.222656 5.644531 3.257812 5.664062 C 3.289062 5.679688 3.324219 5.695312 3.359375 5.714844 C 3.390625 5.734375 3.425781 5.75 3.460938 5.769531 C 3.773438 5.933594 4.082031 6.097656 4.386719 6.269531 C 4.53125 6.347656 4.671875 6.421875 4.8125 6.5 C 4.796875 6.515625 4.785156 6.535156 4.769531 6.550781 C 4.652344 6.699219 4.597656 6.8125 4.5625 7 C 4.390625 6.949219 4.242188 6.867188 4.085938 6.78125 C 4.023438 6.746094 3.964844 6.714844 3.902344 6.679688 C 3.789062 6.617188 3.671875 6.554688 3.554688 6.488281 C 3.4375 6.421875 3.320312 6.359375 3.203125 6.292969 C 3.15625 6.265625 3.109375 6.242188 3.0625 6.214844 C 2.78125 6.039062 2.78125 6.039062 2.460938 6.015625 C 2.421875 6.03125 2.382812 6.046875 2.34375 6.0625 C 2.136719 6.078125 1.988281 6.03125 1.832031 5.894531 C 1.703125 5.765625 1.679688 5.648438 1.671875 5.46875 C 1.679688 5.253906 1.730469 5.140625 1.890625 4.992188 C 2.121094 4.835938 2.359375 4.824219 2.601562 4.960938 Z M 2.601562 4.960938 "/>
<path style=" stroke:none;fill-rule:nonzero;fill:rgb(83.529413%,79.607844%,76.862746%);fill-opacity:1;" d="M 8.5625 3.53125 C 8.699219 3.574219 8.824219 3.628906 8.953125 3.691406 C 8.972656 3.699219 8.992188 3.710938 9.011719 3.71875 C 9.070312 3.75 9.132812 3.78125 9.195312 3.8125 C 9.234375 3.832031 9.277344 3.855469 9.320312 3.875 C 9.71875 4.078125 10.113281 4.277344 10.5 4.5 C 10.460938 4.582031 10.417969 4.65625 10.375 4.734375 C 10.320312 4.820312 10.292969 4.898438 10.28125 5 C 10.089844 4.945312 9.921875 4.855469 9.742188 4.765625 C 9.710938 4.75 9.679688 4.730469 9.644531 4.714844 C 9.414062 4.597656 9.183594 4.480469 8.957031 4.359375 C 8.742188 4.246094 8.527344 4.136719 8.3125 4.03125 C 8.324219 4.011719 8.339844 3.996094 8.351562 3.976562 C 8.453125 3.832031 8.523438 3.707031 8.5625 3.53125 Z M 8.5625 3.53125 "/>
<path style=" stroke:none;fill-rule:nonzero;fill:rgb(28.235295%,32.549021%,37.64706%);fill-opacity:1;" d="M 2.601562 4.960938 C 2.726562 5.050781 2.804688 5.167969 2.84375 5.3125 C 2.875 5.511719 2.832031 5.648438 2.730469 5.820312 C 2.6875 5.875 2.6875 5.875 2.59375 5.90625 C 2.59375 5.925781 2.59375 5.949219 2.59375 5.96875 C 2.398438 6.058594 2.242188 6.089844 2.03125 6.03125 C 1.898438 5.964844 1.808594 5.878906 1.71875 5.761719 C 1.660156 5.566406 1.640625 5.339844 1.742188 5.15625 C 1.964844 4.867188 2.277344 4.78125 2.601562 4.960938 Z M 2.601562 4.960938 "/>
<path style=" stroke:none;fill-rule:nonzero;fill:rgb(95.686275%,26.274511%,12.941177%);fill-opacity:1;" d="M 14.058594 0.09375 C 14.210938 0.210938 14.265625 0.34375 14.308594 0.523438 C 14.320312 0.675781 14.292969 0.804688 14.21875 0.9375 C 14.089844 1.082031 13.972656 1.183594 13.773438 1.195312 C 13.550781 1.183594 13.410156 1.128906 13.25 0.96875 C 13.136719 0.816406 13.105469 0.703125 13.113281 0.511719 C 13.140625 0.347656 13.21875 0.25 13.335938 0.132812 C 13.5625 -0.0234375 13.816406 -0.0351562 14.058594 0.09375 Z M 14.058594 0.09375 "/>
<path style=" stroke:none;fill-rule:nonzero;fill:rgb(1.960784%,75.294119%,31.764707%);fill-opacity:1;" d="M 8.257812 2.988281 C 8.40625 3.070312 8.507812 3.179688 8.5625 3.34375 C 8.585938 3.558594 8.566406 3.730469 8.4375 3.90625 C 8.300781 4.054688 8.195312 4.109375 7.996094 4.140625 C 7.800781 4.117188 7.644531 4.023438 7.507812 3.878906 C 7.410156 3.742188 7.382812 3.617188 7.394531 3.453125 C 7.425781 3.269531 7.492188 3.144531 7.640625 3.03125 C 7.832031 2.910156 8.050781 2.894531 8.257812 2.988281 Z M 8.257812 2.988281 "/>
<path style=" stroke:none;fill-rule:nonzero;fill:rgb(99.215686%,60.000002%,0%);fill-opacity:1;" d="M 11.195312 4.523438 C 11.3125 4.605469 11.390625 4.707031 11.4375 4.84375 C 11.453125 5.03125 11.453125 5.183594 11.34375 5.34375 C 11.210938 5.503906 11.070312 5.582031 10.859375 5.605469 C 10.671875 5.585938 10.527344 5.542969 10.394531 5.402344 C 10.300781 5.277344 10.253906 5.15625 10.25 5 C 10.28125 4.8125 10.367188 4.636719 10.5 4.5 C 10.734375 4.355469 10.964844 4.398438 11.195312 4.523438 Z M 11.195312 4.523438 "/>
<path style=" stroke:none;fill-rule:nonzero;fill:rgb(30.19608%,56.470591%,95.294118%);fill-opacity:1;" d="M 5.316406 6.433594 C 5.492188 6.535156 5.652344 6.675781 5.71875 6.875 C 5.734375 7.074219 5.707031 7.210938 5.59375 7.375 C 5.460938 7.519531 5.324219 7.585938 5.132812 7.605469 C 4.9375 7.597656 4.800781 7.515625 4.660156 7.382812 C 4.558594 7.222656 4.511719 7.0625 4.546875 6.875 C 4.605469 6.683594 4.742188 6.546875 4.90625 6.4375 C 5.050781 6.390625 5.171875 6.375 5.316406 6.433594 Z M 5.316406 6.433594 "/>
<path style=" stroke:none;fill-rule:nonzero;fill:rgb(70.19608%,72.156864%,69.803923%);fill-opacity:1;" d="M 0.503906 15.054688 C 0.535156 15.054688 0.570312 15.054688 0.601562 15.054688 C 0.65625 15.054688 0.65625 15.054688 0.707031 15.054688 C 0.746094 15.054688 0.78125 15.054688 0.820312 15.054688 C 0.925781 15.054688 1.027344 15.054688 1.128906 15.054688 C 1.242188 15.054688 1.355469 15.054688 1.464844 15.054688 C 1.660156 15.054688 1.851562 15.054688 2.042969 15.054688 C 2.324219 15.054688 2.601562 15.054688 2.882812 15.058594 C 3.335938 15.058594 3.789062 15.058594 4.242188 15.058594 C 4.679688 15.058594 5.121094 15.058594 5.5625 15.058594 C 5.601562 15.058594 5.601562 15.058594 5.644531 15.058594 C 5.777344 15.058594 5.914062 15.058594 6.050781 15.058594 C 7.179688 15.058594 8.308594 15.0625 9.4375 15.0625 C 9.4375 15.074219 9.4375 15.082031 9.4375 15.09375 C 9.410156 15.09375 9.410156 15.09375 9.382812 15.09375 C 8.308594 15.09375 7.234375 15.097656 6.160156 15.101562 C 6.03125 15.101562 5.902344 15.101562 5.773438 15.101562 C 5.75 15.101562 5.722656 15.101562 5.695312 15.101562 C 5.28125 15.101562 4.867188 15.105469 4.449219 15.105469 C 4.023438 15.105469 3.597656 15.105469 3.171875 15.109375 C 2.90625 15.109375 2.644531 15.109375 2.382812 15.109375 C 2.199219 15.109375 2.019531 15.109375 1.839844 15.109375 C 1.734375 15.109375 1.632812 15.113281 1.527344 15.113281 C 1.414062 15.113281 1.300781 15.113281 1.1875 15.113281 C 1.15625 15.113281 1.121094 15.113281 1.089844 15.113281 C 0.871094 15.113281 0.871094 15.113281 0.6875 15.21875 C 0.59375 15.359375 0.566406 15.492188 0.59375 15.65625 C 0.675781 15.835938 0.792969 15.898438 0.96875 15.96875 C 0.96875 15.980469 0.96875 15.988281 0.96875 16 C 0.878906 16 0.789062 16.003906 0.699219 16.003906 C 0.675781 16.003906 0.648438 16.003906 0.621094 16.003906 C 0.398438 16.007812 0.230469 15.972656 0.0625 15.8125 C -0.0273438 15.667969 -0.0273438 15.511719 0 15.34375 C 0.109375 15.136719 0.273438 15.054688 0.503906 15.054688 Z M 0.503906 15.054688 "/>
</g>
</svg>
