<?xml version="1.0" encoding="UTF-8"?>
<svg xmlns="http://www.w3.org/2000/svg" xmlns:xlink="http://www.w3.org/1999/xlink" viewBox="0 0 16 16" version="1.1">
<g id="surface1">
<path style=" stroke:none;fill-rule:nonzero;fill:rgb(58.039218%,79.607844%,82.745099%);fill-opacity:1;" d="M 9.582031 -0.00390625 C 9.613281 -0.00390625 9.613281 -0.00390625 9.648438 -0.00390625 C 9.71875 -0.0078125 9.789062 -0.0078125 9.863281 -0.0078125 C 9.914062 -0.0078125 9.964844 -0.0078125 10.015625 -0.0078125 C 10.1875 -0.0078125 10.359375 -0.0078125 10.527344 -0.0078125 C 10.585938 -0.0078125 10.644531 -0.0078125 10.703125 -0.0078125 C 10.945312 -0.0078125 11.1875 -0.0117188 11.433594 -0.0117188 C 11.78125 -0.0117188 12.128906 -0.0117188 12.476562 -0.015625 C 12.726562 -0.015625 12.96875 -0.015625 13.214844 -0.015625 C 13.359375 -0.015625 13.507812 -0.015625 13.652344 -0.015625 C 13.792969 -0.0195312 13.929688 -0.0195312 14.066406 -0.0195312 C 14.117188 -0.0195312 14.167969 -0.0195312 14.21875 -0.0195312 C 14.691406 -0.0234375 14.691406 -0.0234375 14.859375 0.109375 C 15.0625 0.316406 15.046875 0.515625 15.046875 0.789062 C 15.046875 0.832031 15.046875 0.875 15.046875 0.917969 C 15.046875 1.03125 15.046875 1.144531 15.046875 1.257812 C 15.042969 1.378906 15.042969 1.496094 15.042969 1.617188 C 15.042969 1.816406 15.042969 2.015625 15.042969 2.214844 C 15.039062 2.472656 15.039062 2.726562 15.039062 2.984375 C 15.039062 3.207031 15.039062 3.425781 15.039062 3.648438 C 15.039062 3.695312 15.039062 3.742188 15.039062 3.789062 C 15.039062 3.925781 15.039062 4.058594 15.039062 4.195312 C 15.039062 4.253906 15.039062 4.3125 15.035156 4.375 C 15.035156 4.410156 15.035156 4.445312 15.035156 4.484375 C 15.035156 4.53125 15.035156 4.53125 15.035156 4.578125 C 15.03125 4.65625 15.03125 4.65625 15 4.75 C 15.023438 4.816406 15.023438 4.816406 15.070312 4.886719 C 15.082031 4.914062 15.097656 4.945312 15.113281 4.972656 C 15.132812 5.003906 15.148438 5.03125 15.164062 5.0625 C 15.5 5.6875 15.734375 6.339844 15.875 7.03125 C 15.882812 7.0625 15.886719 7.09375 15.894531 7.125 C 16.277344 8.996094 15.867188 11.019531 14.839844 12.617188 C 14.625 12.9375 14.386719 13.246094 14.125 13.527344 C 14.070312 13.585938 14.015625 13.648438 13.964844 13.710938 C 12.976562 14.839844 11.507812 15.570312 10.0625 15.875 C 10.03125 15.882812 10 15.890625 9.96875 15.894531 C 9.085938 16.078125 8.070312 16.089844 7.1875 15.90625 C 7.160156 15.902344 7.132812 15.894531 7.101562 15.890625 C 5.753906 15.625 4.523438 14.996094 3.507812 14.066406 C 3.460938 14.019531 3.410156 13.976562 3.355469 13.9375 C 3.289062 13.878906 3.234375 13.824219 3.175781 13.757812 C 3.105469 13.671875 3.035156 13.597656 2.957031 13.523438 C 2.84375 13.410156 2.746094 13.289062 2.648438 13.164062 C 2.625 13.128906 2.625 13.128906 2.597656 13.09375 C 1.617188 11.78125 1.0625 10.203125 1.09375 8.5625 C 1.078125 8.5625 1.058594 8.5625 1.039062 8.5625 C 0.960938 8.566406 0.878906 8.570312 0.796875 8.570312 C 0.773438 8.570312 0.742188 8.570312 0.714844 8.574219 C 0.5 8.578125 0.300781 8.539062 0.136719 8.390625 C 0.0195312 8.257812 -0.00390625 8.152344 -0.00390625 7.980469 C -0.00390625 7.945312 -0.00390625 7.90625 -0.0078125 7.871094 C -0.0078125 7.828125 -0.0078125 7.789062 -0.0078125 7.75 C -0.0078125 7.703125 -0.0078125 7.664062 -0.0078125 7.621094 C -0.0078125 7.480469 -0.0078125 7.339844 -0.0078125 7.199219 C -0.0078125 7.148438 -0.0078125 7.101562 -0.0078125 7.054688 C -0.0078125 6.851562 -0.0117188 6.652344 -0.0117188 6.449219 C -0.0117188 6.164062 -0.0117188 5.875 -0.015625 5.585938 C -0.015625 5.382812 -0.015625 5.179688 -0.015625 4.976562 C -0.015625 4.859375 -0.015625 4.734375 -0.015625 4.617188 C -0.0195312 4.5 -0.0195312 4.386719 -0.0195312 4.273438 C -0.0195312 4.210938 -0.0195312 4.148438 -0.0195312 4.089844 C -0.0195312 3.867188 -0.00390625 3.695312 0.15625 3.53125 C 0.308594 3.402344 0.453125 3.390625 0.648438 3.398438 C 0.671875 3.398438 0.699219 3.398438 0.726562 3.398438 C 0.785156 3.398438 0.84375 3.398438 0.898438 3.402344 C 0.988281 3.402344 1.078125 3.40625 1.171875 3.40625 C 1.429688 3.40625 1.6875 3.410156 1.945312 3.417969 C 2.101562 3.421875 2.261719 3.421875 2.417969 3.421875 C 2.476562 3.421875 2.539062 3.421875 2.597656 3.425781 C 2.972656 3.441406 2.972656 3.441406 3.292969 3.273438 C 3.394531 3.175781 3.484375 3.070312 3.574219 2.964844 C 3.710938 2.804688 3.890625 2.6875 4.0625 2.5625 C 4.082031 2.546875 4.101562 2.535156 4.121094 2.519531 C 5.582031 1.457031 7.21875 1.0625 9 1.09375 C 9 1.074219 9 1.054688 9 1.039062 C 8.996094 0.953125 8.992188 0.867188 8.992188 0.78125 C 8.992188 0.75 8.992188 0.722656 8.988281 0.691406 C 8.984375 0.496094 9.011719 0.347656 9.125 0.1875 C 9.273438 0.0390625 9.375 -0.00390625 9.582031 -0.00390625 Z M 9.582031 -0.00390625 "/>
<path style=" stroke:none;fill-rule:nonzero;fill:rgb(99.607843%,74.901962%,32.941177%);fill-opacity:1;" d="M 9.582031 -0.00390625 C 9.613281 -0.00390625 9.613281 -0.00390625 9.648438 -0.00390625 C 9.71875 -0.0078125 9.789062 -0.0078125 9.863281 -0.0078125 C 9.914062 -0.0078125 9.964844 -0.0078125 10.015625 -0.0078125 C 10.1875 -0.0078125 10.359375 -0.0078125 10.527344 -0.0078125 C 10.585938 -0.0078125 10.644531 -0.0078125 10.703125 -0.0078125 C 10.945312 -0.0078125 11.1875 -0.0117188 11.433594 -0.0117188 C 11.78125 -0.0117188 12.128906 -0.0117188 12.476562 -0.015625 C 12.726562 -0.015625 12.96875 -0.015625 13.214844 -0.015625 C 13.359375 -0.015625 13.507812 -0.015625 13.652344 -0.015625 C 13.792969 -0.0195312 13.929688 -0.0195312 14.066406 -0.0195312 C 14.117188 -0.0195312 14.167969 -0.0195312 14.21875 -0.0195312 C 14.691406 -0.0234375 14.691406 -0.0234375 14.859375 0.109375 C 15.0625 0.3125 15.050781 0.515625 15.046875 0.789062 C 15.046875 0.832031 15.046875 0.871094 15.050781 0.914062 C 15.050781 1.027344 15.050781 1.140625 15.050781 1.253906 C 15.050781 1.347656 15.050781 1.441406 15.050781 1.539062 C 15.050781 1.761719 15.050781 1.984375 15.050781 2.207031 C 15.050781 2.4375 15.050781 2.667969 15.054688 2.898438 C 15.054688 3.09375 15.054688 3.292969 15.054688 3.492188 C 15.054688 3.609375 15.054688 3.726562 15.054688 3.84375 C 15.054688 3.953125 15.054688 4.066406 15.054688 4.175781 C 15.054688 4.234375 15.054688 4.296875 15.054688 4.355469 C 15.054688 4.566406 15.03125 4.699219 14.890625 4.859375 C 14.671875 5.074219 14.417969 5.050781 14.125 5.054688 C 14.082031 5.054688 14.035156 5.054688 13.992188 5.058594 C 13.878906 5.058594 13.765625 5.0625 13.65625 5.0625 C 13.675781 5.085938 13.695312 5.105469 13.710938 5.128906 C 14.207031 5.722656 14.382812 6.324219 14.3125 7.09375 C 14.257812 7.484375 14.117188 7.933594 13.835938 8.226562 C 13.625 8.457031 13.585938 8.617188 13.59375 8.929688 C 13.59375 8.96875 13.59375 9.011719 13.59375 9.054688 C 13.597656 9.140625 13.597656 9.234375 13.601562 9.320312 C 13.601562 9.460938 13.605469 9.605469 13.605469 9.746094 C 13.609375 9.996094 13.609375 10.242188 13.617188 10.492188 C 13.621094 10.867188 13.625 11.242188 13.628906 11.621094 C 13.628906 11.761719 13.632812 11.898438 13.632812 12.039062 C 13.636719 12.109375 13.636719 12.171875 13.636719 12.242188 C 13.636719 12.320312 13.640625 12.402344 13.640625 12.484375 C 13.640625 12.703125 13.621094 12.863281 13.46875 13.03125 C 13.300781 13.164062 13.183594 13.191406 12.976562 13.191406 C 12.929688 13.191406 12.886719 13.191406 12.84375 13.191406 C 12.820312 13.191406 12.796875 13.191406 12.773438 13.1875 C 12.648438 13.1875 12.523438 13.191406 12.398438 13.191406 C 12.238281 13.191406 12.078125 13.191406 11.921875 13.191406 C 11.789062 13.1875 11.664062 13.191406 11.535156 13.191406 C 11.484375 13.191406 11.4375 13.191406 11.386719 13.191406 C 11.070312 13.1875 10.851562 13.230469 10.59375 13.4375 C 10.574219 13.453125 10.554688 13.464844 10.539062 13.480469 C 10.488281 13.515625 10.441406 13.550781 10.398438 13.585938 C 10.203125 13.738281 10.007812 13.882812 9.808594 14.019531 C 9.746094 14.066406 9.679688 14.113281 9.617188 14.160156 C 9.574219 14.191406 9.53125 14.222656 9.484375 14.257812 C 9.464844 14.273438 9.445312 14.289062 9.421875 14.304688 C 9.320312 14.375 9.273438 14.40625 9.144531 14.40625 C 9.0625 14.375 9.0625 14.375 9 14.28125 C 8.992188 14.195312 8.992188 14.195312 8.992188 14.09375 C 8.992188 14.058594 8.992188 14.019531 8.992188 13.984375 C 8.992188 13.90625 8.992188 13.828125 8.992188 13.75 C 8.992188 13.519531 8.992188 13.519531 8.894531 13.320312 C 8.789062 13.226562 8.738281 13.214844 8.601562 13.210938 C 8.570312 13.210938 8.542969 13.210938 8.511719 13.210938 C 8.449219 13.207031 8.386719 13.207031 8.324219 13.203125 C 8.113281 13.199219 7.945312 13.183594 7.78125 13.039062 C 7.765625 13.019531 7.753906 13 7.738281 12.984375 C 7.722656 12.964844 7.707031 12.945312 7.691406 12.925781 C 7.621094 12.828125 7.621094 12.761719 7.621094 12.644531 C 7.621094 12.609375 7.621094 12.570312 7.621094 12.535156 C 7.621094 12.496094 7.617188 12.457031 7.617188 12.414062 C 7.617188 12.375 7.617188 12.332031 7.617188 12.289062 C 7.617188 12.175781 7.617188 12.0625 7.617188 11.949219 C 7.617188 11.875 7.617188 11.804688 7.617188 11.734375 C 7.617188 11.511719 7.617188 11.289062 7.617188 11.066406 C 7.617188 10.808594 7.613281 10.550781 7.613281 10.292969 C 7.613281 10.09375 7.613281 9.898438 7.613281 9.699219 C 7.613281 9.578125 7.609375 9.460938 7.609375 9.34375 C 7.609375 9.230469 7.609375 9.117188 7.609375 9.007812 C 7.609375 8.945312 7.609375 8.886719 7.609375 8.824219 C 7.609375 8.625 7.609375 8.492188 7.75 8.34375 C 7.878906 8.226562 7.988281 8.148438 8.164062 8.148438 C 8.203125 8.148438 8.203125 8.148438 8.242188 8.148438 C 8.269531 8.148438 8.296875 8.148438 8.328125 8.148438 C 8.355469 8.144531 8.386719 8.144531 8.417969 8.144531 C 8.515625 8.144531 8.613281 8.144531 8.714844 8.144531 C 8.78125 8.140625 8.851562 8.140625 8.917969 8.140625 C 9.097656 8.140625 9.28125 8.140625 9.460938 8.136719 C 9.644531 8.136719 9.828125 8.132812 10.011719 8.132812 C 10.371094 8.128906 10.734375 8.125 11.09375 8.125 C 11.09375 8.070312 11.09375 8.070312 11.089844 8.015625 C 11.089844 7.96875 11.089844 7.917969 11.089844 7.871094 C 11.085938 7.847656 11.085938 7.824219 11.085938 7.796875 C 11.085938 7.546875 11.167969 7.367188 11.34375 7.1875 C 11.382812 7.144531 11.425781 7.105469 11.46875 7.0625 C 11.875 6.644531 11.992188 6.074219 12.019531 5.511719 C 12.023438 5.417969 12.03125 5.339844 12.0625 5.25 C 11.8125 5.425781 11.558594 5.605469 11.308594 5.785156 C 11.261719 5.820312 11.210938 5.855469 11.164062 5.890625 C 11.066406 5.960938 10.96875 6.03125 10.871094 6.105469 C 10.84375 6.125 10.816406 6.148438 10.789062 6.167969 C 10.765625 6.183594 10.746094 6.203125 10.722656 6.21875 C 10.628906 6.261719 10.566406 6.25 10.46875 6.21875 C 10.398438 6.109375 10.398438 6.066406 10.398438 5.9375 C 10.398438 5.902344 10.398438 5.863281 10.398438 5.828125 C 10.398438 5.75 10.398438 5.671875 10.398438 5.59375 C 10.398438 5.363281 10.398438 5.363281 10.300781 5.164062 C 10.1875 5.070312 10.109375 5.058594 9.964844 5.054688 C 9.933594 5.054688 9.902344 5.054688 9.871094 5.054688 C 9.804688 5.054688 9.738281 5.054688 9.671875 5.050781 C 9.445312 5.046875 9.332031 5.015625 9.167969 4.855469 C 9.058594 4.71875 9.027344 4.628906 9.023438 4.457031 C 9.023438 4.421875 9.023438 4.386719 9.023438 4.351562 C 9.023438 4.3125 9.023438 4.273438 9.023438 4.234375 C 9.023438 4.195312 9.023438 4.152344 9.023438 4.109375 C 9.019531 3.976562 9.019531 3.84375 9.015625 3.710938 C 9.015625 3.664062 9.015625 3.617188 9.015625 3.570312 C 9.015625 3.351562 9.011719 3.132812 9.007812 2.917969 C 9.007812 2.667969 9.003906 2.414062 9 2.164062 C 9 1.972656 8.996094 1.777344 8.996094 1.585938 C 8.992188 1.46875 8.992188 1.351562 8.992188 1.234375 C 8.992188 1.109375 8.988281 0.976562 8.988281 0.847656 C 8.988281 0.8125 8.984375 0.773438 8.984375 0.734375 C 8.984375 0.5 9.003906 0.3125 9.171875 0.140625 C 9.316406 0.015625 9.394531 -0.00390625 9.582031 -0.00390625 Z M 9.582031 -0.00390625 "/>
<path style=" stroke:none;fill-rule:nonzero;fill:rgb(71.764708%,89.411765%,27.450982%);fill-opacity:1;" d="M 14.9375 4.75 C 14.957031 4.75 14.976562 4.75 15 4.75 C 15.402344 5.476562 15.710938 6.214844 15.875 7.03125 C 15.882812 7.0625 15.886719 7.09375 15.894531 7.125 C 16.277344 8.996094 15.867188 11.019531 14.839844 12.617188 C 14.625 12.9375 14.386719 13.246094 14.125 13.527344 C 14.070312 13.585938 14.015625 13.648438 13.964844 13.710938 C 12.976562 14.839844 11.507812 15.570312 10.0625 15.875 C 10.03125 15.882812 10 15.890625 9.96875 15.894531 C 9.085938 16.078125 8.070312 16.089844 7.1875 15.90625 C 7.160156 15.902344 7.132812 15.894531 7.101562 15.890625 C 5.753906 15.625 4.523438 14.996094 3.507812 14.0625 C 3.460938 14.019531 3.410156 13.976562 3.355469 13.9375 C 3.289062 13.878906 3.234375 13.824219 3.175781 13.757812 C 3.105469 13.671875 3.035156 13.597656 2.957031 13.523438 C 2.84375 13.410156 2.746094 13.289062 2.648438 13.164062 C 2.625 13.128906 2.625 13.128906 2.597656 13.09375 C 2.417969 12.851562 2.253906 12.601562 2.097656 12.339844 C 2.070312 12.289062 2.035156 12.242188 2.003906 12.195312 C 1.96875 12.125 1.96875 12.125 1.976562 12.0625 C 2.015625 11.957031 2.109375 11.898438 2.199219 11.835938 C 2.21875 11.820312 2.238281 11.804688 2.257812 11.789062 C 2.609375 11.523438 2.984375 11.242188 3.441406 11.265625 C 3.710938 11.3125 3.859375 11.445312 4.03125 11.648438 C 4.203125 11.835938 4.453125 11.957031 4.710938 11.976562 C 4.75 11.976562 4.792969 11.976562 4.835938 11.976562 C 4.859375 11.976562 4.878906 11.976562 4.902344 11.976562 C 5.25 11.96875 5.554688 11.84375 5.8125 11.609375 C 6.257812 11.132812 6.414062 10.417969 6.59375 9.804688 C 6.710938 9.453125 6.945312 9.226562 7.257812 9.039062 C 7.335938 9.003906 7.40625 8.984375 7.492188 8.96875 C 7.515625 8.960938 7.539062 8.953125 7.566406 8.949219 C 7.585938 8.945312 7.605469 8.941406 7.625 8.9375 C 7.625 8.957031 7.625 8.976562 7.625 8.996094 C 7.625 9.480469 7.628906 9.960938 7.632812 10.445312 C 7.632812 10.675781 7.632812 10.910156 7.632812 11.140625 C 7.632812 11.34375 7.632812 11.546875 7.636719 11.75 C 7.636719 11.859375 7.636719 11.96875 7.636719 12.074219 C 7.636719 12.195312 7.636719 12.316406 7.640625 12.4375 C 7.640625 12.46875 7.640625 12.507812 7.640625 12.542969 C 7.640625 12.734375 7.652344 12.851562 7.78125 13 C 7.925781 13.132812 8.027344 13.160156 8.21875 13.160156 C 8.246094 13.160156 8.277344 13.160156 8.308594 13.160156 C 8.367188 13.164062 8.429688 13.164062 8.492188 13.160156 C 8.683594 13.164062 8.789062 13.191406 8.929688 13.328125 C 9.011719 13.425781 9.003906 13.5 9.007812 13.625 C 9.007812 13.664062 9.007812 13.699219 9.007812 13.738281 C 9.011719 13.816406 9.011719 13.898438 9.015625 13.976562 C 9.015625 14.03125 9.015625 14.03125 9.015625 14.089844 C 9.015625 14.125 9.015625 14.15625 9.019531 14.195312 C 9.023438 14.28125 9.023438 14.28125 9.074219 14.339844 C 9.125 14.382812 9.125 14.382812 9.210938 14.375 C 9.351562 14.332031 9.453125 14.253906 9.570312 14.164062 C 9.621094 14.125 9.671875 14.089844 9.71875 14.054688 C 9.746094 14.03125 9.773438 14.015625 9.796875 13.996094 C 9.917969 13.90625 10.042969 13.816406 10.164062 13.726562 C 10.210938 13.695312 10.257812 13.660156 10.304688 13.628906 C 10.429688 13.535156 10.558594 13.445312 10.6875 13.351562 C 10.707031 13.339844 10.722656 13.324219 10.742188 13.3125 C 10.890625 13.203125 10.960938 13.183594 11.148438 13.183594 C 11.167969 13.183594 11.191406 13.183594 11.210938 13.183594 C 11.257812 13.183594 11.304688 13.183594 11.351562 13.183594 C 11.429688 13.179688 11.5 13.179688 11.578125 13.179688 C 11.789062 13.179688 12 13.179688 12.210938 13.179688 C 12.339844 13.175781 12.46875 13.175781 12.597656 13.175781 C 12.648438 13.175781 12.695312 13.171875 12.746094 13.171875 C 13.117188 13.183594 13.117188 13.183594 13.4375 13.03125 C 13.621094 12.832031 13.613281 12.625 13.609375 12.367188 C 13.605469 12.300781 13.605469 12.238281 13.605469 12.175781 C 13.605469 12.109375 13.601562 12.039062 13.601562 11.972656 C 13.597656 11.832031 13.597656 11.6875 13.597656 11.546875 C 13.59375 11.171875 13.585938 10.792969 13.582031 10.417969 C 13.578125 10.171875 13.574219 9.921875 13.574219 9.671875 C 13.570312 9.53125 13.570312 9.394531 13.566406 9.253906 C 13.566406 9.164062 13.566406 9.078125 13.5625 8.992188 C 13.5625 8.929688 13.5625 8.871094 13.5625 8.8125 C 13.5625 8.511719 13.671875 8.367188 13.875 8.15625 C 14.265625 7.613281 14.351562 6.921875 14.273438 6.273438 C 14.199219 5.835938 13.964844 5.453125 13.679688 5.125 C 13.625 5.0625 13.625 5.0625 13.625 5.03125 C 13.65625 5.03125 13.683594 5.03125 13.710938 5.03125 C 13.820312 5.03125 13.929688 5.027344 14.039062 5.027344 C 14.085938 5.023438 14.132812 5.023438 14.179688 5.023438 C 14.558594 5.03125 14.558594 5.03125 14.875 4.84375 C 14.894531 4.8125 14.914062 4.78125 14.9375 4.75 Z M 14.9375 4.75 "/>
<path style=" stroke:none;fill-rule:nonzero;fill:rgb(97.647059%,96.862745%,96.862745%);fill-opacity:1;" d="M 5.75 1.6875 C 6.132812 2.054688 6.410156 2.582031 6.445312 3.113281 C 6.449219 3.40625 6.449219 3.714844 6.25 3.949219 C 6.148438 4.101562 6.171875 4.277344 6.171875 4.453125 C 6.171875 4.511719 6.171875 4.574219 6.171875 4.632812 C 6.171875 4.699219 6.171875 4.761719 6.171875 4.828125 C 6.171875 4.960938 6.171875 5.097656 6.171875 5.230469 C 6.171875 5.566406 6.171875 5.898438 6.171875 6.234375 C 6.175781 6.496094 6.175781 6.757812 6.171875 7.015625 C 6.171875 7.148438 6.171875 7.285156 6.175781 7.417969 C 6.175781 7.519531 6.175781 7.625 6.175781 7.726562 C 6.175781 7.765625 6.175781 7.800781 6.175781 7.835938 C 6.175781 8.054688 6.148438 8.210938 6 8.375 C 5.855469 8.488281 5.746094 8.535156 5.5625 8.539062 C 5.535156 8.539062 5.503906 8.539062 5.472656 8.539062 C 5.410156 8.542969 5.347656 8.542969 5.285156 8.546875 C 5.0625 8.546875 5.0625 8.546875 4.875 8.65625 C 4.777344 8.761719 4.769531 8.832031 4.769531 8.972656 C 4.769531 9.007812 4.769531 9.046875 4.769531 9.085938 C 4.769531 9.164062 4.769531 9.242188 4.769531 9.316406 C 4.765625 9.632812 4.765625 9.632812 4.679688 9.730469 C 4.59375 9.78125 4.59375 9.78125 4.519531 9.785156 C 4.402344 9.734375 4.300781 9.664062 4.195312 9.585938 C 4.171875 9.570312 4.152344 9.554688 4.125 9.535156 C 4.054688 9.484375 3.980469 9.429688 3.90625 9.375 C 3.859375 9.339844 3.8125 9.304688 3.765625 9.273438 C 3.695312 9.222656 3.625 9.171875 3.554688 9.121094 C 3.386719 9 3.21875 8.878906 3.046875 8.757812 C 3.027344 8.742188 3.003906 8.726562 2.980469 8.710938 C 2.960938 8.695312 2.9375 8.679688 2.917969 8.664062 C 2.898438 8.652344 2.882812 8.640625 2.863281 8.625 C 2.746094 8.550781 2.640625 8.558594 2.507812 8.5625 C 2.472656 8.5625 2.472656 8.5625 2.441406 8.5625 C 2.394531 8.5625 2.347656 8.5625 2.300781 8.5625 C 2.226562 8.5625 2.152344 8.5625 2.078125 8.5625 C 1.867188 8.566406 1.65625 8.566406 1.445312 8.570312 C 1.316406 8.570312 1.1875 8.570312 1.058594 8.574219 C 1.007812 8.574219 0.960938 8.574219 0.914062 8.574219 C 0.34375 8.585938 0.34375 8.585938 0.136719 8.390625 C 0.0195312 8.257812 -0.00390625 8.152344 -0.00390625 7.980469 C -0.00390625 7.945312 -0.00390625 7.90625 -0.0078125 7.871094 C -0.0078125 7.828125 -0.0078125 7.789062 -0.0078125 7.75 C -0.0078125 7.703125 -0.0078125 7.664062 -0.0078125 7.621094 C -0.0078125 7.480469 -0.0078125 7.339844 -0.0078125 7.199219 C -0.0078125 7.148438 -0.0078125 7.101562 -0.0078125 7.054688 C -0.0078125 6.851562 -0.0117188 6.652344 -0.0117188 6.449219 C -0.0117188 6.164062 -0.0117188 5.875 -0.015625 5.585938 C -0.015625 5.382812 -0.015625 5.179688 -0.015625 4.976562 C -0.015625 4.859375 -0.015625 4.734375 -0.015625 4.617188 C -0.0195312 4.5 -0.0195312 4.386719 -0.0195312 4.273438 C -0.0195312 4.210938 -0.0195312 4.148438 -0.0195312 4.089844 C -0.0195312 3.867188 -0.00390625 3.695312 0.15625 3.53125 C 0.308594 3.402344 0.453125 3.390625 0.648438 3.398438 C 0.6875 3.398438 0.6875 3.398438 0.726562 3.398438 C 0.785156 3.398438 0.84375 3.398438 0.898438 3.402344 C 0.988281 3.402344 1.078125 3.40625 1.171875 3.40625 C 1.429688 3.40625 1.6875 3.410156 1.945312 3.417969 C 2.101562 3.421875 2.261719 3.421875 2.417969 3.421875 C 2.476562 3.421875 2.539062 3.421875 2.597656 3.425781 C 2.972656 3.441406 2.972656 3.441406 3.292969 3.273438 C 3.394531 3.175781 3.484375 3.070312 3.574219 2.964844 C 3.710938 2.804688 3.890625 2.6875 4.0625 2.5625 C 4.082031 2.546875 4.101562 2.535156 4.121094 2.519531 C 5.460938 1.546875 5.460938 1.546875 5.75 1.6875 Z M 5.75 1.6875 "/>
<path style=" stroke:none;fill-rule:nonzero;fill:rgb(86.274511%,28.627452%,33.333334%);fill-opacity:1;" d="M 9.582031 -0.00390625 C 9.613281 -0.00390625 9.613281 -0.00390625 9.648438 -0.00390625 C 9.71875 -0.0078125 9.789062 -0.0078125 9.863281 -0.0078125 C 9.914062 -0.0078125 9.964844 -0.0078125 10.015625 -0.0078125 C 10.1875 -0.0078125 10.359375 -0.0078125 10.527344 -0.0078125 C 10.585938 -0.0078125 10.644531 -0.0078125 10.703125 -0.0078125 C 10.945312 -0.0078125 11.1875 -0.0117188 11.433594 -0.0117188 C 11.78125 -0.0117188 12.128906 -0.0117188 12.476562 -0.015625 C 12.726562 -0.015625 12.96875 -0.015625 13.214844 -0.015625 C 13.359375 -0.015625 13.507812 -0.015625 13.652344 -0.015625 C 13.792969 -0.0195312 13.929688 -0.0195312 14.066406 -0.0195312 C 14.117188 -0.0195312 14.167969 -0.0195312 14.21875 -0.0195312 C 14.691406 -0.0234375 14.691406 -0.0234375 14.859375 0.109375 C 15.0625 0.3125 15.050781 0.515625 15.046875 0.789062 C 15.046875 0.832031 15.046875 0.871094 15.050781 0.914062 C 15.050781 1.027344 15.050781 1.140625 15.050781 1.253906 C 15.050781 1.347656 15.050781 1.441406 15.050781 1.539062 C 15.050781 1.761719 15.050781 1.984375 15.050781 2.207031 C 15.050781 2.4375 15.050781 2.667969 15.054688 2.898438 C 15.054688 3.09375 15.054688 3.292969 15.054688 3.492188 C 15.054688 3.609375 15.054688 3.726562 15.054688 3.84375 C 15.054688 3.953125 15.054688 4.066406 15.054688 4.175781 C 15.054688 4.234375 15.054688 4.296875 15.054688 4.355469 C 15.054688 4.5625 15.039062 4.703125 14.898438 4.859375 C 14.742188 4.996094 14.609375 5.046875 14.398438 5.046875 C 14.375 5.046875 14.351562 5.046875 14.328125 5.046875 C 14.28125 5.046875 14.234375 5.042969 14.1875 5.042969 C 14.117188 5.042969 14.039062 5.042969 13.96875 5.042969 C 13.753906 5.042969 13.542969 5.042969 13.332031 5.039062 C 13.203125 5.039062 13.074219 5.039062 12.945312 5.039062 C 12.894531 5.039062 12.84375 5.039062 12.796875 5.039062 C 12.476562 5.03125 12.257812 5.074219 12 5.28125 C 11.953125 5.316406 11.90625 5.351562 11.855469 5.382812 C 11.808594 5.417969 11.765625 5.453125 11.71875 5.488281 C 11.664062 5.527344 11.613281 5.5625 11.5625 5.601562 C 11.523438 5.632812 11.523438 5.632812 11.484375 5.660156 C 11.359375 5.753906 11.226562 5.847656 11.101562 5.941406 C 11.078125 5.957031 11.054688 5.976562 11.03125 5.992188 C 10.96875 6.035156 10.90625 6.082031 10.84375 6.125 C 10.816406 6.144531 10.816406 6.144531 10.789062 6.164062 C 10.703125 6.226562 10.664062 6.25 10.554688 6.25 C 10.46875 6.21875 10.46875 6.21875 10.40625 6.125 C 10.398438 6.039062 10.398438 6.039062 10.398438 5.9375 C 10.398438 5.902344 10.398438 5.863281 10.398438 5.828125 C 10.398438 5.75 10.398438 5.671875 10.398438 5.59375 C 10.398438 5.363281 10.398438 5.363281 10.300781 5.164062 C 10.1875 5.070312 10.109375 5.058594 9.964844 5.054688 C 9.933594 5.054688 9.902344 5.054688 9.871094 5.054688 C 9.804688 5.054688 9.738281 5.054688 9.671875 5.050781 C 9.445312 5.046875 9.332031 5.015625 9.167969 4.855469 C 9.058594 4.71875 9.027344 4.628906 9.023438 4.457031 C 9.023438 4.421875 9.023438 4.386719 9.023438 4.351562 C 9.023438 4.3125 9.023438 4.273438 9.023438 4.234375 C 9.023438 4.195312 9.023438 4.152344 9.023438 4.109375 C 9.019531 3.976562 9.019531 3.84375 9.015625 3.710938 C 9.015625 3.664062 9.015625 3.617188 9.015625 3.570312 C 9.015625 3.351562 9.011719 3.132812 9.007812 2.917969 C 9.007812 2.667969 9.003906 2.414062 9 2.164062 C 9 1.972656 8.996094 1.777344 8.996094 1.585938 C 8.992188 1.46875 8.992188 1.351562 8.992188 1.234375 C 8.992188 1.109375 8.988281 0.976562 8.988281 0.847656 C 8.988281 0.8125 8.984375 0.773438 8.984375 0.734375 C 8.984375 0.5 9.003906 0.3125 9.171875 0.140625 C 9.316406 0.015625 9.394531 -0.00390625 9.582031 -0.00390625 Z M 9.582031 -0.00390625 "/>
<path style=" stroke:none;fill-rule:nonzero;fill:rgb(58.039218%,80.000001%,82.745099%);fill-opacity:1;" d="M 14.9375 4.75 C 14.957031 4.75 14.976562 4.75 15 4.75 C 15.402344 5.476562 15.710938 6.214844 15.875 7.03125 C 15.882812 7.078125 15.882812 7.078125 15.894531 7.125 C 16.277344 8.996094 15.867188 11.019531 14.839844 12.617188 C 14.625 12.9375 14.386719 13.246094 14.125 13.527344 C 14.070312 13.585938 14.015625 13.648438 13.964844 13.710938 C 13.421875 14.335938 12.722656 14.796875 12 15.1875 C 11.984375 15.164062 11.964844 15.144531 11.949219 15.121094 C 11.867188 15.023438 11.785156 14.925781 11.703125 14.828125 C 11.667969 14.789062 11.632812 14.75 11.601562 14.710938 C 11.539062 14.640625 11.476562 14.566406 11.414062 14.492188 C 11.171875 14.21875 10.957031 13.925781 10.75 13.625 C 10.730469 13.597656 10.710938 13.566406 10.6875 13.539062 C 10.65625 13.46875 10.65625 13.46875 10.664062 13.40625 C 10.703125 13.304688 10.757812 13.273438 10.851562 13.21875 C 11.019531 13.15625 11.195312 13.167969 11.375 13.167969 C 11.445312 13.171875 11.519531 13.171875 11.59375 13.167969 C 11.75 13.167969 11.90625 13.167969 12.0625 13.171875 C 12.242188 13.171875 12.425781 13.171875 12.605469 13.171875 C 12.679688 13.171875 12.75 13.171875 12.820312 13.171875 C 13.152344 13.175781 13.152344 13.175781 13.4375 13.03125 C 13.621094 12.832031 13.613281 12.625 13.609375 12.367188 C 13.605469 12.300781 13.605469 12.238281 13.605469 12.175781 C 13.605469 12.109375 13.601562 12.039062 13.601562 11.972656 C 13.597656 11.832031 13.597656 11.6875 13.597656 11.546875 C 13.59375 11.171875 13.585938 10.792969 13.582031 10.417969 C 13.578125 10.171875 13.574219 9.921875 13.574219 9.671875 C 13.570312 9.53125 13.570312 9.394531 13.566406 9.253906 C 13.566406 9.164062 13.566406 9.078125 13.5625 8.992188 C 13.5625 8.929688 13.5625 8.871094 13.5625 8.8125 C 13.5625 8.511719 13.671875 8.367188 13.875 8.15625 C 14.265625 7.613281 14.351562 6.921875 14.273438 6.273438 C 14.199219 5.835938 13.964844 5.453125 13.679688 5.125 C 13.625 5.0625 13.625 5.0625 13.625 5.03125 C 13.65625 5.03125 13.683594 5.03125 13.710938 5.03125 C 13.820312 5.03125 13.929688 5.027344 14.039062 5.027344 C 14.085938 5.023438 14.132812 5.023438 14.179688 5.023438 C 14.558594 5.03125 14.558594 5.03125 14.875 4.84375 C 14.894531 4.8125 14.914062 4.78125 14.9375 4.75 Z M 14.9375 4.75 "/>
<path style=" stroke:none;fill-rule:nonzero;fill:rgb(71.764708%,89.411765%,27.450982%);fill-opacity:1;" d="M 8.414062 1.089844 C 8.488281 1.089844 8.5625 1.089844 8.632812 1.089844 C 8.679688 1.089844 8.726562 1.089844 8.773438 1.089844 C 8.796875 1.089844 8.820312 1.089844 8.84375 1.089844 C 8.996094 1.089844 8.996094 1.089844 9.03125 1.125 C 9.035156 1.171875 9.035156 1.214844 9.035156 1.261719 C 9.035156 1.289062 9.035156 1.320312 9.035156 1.347656 C 9.035156 1.382812 9.035156 1.414062 9.035156 1.445312 C 9.035156 1.480469 9.035156 1.515625 9.039062 1.550781 C 9.039062 1.625 9.039062 1.695312 9.039062 1.769531 C 9.039062 1.886719 9.039062 2.003906 9.039062 2.121094 C 9.039062 2.453125 9.042969 2.785156 9.042969 3.117188 C 9.046875 3.320312 9.046875 3.523438 9.046875 3.726562 C 9.046875 3.804688 9.046875 3.882812 9.046875 3.957031 C 9.046875 4.066406 9.046875 4.175781 9.050781 4.28125 C 9.050781 4.3125 9.046875 4.347656 9.046875 4.378906 C 9.050781 4.546875 9.0625 4.667969 9.15625 4.8125 C 9.183594 4.835938 9.210938 4.859375 9.242188 4.882812 C 9.328125 4.988281 9.328125 5.035156 9.320312 5.167969 C 9.320312 5.195312 9.316406 5.222656 9.3125 5.25 C 9.308594 5.28125 9.304688 5.3125 9.304688 5.34375 C 9.238281 5.878906 9.027344 6.304688 8.617188 6.65625 C 8.292969 6.894531 7.921875 7.019531 7.523438 7.015625 C 7.492188 7.015625 7.464844 7.015625 7.433594 7.011719 C 7.0625 7.003906 6.746094 6.890625 6.4375 6.6875 C 6.414062 6.675781 6.390625 6.664062 6.367188 6.652344 C 6.277344 6.601562 6.21875 6.550781 6.15625 6.46875 C 6.113281 6.289062 6.121094 6.113281 6.125 5.929688 C 6.125 5.875 6.125 5.824219 6.125 5.769531 C 6.125 5.660156 6.125 5.546875 6.125 5.4375 C 6.128906 5.296875 6.128906 5.15625 6.128906 5.011719 C 6.128906 4.902344 6.128906 4.792969 6.132812 4.683594 C 6.132812 4.632812 6.132812 4.578125 6.132812 4.527344 C 6.132812 4.03125 6.132812 4.03125 6.3125 3.8125 C 6.46875 3.488281 6.445312 3.0625 6.351562 2.722656 C 6.234375 2.417969 6.085938 2.121094 5.875 1.875 C 5.71875 1.691406 5.71875 1.691406 5.71875 1.625 C 6.332031 1.378906 6.96875 1.210938 7.625 1.125 C 7.65625 1.121094 7.65625 1.121094 7.691406 1.117188 C 7.929688 1.085938 8.171875 1.089844 8.414062 1.089844 Z M 8.414062 1.089844 "/>
<path style=" stroke:none;fill-rule:nonzero;fill:rgb(67.058825%,83.92157%,25.490198%);fill-opacity:1;" d="M 3.53125 11.28125 C 3.644531 11.355469 3.671875 11.417969 3.734375 11.539062 C 4.703125 13.277344 6.382812 14.515625 8.28125 15.0625 C 8.964844 15.246094 9.648438 15.320312 10.355469 15.320312 C 10.378906 15.320312 10.40625 15.320312 10.429688 15.320312 C 10.820312 15.320312 11.199219 15.296875 11.585938 15.230469 C 11.703125 15.210938 11.820312 15.199219 11.9375 15.1875 C 11.421875 15.621094 10.550781 15.78125 9.90625 15.90625 C 9.882812 15.910156 9.855469 15.917969 9.832031 15.921875 C 9 16.089844 8.015625 16.078125 7.1875 15.90625 C 7.148438 15.898438 7.148438 15.898438 7.101562 15.890625 C 5.753906 15.625 4.523438 14.996094 3.507812 14.0625 C 3.460938 14.019531 3.410156 13.976562 3.355469 13.9375 C 3.289062 13.878906 3.234375 13.824219 3.175781 13.757812 C 3.105469 13.671875 3.035156 13.597656 2.957031 13.523438 C 2.84375 13.410156 2.746094 13.289062 2.648438 13.164062 C 2.632812 13.140625 2.617188 13.117188 2.597656 13.09375 C 2.417969 12.851562 2.253906 12.601562 2.097656 12.339844 C 2.070312 12.289062 2.035156 12.242188 2.003906 12.195312 C 1.96875 12.125 1.96875 12.125 1.976562 12.0625 C 2.015625 11.957031 2.109375 11.898438 2.199219 11.835938 C 2.21875 11.820312 2.238281 11.804688 2.257812 11.789062 C 2.632812 11.503906 3.039062 11.207031 3.53125 11.28125 Z M 3.53125 11.28125 "/>
<path style=" stroke:none;fill-rule:nonzero;fill:rgb(84.313726%,18.431373%,23.529412%);fill-opacity:1;" d="M 9.78125 0 C 9.792969 1.402344 9.800781 2.804688 9.8125 4.25 C 9.976562 4.269531 10.140625 4.289062 10.3125 4.3125 C 10.363281 4.332031 10.414062 4.351562 10.46875 4.375 C 10.675781 4.386719 10.855469 4.308594 11.039062 4.21875 C 11.0625 4.207031 11.089844 4.195312 11.117188 4.179688 C 11.34375 4.066406 11.546875 3.933594 11.75 3.78125 C 11.777344 3.761719 11.804688 3.742188 11.828125 3.722656 C 11.886719 3.679688 11.945312 3.636719 12 3.59375 C 12.023438 3.617188 12.050781 3.636719 12.078125 3.660156 C 12.347656 3.882812 12.625 4.058594 12.9375 4.21875 C 12.96875 4.234375 13.003906 4.253906 13.039062 4.269531 C 13.195312 4.347656 13.320312 4.40625 13.5 4.375 C 13.515625 4.359375 13.53125 4.34375 13.542969 4.328125 C 13.609375 4.265625 13.648438 4.269531 13.734375 4.269531 C 13.765625 4.269531 13.792969 4.269531 13.824219 4.269531 C 13.855469 4.273438 13.886719 4.273438 13.917969 4.273438 C 13.949219 4.273438 13.980469 4.273438 14.015625 4.273438 C 14.117188 4.273438 14.21875 4.273438 14.320312 4.273438 C 14.386719 4.273438 14.457031 4.277344 14.523438 4.277344 C 14.695312 4.277344 14.863281 4.28125 15.03125 4.28125 C 15.03125 4.339844 15.035156 4.398438 15.035156 4.460938 C 15.039062 4.492188 15.039062 4.527344 15.039062 4.5625 C 15.027344 4.710938 14.957031 4.808594 14.84375 4.90625 C 14.6875 5.007812 14.589844 5.046875 14.398438 5.046875 C 14.375 5.046875 14.351562 5.046875 14.328125 5.046875 C 14.28125 5.046875 14.234375 5.042969 14.1875 5.042969 C 14.117188 5.042969 14.039062 5.042969 13.96875 5.042969 C 13.753906 5.042969 13.542969 5.042969 13.332031 5.039062 C 13.203125 5.039062 13.074219 5.039062 12.945312 5.039062 C 12.894531 5.039062 12.84375 5.039062 12.796875 5.039062 C 12.476562 5.03125 12.257812 5.074219 12 5.28125 C 11.953125 5.316406 11.90625 5.351562 11.855469 5.382812 C 11.808594 5.417969 11.765625 5.453125 11.71875 5.488281 C 11.664062 5.527344 11.613281 5.5625 11.5625 5.601562 C 11.523438 5.632812 11.523438 5.632812 11.484375 5.660156 C 11.359375 5.753906 11.226562 5.847656 11.101562 5.941406 C 11.078125 5.957031 11.054688 5.976562 11.03125 5.992188 C 10.96875 6.035156 10.90625 6.082031 10.84375 6.125 C 10.816406 6.144531 10.816406 6.144531 10.789062 6.164062 C 10.703125 6.226562 10.664062 6.25 10.554688 6.25 C 10.46875 6.21875 10.46875 6.21875 10.40625 6.125 C 10.398438 6.039062 10.398438 6.039062 10.398438 5.9375 C 10.398438 5.902344 10.398438 5.863281 10.398438 5.828125 C 10.398438 5.75 10.398438 5.671875 10.398438 5.59375 C 10.398438 5.363281 10.398438 5.363281 10.300781 5.164062 C 10.1875 5.070312 10.109375 5.058594 9.964844 5.054688 C 9.933594 5.054688 9.902344 5.054688 9.871094 5.054688 C 9.804688 5.054688 9.738281 5.054688 9.671875 5.050781 C 9.445312 5.046875 9.332031 5.015625 9.167969 4.855469 C 9.058594 4.71875 9.027344 4.628906 9.023438 4.457031 C 9.023438 4.421875 9.023438 4.386719 9.023438 4.351562 C 9.023438 4.3125 9.023438 4.273438 9.023438 4.234375 C 9.023438 4.195312 9.023438 4.152344 9.023438 4.109375 C 9.019531 3.976562 9.019531 3.84375 9.015625 3.710938 C 9.015625 3.664062 9.015625 3.617188 9.015625 3.570312 C 9.015625 3.351562 9.011719 3.132812 9.007812 2.917969 C 9.007812 2.667969 9.003906 2.414062 9 2.164062 C 9 1.972656 8.996094 1.777344 8.996094 1.585938 C 8.992188 1.46875 8.992188 1.351562 8.992188 1.234375 C 8.992188 1.109375 8.988281 0.976562 8.988281 0.847656 C 8.988281 0.8125 8.984375 0.773438 8.984375 0.734375 C 8.984375 0.5 9.003906 0.3125 9.171875 0.140625 C 9.390625 -0.0507812 9.429688 0 9.78125 0 Z M 9.78125 0 "/>
<path style=" stroke:none;fill-rule:nonzero;fill:rgb(99.607843%,64.313728%,25.882354%);fill-opacity:1;" d="M 8.375 8.1875 C 8.386719 9.578125 8.394531 10.972656 8.40625 12.40625 C 8.59375 12.425781 8.777344 12.445312 8.96875 12.46875 C 9.238281 12.585938 9.46875 12.742188 9.617188 13 C 9.648438 13.070312 9.648438 13.070312 9.722656 13.078125 C 9.859375 13.054688 9.949219 12.972656 10.054688 12.882812 C 10.394531 12.617188 10.6875 12.421875 11.132812 12.425781 C 11.15625 12.425781 11.1875 12.425781 11.210938 12.425781 C 11.300781 12.425781 11.390625 12.429688 11.480469 12.429688 C 11.542969 12.429688 11.601562 12.429688 11.664062 12.429688 C 11.828125 12.429688 11.992188 12.429688 12.152344 12.429688 C 12.320312 12.429688 12.484375 12.433594 12.648438 12.433594 C 12.976562 12.433594 13.300781 12.4375 13.625 12.4375 C 13.625 12.492188 13.628906 12.546875 13.628906 12.601562 C 13.628906 12.648438 13.628906 12.648438 13.632812 12.691406 C 13.621094 12.832031 13.5625 12.929688 13.46875 13.03125 C 13.300781 13.164062 13.183594 13.191406 12.976562 13.191406 C 12.929688 13.191406 12.886719 13.191406 12.84375 13.191406 C 12.820312 13.191406 12.796875 13.191406 12.773438 13.1875 C 12.648438 13.1875 12.523438 13.191406 12.398438 13.191406 C 12.238281 13.191406 12.078125 13.191406 11.921875 13.191406 C 11.789062 13.1875 11.664062 13.191406 11.535156 13.191406 C 11.484375 13.191406 11.4375 13.191406 11.386719 13.191406 C 11.070312 13.1875 10.851562 13.230469 10.59375 13.4375 C 10.574219 13.453125 10.554688 13.464844 10.539062 13.480469 C 10.488281 13.515625 10.441406 13.550781 10.398438 13.585938 C 10.203125 13.738281 10.007812 13.882812 9.808594 14.019531 C 9.746094 14.066406 9.679688 14.113281 9.617188 14.160156 C 9.574219 14.191406 9.53125 14.222656 9.484375 14.257812 C 9.464844 14.273438 9.445312 14.289062 9.421875 14.304688 C 9.320312 14.375 9.273438 14.40625 9.144531 14.40625 C 9.0625 14.375 9.0625 14.375 9 14.28125 C 8.992188 14.195312 8.992188 14.195312 8.992188 14.09375 C 8.992188 14.058594 8.992188 14.019531 8.992188 13.984375 C 8.992188 13.90625 8.992188 13.828125 8.992188 13.75 C 8.992188 13.519531 8.992188 13.519531 8.894531 13.320312 C 8.789062 13.226562 8.738281 13.214844 8.601562 13.210938 C 8.570312 13.210938 8.542969 13.210938 8.511719 13.210938 C 8.449219 13.207031 8.386719 13.207031 8.324219 13.203125 C 8.113281 13.199219 7.945312 13.183594 7.78125 13.039062 C 7.761719 13.011719 7.761719 13.011719 7.738281 12.984375 C 7.722656 12.964844 7.707031 12.945312 7.691406 12.925781 C 7.621094 12.828125 7.621094 12.761719 7.621094 12.644531 C 7.621094 12.609375 7.621094 12.570312 7.621094 12.535156 C 7.621094 12.496094 7.617188 12.457031 7.617188 12.414062 C 7.617188 12.375 7.617188 12.332031 7.617188 12.289062 C 7.617188 12.175781 7.617188 12.0625 7.617188 11.949219 C 7.617188 11.875 7.617188 11.804688 7.617188 11.734375 C 7.617188 11.511719 7.617188 11.289062 7.617188 11.066406 C 7.617188 10.808594 7.613281 10.550781 7.613281 10.292969 C 7.613281 10.09375 7.613281 9.898438 7.613281 9.699219 C 7.613281 9.578125 7.609375 9.460938 7.609375 9.34375 C 7.609375 9.230469 7.609375 9.117188 7.609375 9.007812 C 7.609375 8.945312 7.609375 8.886719 7.609375 8.824219 C 7.609375 8.625 7.609375 8.492188 7.75 8.34375 C 7.976562 8.140625 8 8.1875 8.375 8.1875 Z M 8.375 8.1875 "/>
<path style=" stroke:none;fill-rule:nonzero;fill:rgb(71.372551%,89.411765%,27.450982%);fill-opacity:1;" d="M 12.898438 4.996094 C 12.984375 4.996094 13.070312 4.992188 13.15625 4.988281 C 13.585938 4.980469 13.585938 4.980469 13.730469 5.109375 C 13.8125 5.199219 13.875 5.300781 13.9375 5.40625 C 13.960938 5.4375 13.960938 5.4375 13.984375 5.472656 C 14.328125 6.003906 14.398438 6.644531 14.285156 7.257812 C 14.183594 7.722656 13.964844 8.160156 13.625 8.5 C 13.605469 8.5 13.585938 8.5 13.5625 8.5 C 13.546875 8.472656 13.527344 8.445312 13.507812 8.414062 C 13.425781 8.296875 13.355469 8.234375 13.21875 8.1875 C 13.058594 8.167969 12.898438 8.167969 12.742188 8.171875 C 12.695312 8.167969 12.648438 8.167969 12.601562 8.167969 C 12.476562 8.167969 12.355469 8.167969 12.234375 8.164062 C 12.039062 8.164062 11.84375 8.164062 11.648438 8.164062 C 11.578125 8.164062 11.511719 8.160156 11.441406 8.160156 C 11.402344 8.160156 11.359375 8.160156 11.316406 8.160156 C 11.261719 8.160156 11.261719 8.160156 11.207031 8.160156 C 11.125 8.15625 11.125 8.15625 11.09375 8.125 C 11.0625 7.792969 11.066406 7.523438 11.28125 7.25 C 11.34375 7.1875 11.40625 7.125 11.46875 7.0625 C 11.816406 6.707031 12.003906 6.179688 12 5.6875 C 12 5.660156 12 5.632812 12 5.601562 C 12 5.546875 12 5.492188 11.996094 5.4375 C 11.996094 5.324219 12.007812 5.25 12.078125 5.160156 C 12.320312 4.984375 12.613281 4.996094 12.898438 4.996094 Z M 12.898438 4.996094 "/>
<path style=" stroke:none;fill-rule:nonzero;fill:rgb(93.725491%,91.37255%,90.196079%);fill-opacity:1;" d="M 0.523438 3.402344 C 0.546875 3.402344 0.574219 3.40625 0.597656 3.40625 C 0.617188 3.40625 0.636719 3.40625 0.65625 3.40625 C 0.65625 3.429688 0.65625 3.453125 0.65625 3.476562 C 0.660156 4.023438 0.664062 4.578125 0.664062 5.125 C 0.667969 5.390625 0.667969 5.660156 0.671875 5.925781 C 0.671875 6.15625 0.671875 6.390625 0.671875 6.621094 C 0.671875 6.742188 0.675781 6.867188 0.675781 6.992188 C 0.675781 7.105469 0.675781 7.21875 0.675781 7.335938 C 0.679688 7.398438 0.679688 7.460938 0.679688 7.523438 C 0.679688 7.5625 0.679688 7.601562 0.679688 7.636719 C 0.679688 7.671875 0.679688 7.703125 0.679688 7.734375 C 0.679688 7.820312 0.679688 7.820312 0.75 7.875 C 0.839844 7.882812 0.839844 7.882812 0.945312 7.882812 C 1.003906 7.882812 1.003906 7.882812 1.066406 7.882812 C 1.089844 7.882812 1.109375 7.882812 1.132812 7.882812 C 1.203125 7.882812 1.273438 7.882812 1.339844 7.882812 C 1.535156 7.886719 1.730469 7.886719 1.925781 7.886719 C 2.046875 7.886719 2.164062 7.886719 2.285156 7.890625 C 2.332031 7.890625 2.375 7.890625 2.421875 7.890625 C 2.84375 7.886719 3.140625 7.976562 3.476562 8.234375 C 3.523438 8.265625 3.570312 8.304688 3.617188 8.335938 C 3.683594 8.386719 3.746094 8.433594 3.8125 8.484375 C 3.894531 8.550781 3.953125 8.59375 4.0625 8.601562 C 4.082031 8.601562 4.101562 8.597656 4.125 8.59375 C 4.132812 8.574219 4.144531 8.554688 4.15625 8.539062 C 4.304688 8.257812 4.464844 8.0625 4.765625 7.9375 C 4.90625 7.898438 5.03125 7.898438 5.171875 7.898438 C 5.214844 7.898438 5.214844 7.898438 5.257812 7.898438 C 5.347656 7.898438 5.4375 7.902344 5.527344 7.902344 C 5.585938 7.902344 5.648438 7.902344 5.710938 7.902344 C 5.859375 7.90625 6.007812 7.90625 6.15625 7.90625 C 6.160156 8.113281 6.132812 8.21875 6 8.375 C 5.855469 8.488281 5.746094 8.535156 5.5625 8.539062 C 5.535156 8.539062 5.503906 8.539062 5.472656 8.539062 C 5.410156 8.542969 5.347656 8.542969 5.285156 8.546875 C 5.0625 8.546875 5.0625 8.546875 4.875 8.65625 C 4.777344 8.761719 4.769531 8.832031 4.769531 8.972656 C 4.769531 9.007812 4.769531 9.046875 4.769531 9.085938 C 4.769531 9.164062 4.769531 9.242188 4.769531 9.316406 C 4.765625 9.632812 4.765625 9.632812 4.679688 9.730469 C 4.59375 9.78125 4.59375 9.78125 4.519531 9.785156 C 4.402344 9.734375 4.300781 9.664062 4.195312 9.585938 C 4.171875 9.570312 4.152344 9.554688 4.125 9.535156 C 4.054688 9.484375 3.980469 9.429688 3.90625 9.375 C 3.859375 9.339844 3.8125 9.304688 3.765625 9.273438 C 3.695312 9.222656 3.625 9.171875 3.554688 9.121094 C 3.386719 9 3.21875 8.878906 3.046875 8.757812 C 3.027344 8.742188 3.003906 8.726562 2.980469 8.710938 C 2.960938 8.695312 2.9375 8.679688 2.917969 8.664062 C 2.898438 8.652344 2.882812 8.640625 2.863281 8.625 C 2.746094 8.550781 2.640625 8.558594 2.507812 8.5625 C 2.472656 8.5625 2.472656 8.5625 2.441406 8.5625 C 2.394531 8.5625 2.347656 8.5625 2.300781 8.5625 C 2.226562 8.5625 2.152344 8.5625 2.078125 8.5625 C 1.867188 8.566406 1.65625 8.566406 1.445312 8.570312 C 1.316406 8.570312 1.1875 8.570312 1.058594 8.574219 C 1.007812 8.574219 0.960938 8.574219 0.914062 8.574219 C 0.34375 8.585938 0.34375 8.585938 0.136719 8.390625 C 0.0195312 8.257812 -0.00390625 8.152344 -0.00390625 7.980469 C -0.00390625 7.945312 -0.00390625 7.90625 -0.0078125 7.871094 C -0.0078125 7.828125 -0.0078125 7.789062 -0.0078125 7.75 C -0.0078125 7.703125 -0.0078125 7.664062 -0.0078125 7.621094 C -0.0078125 7.480469 -0.0078125 7.339844 -0.0078125 7.199219 C -0.0078125 7.148438 -0.0078125 7.101562 -0.0078125 7.054688 C -0.0078125 6.851562 -0.0117188 6.652344 -0.0117188 6.449219 C -0.0117188 6.164062 -0.0117188 5.875 -0.015625 5.585938 C -0.015625 5.382812 -0.015625 5.179688 -0.015625 4.976562 C -0.015625 4.859375 -0.015625 4.734375 -0.015625 4.617188 C -0.0195312 4.5 -0.0195312 4.386719 -0.0195312 4.273438 C -0.0195312 4.210938 -0.0195312 4.148438 -0.0195312 4.089844 C -0.0195312 3.867188 0 3.699219 0.15625 3.53125 C 0.273438 3.429688 0.371094 3.398438 0.523438 3.402344 Z M 0.523438 3.402344 "/>
<path style=" stroke:none;fill-rule:nonzero;fill:rgb(98.039216%,96.470588%,95.686275%);fill-opacity:1;" d="M 9.367188 9.167969 C 9.40625 9.167969 9.445312 9.167969 9.488281 9.167969 C 9.507812 9.167969 9.53125 9.167969 9.550781 9.167969 C 9.613281 9.171875 9.679688 9.171875 9.742188 9.167969 C 10.027344 9.171875 10.273438 9.207031 10.507812 9.382812 C 10.699219 9.578125 10.785156 9.753906 10.789062 10.023438 C 10.789062 10.0625 10.789062 10.101562 10.789062 10.140625 C 10.78125 10.25 10.78125 10.25 10.71875 10.4375 C 11.027344 10.4375 11.335938 10.4375 11.65625 10.4375 C 11.65625 10.191406 11.65625 9.941406 11.65625 9.6875 C 11.53125 9.6875 11.410156 9.6875 11.28125 9.6875 C 11.179688 9.640625 11.179688 9.640625 11.125 9.5625 C 11.105469 9.476562 11.101562 9.398438 11.125 9.3125 C 11.175781 9.238281 11.21875 9.195312 11.308594 9.175781 C 11.386719 9.171875 11.460938 9.171875 11.539062 9.171875 C 11.566406 9.171875 11.59375 9.171875 11.625 9.171875 C 11.679688 9.171875 11.742188 9.171875 11.800781 9.175781 C 11.890625 9.175781 11.980469 9.175781 12.070312 9.175781 C 12.128906 9.175781 12.1875 9.175781 12.242188 9.175781 C 12.269531 9.175781 12.296875 9.175781 12.324219 9.175781 C 12.351562 9.179688 12.375 9.179688 12.402344 9.179688 C 12.421875 9.179688 12.445312 9.179688 12.46875 9.179688 C 12.542969 9.1875 12.59375 9.210938 12.65625 9.25 C 12.71875 9.34375 12.71875 9.34375 12.71875 9.453125 C 12.6875 9.5625 12.6875 9.5625 12.632812 9.640625 C 12.519531 9.695312 12.460938 9.691406 12.335938 9.691406 C 12.304688 9.691406 12.269531 9.6875 12.234375 9.6875 C 12.210938 9.6875 12.183594 9.6875 12.15625 9.6875 C 12.15625 9.714844 12.15625 9.742188 12.15625 9.773438 C 12.15625 10.039062 12.160156 10.304688 12.160156 10.574219 C 12.160156 10.710938 12.160156 10.847656 12.160156 10.984375 C 12.164062 11.117188 12.164062 11.25 12.164062 11.382812 C 12.164062 11.429688 12.164062 11.484375 12.164062 11.53125 C 12.164062 11.601562 12.164062 11.675781 12.164062 11.746094 C 12.164062 11.785156 12.164062 11.824219 12.164062 11.867188 C 12.15625 11.964844 12.148438 12.015625 12.09375 12.09375 C 11.984375 12.167969 11.941406 12.175781 11.8125 12.15625 C 11.703125 12.050781 11.660156 12.003906 11.640625 11.851562 C 11.640625 11.804688 11.640625 11.761719 11.640625 11.71875 C 11.640625 11.695312 11.640625 11.671875 11.640625 11.648438 C 11.640625 11.574219 11.644531 11.5 11.648438 11.425781 C 11.648438 11.375 11.648438 11.324219 11.648438 11.273438 C 11.648438 11.152344 11.652344 11.03125 11.65625 10.90625 C 11.347656 10.90625 11.039062 10.90625 10.71875 10.90625 C 10.75 10.984375 10.75 10.984375 10.78125 11.0625 C 10.8125 11.378906 10.769531 11.601562 10.601562 11.867188 C 10.421875 12.046875 10.203125 12.164062 9.945312 12.167969 C 9.921875 12.164062 9.898438 12.164062 9.875 12.164062 C 9.84375 12.164062 9.84375 12.164062 9.804688 12.164062 C 9.351562 12.15625 8.953125 12.035156 8.617188 11.71875 C 8.5625 11.65625 8.5625 11.65625 8.519531 11.539062 C 8.53125 11.4375 8.53125 11.4375 8.59375 11.34375 C 8.6875 11.28125 8.6875 11.28125 8.789062 11.273438 C 8.898438 11.308594 8.941406 11.335938 9.023438 11.398438 C 9.261719 11.585938 9.496094 11.636719 9.792969 11.640625 C 9.816406 11.640625 9.839844 11.640625 9.867188 11.640625 C 10.007812 11.636719 10.101562 11.625 10.21875 11.53125 C 10.28125 11.417969 10.296875 11.316406 10.28125 11.1875 C 10.214844 11.0625 10.164062 10.984375 10.03125 10.9375 C 9.929688 10.929688 9.929688 10.929688 9.8125 10.929688 C 9.769531 10.929688 9.726562 10.929688 9.679688 10.925781 C 9.613281 10.925781 9.546875 10.925781 9.476562 10.925781 C 9.414062 10.925781 9.347656 10.921875 9.28125 10.921875 C 9.242188 10.921875 9.203125 10.921875 9.164062 10.921875 C 9.046875 10.902344 9.007812 10.875 8.9375 10.78125 C 8.914062 10.6875 8.925781 10.628906 8.9375 10.53125 C 9.011719 10.453125 9.054688 10.4375 9.164062 10.425781 C 9.203125 10.425781 9.242188 10.425781 9.28125 10.425781 C 9.324219 10.425781 9.367188 10.425781 9.40625 10.421875 C 9.476562 10.421875 9.542969 10.421875 9.609375 10.421875 C 9.675781 10.421875 9.742188 10.421875 9.804688 10.421875 C 9.863281 10.421875 9.863281 10.421875 9.921875 10.421875 C 10.066406 10.402344 10.171875 10.34375 10.261719 10.226562 C 10.300781 10.089844 10.296875 9.976562 10.242188 9.851562 C 10.183594 9.773438 10.152344 9.753906 10.0625 9.71875 C 9.964844 9.710938 9.964844 9.710938 9.859375 9.710938 C 9.796875 9.710938 9.796875 9.710938 9.738281 9.710938 C 9.671875 9.710938 9.609375 9.710938 9.546875 9.710938 C 9.488281 9.710938 9.425781 9.707031 9.367188 9.707031 C 9.328125 9.707031 9.292969 9.707031 9.253906 9.707031 C 9.125 9.679688 9.078125 9.632812 9 9.53125 C 8.980469 9.4375 8.980469 9.4375 9 9.34375 C 9.113281 9.203125 9.183594 9.167969 9.367188 9.167969 Z M 9.367188 9.167969 "/>
<path style=" stroke:none;fill-rule:nonzero;fill:rgb(97.647059%,96.078432%,96.078432%);fill-opacity:1;" d="M 12.09375 0.71875 C 12.164062 0.765625 12.164062 0.765625 12.21875 0.84375 C 12.234375 0.9375 12.230469 1.023438 12.226562 1.117188 C 12.226562 1.140625 12.226562 1.167969 12.226562 1.191406 C 12.222656 1.253906 12.21875 1.3125 12.21875 1.375 C 12.257812 1.375 12.300781 1.375 12.34375 1.375 C 12.496094 1.371094 12.648438 1.367188 12.800781 1.367188 C 12.867188 1.367188 12.929688 1.367188 12.996094 1.367188 C 13.09375 1.363281 13.1875 1.363281 13.28125 1.363281 C 13.324219 1.363281 13.324219 1.363281 13.371094 1.359375 C 13.574219 1.359375 13.574219 1.359375 13.675781 1.433594 C 13.734375 1.527344 13.738281 1.578125 13.71875 1.6875 C 13.65625 1.777344 13.605469 1.835938 13.492188 1.855469 C 13.414062 1.859375 13.335938 1.859375 13.257812 1.851562 C 13.226562 1.851562 13.199219 1.851562 13.171875 1.851562 C 13.105469 1.851562 13.035156 1.847656 12.96875 1.84375 C 12.964844 1.871094 12.964844 1.871094 12.960938 1.902344 C 12.882812 2.398438 12.621094 2.839844 12.34375 3.25 C 12.710938 3.554688 13.109375 3.765625 13.539062 3.96875 C 13.59375 4 13.59375 4 13.625 4.0625 C 13.636719 4.183594 13.640625 4.253906 13.578125 4.359375 C 13.46875 4.425781 13.40625 4.417969 13.28125 4.40625 C 13.179688 4.375 13.089844 4.328125 12.992188 4.28125 C 12.96875 4.269531 12.941406 4.257812 12.914062 4.242188 C 12.578125 4.078125 12.289062 3.863281 12 3.625 C 11.984375 3.636719 11.96875 3.648438 11.957031 3.65625 C 11.886719 3.710938 11.820312 3.761719 11.75 3.8125 C 11.714844 3.839844 11.714844 3.839844 11.679688 3.867188 C 11.359375 4.101562 10.949219 4.359375 10.550781 4.421875 C 10.46875 4.40625 10.46875 4.40625 10.394531 4.339844 C 10.335938 4.234375 10.320312 4.183594 10.34375 4.0625 C 10.492188 3.914062 10.65625 3.84375 10.84375 3.757812 C 11.117188 3.632812 11.386719 3.5 11.59375 3.28125 C 11.59375 3.132812 11.542969 3.066406 11.460938 2.953125 C 11.339844 2.765625 11.242188 2.582031 11.15625 2.375 C 11.140625 2.335938 11.121094 2.300781 11.101562 2.261719 C 11.070312 2.175781 11.046875 2.097656 11.027344 2.007812 C 11.023438 1.984375 11.015625 1.960938 11.011719 1.933594 C 11.007812 1.914062 11.003906 1.894531 11 1.875 C 10.960938 1.875 10.917969 1.875 10.875 1.875 C 10.820312 1.871094 10.765625 1.871094 10.710938 1.867188 C 10.6875 1.867188 10.660156 1.867188 10.632812 1.867188 C 10.492188 1.863281 10.421875 1.859375 10.308594 1.773438 C 10.25 1.6875 10.25 1.6875 10.25 1.574219 C 10.28125 1.46875 10.292969 1.4375 10.375 1.375 C 10.4375 1.363281 10.4375 1.363281 10.511719 1.363281 C 10.539062 1.363281 10.566406 1.363281 10.59375 1.363281 C 10.625 1.367188 10.65625 1.367188 10.683594 1.367188 C 10.714844 1.367188 10.746094 1.367188 10.777344 1.367188 C 10.875 1.367188 10.972656 1.367188 11.070312 1.367188 C 11.132812 1.367188 11.199219 1.371094 11.265625 1.371094 C 11.425781 1.371094 11.589844 1.375 11.75 1.375 C 11.75 1.335938 11.746094 1.300781 11.746094 1.265625 C 11.742188 1.214844 11.742188 1.164062 11.742188 1.117188 C 11.742188 1.09375 11.742188 1.070312 11.738281 1.042969 C 11.734375 0.863281 11.734375 0.863281 11.804688 0.765625 C 11.90625 0.695312 11.976562 0.703125 12.09375 0.71875 Z M 12.09375 0.71875 "/>
<path style=" stroke:none;fill-rule:nonzero;fill:rgb(43.529412%,73.333335%,77.64706%);fill-opacity:1;" d="M 1.09375 8.53125 C 1.324219 8.53125 1.554688 8.53125 1.785156 8.53125 C 1.867188 8.53125 1.945312 8.53125 2.023438 8.53125 C 2.132812 8.527344 2.246094 8.527344 2.359375 8.527344 C 2.414062 8.527344 2.414062 8.527344 2.46875 8.527344 C 2.515625 8.527344 2.515625 8.527344 2.566406 8.527344 C 2.59375 8.527344 2.625 8.527344 2.652344 8.527344 C 2.71875 8.53125 2.71875 8.53125 2.75 8.5625 C 2.761719 8.621094 2.769531 8.679688 2.777344 8.738281 C 2.898438 9.578125 3.140625 10.351562 3.5 11.117188 C 3.53125 11.1875 3.53125 11.1875 3.5625 11.28125 C 3.539062 11.28125 3.511719 11.28125 3.484375 11.28125 C 2.957031 11.304688 2.566406 11.570312 2.171875 11.90625 C 2.097656 11.964844 2.023438 12.015625 1.9375 12.0625 C 1.519531 11.234375 1.25 10.382812 1.125 9.46875 C 1.121094 9.441406 1.117188 9.414062 1.113281 9.382812 C 1.097656 9.257812 1.09375 9.132812 1.09375 9.003906 C 1.09375 8.976562 1.09375 8.949219 1.09375 8.921875 C 1.09375 8.878906 1.09375 8.878906 1.09375 8.835938 C 1.09375 8.789062 1.09375 8.789062 1.09375 8.746094 C 1.09375 8.671875 1.09375 8.601562 1.09375 8.53125 Z M 1.09375 8.53125 "/>
<path style=" stroke:none;fill-rule:nonzero;fill:rgb(67.058825%,84.705883%,87.058824%);fill-opacity:1;" d="M 3.1875 4.28125 C 3.324219 4.367188 3.375 4.453125 3.429688 4.601562 C 3.4375 4.621094 3.445312 4.640625 3.453125 4.660156 C 3.480469 4.726562 3.503906 4.796875 3.53125 4.863281 C 3.546875 4.910156 3.566406 4.960938 3.585938 5.007812 C 3.613281 5.089844 3.644531 5.167969 3.675781 5.25 C 3.753906 5.460938 3.835938 5.667969 3.914062 5.878906 C 3.972656 6.023438 4.027344 6.164062 4.082031 6.308594 C 4.121094 6.414062 4.164062 6.515625 4.203125 6.617188 C 4.25 6.734375 4.292969 6.847656 4.335938 6.964844 C 4.351562 7 4.363281 7.035156 4.378906 7.070312 C 4.445312 7.25 4.492188 7.375 4.4375 7.5625 C 4.367188 7.644531 4.324219 7.65625 4.21875 7.671875 C 4.125 7.65625 4.125 7.65625 4 7.53125 C 3.929688 7.34375 3.855469 7.160156 3.78125 6.96875 C 3.316406 6.96875 2.851562 6.96875 2.375 6.96875 C 2.25 7.277344 2.25 7.277344 2.125 7.59375 C 2.015625 7.667969 1.972656 7.675781 1.84375 7.65625 C 1.75 7.59375 1.75 7.59375 1.6875 7.5 C 1.695312 7.3125 1.742188 7.160156 1.8125 6.988281 C 1.820312 6.960938 1.832031 6.9375 1.84375 6.914062 C 1.875 6.828125 1.90625 6.75 1.9375 6.664062 C 1.972656 6.578125 2.003906 6.492188 2.039062 6.40625 C 2.0625 6.34375 2.085938 6.28125 2.109375 6.222656 C 2.195312 5.996094 2.28125 5.769531 2.367188 5.546875 C 2.390625 5.480469 2.414062 5.414062 2.4375 5.351562 C 2.472656 5.257812 2.507812 5.164062 2.542969 5.070312 C 2.574219 4.984375 2.605469 4.898438 2.640625 4.8125 C 2.648438 4.785156 2.65625 4.757812 2.667969 4.734375 C 2.769531 4.464844 2.863281 4.25 3.1875 4.28125 Z M 3.1875 4.28125 "/>
<path style=" stroke:none;fill-rule:nonzero;fill:rgb(58.039218%,80.000001%,82.745099%);fill-opacity:1;" d="M 5.75 1.6875 C 6.132812 2.054688 6.410156 2.582031 6.445312 3.113281 C 6.453125 3.460938 6.414062 3.78125 6.1875 4.0625 C 6.175781 4.0625 6.167969 4.0625 6.15625 4.0625 C 6.152344 4.042969 6.148438 4.023438 6.148438 4 C 6.117188 3.828125 6.085938 3.695312 5.96875 3.5625 C 5.804688 3.449219 5.6875 3.417969 5.488281 3.421875 C 5.449219 3.421875 5.449219 3.421875 5.410156 3.421875 C 5.328125 3.417969 5.242188 3.417969 5.160156 3.417969 C 5.101562 3.417969 5.046875 3.417969 4.988281 3.417969 C 4.835938 3.414062 4.683594 3.414062 4.53125 3.414062 C 4.378906 3.414062 4.222656 3.414062 4.066406 3.410156 C 3.765625 3.410156 3.460938 3.40625 3.15625 3.40625 C 3.1875 3.371094 3.214844 3.335938 3.246094 3.300781 C 3.261719 3.28125 3.28125 3.261719 3.296875 3.242188 C 3.640625 2.84375 5.21875 1.429688 5.75 1.6875 Z M 5.75 1.6875 "/>
<path style=" stroke:none;fill-rule:nonzero;fill:rgb(66.666669%,83.92157%,25.490198%);fill-opacity:1;" d="M 6.398438 1.445312 C 6.484375 1.554688 6.566406 1.660156 6.640625 1.773438 C 6.652344 1.796875 6.667969 1.820312 6.683594 1.847656 C 6.867188 2.140625 7.011719 2.464844 7.0625 2.8125 C 7.066406 2.835938 7.070312 2.859375 7.074219 2.882812 C 7.082031 2.953125 7.089844 3.023438 7.09375 3.09375 C 7.09375 3.117188 7.097656 3.140625 7.097656 3.164062 C 7.117188 3.660156 6.972656 4.136719 6.644531 4.511719 C 6.511719 4.652344 6.371094 4.785156 6.21875 4.90625 C 6.207031 4.90625 6.199219 4.90625 6.1875 4.90625 C 6.183594 4.765625 6.179688 4.628906 6.179688 4.488281 C 6.175781 4.429688 6.175781 4.429688 6.171875 4.371094 C 6.171875 4.140625 6.191406 3.984375 6.304688 3.785156 C 6.464844 3.507812 6.441406 3.117188 6.375 2.8125 C 6.277344 2.476562 6.101562 2.140625 5.875 1.875 C 5.71875 1.691406 5.71875 1.691406 5.71875 1.625 C 5.8125 1.585938 5.910156 1.546875 6.007812 1.507812 C 6.03125 1.496094 6.058594 1.484375 6.085938 1.472656 C 6.289062 1.394531 6.289062 1.394531 6.398438 1.445312 Z M 6.398438 1.445312 "/>
<path style=" stroke:none;fill-rule:nonzero;fill:rgb(66.666669%,83.529413%,25.882354%);fill-opacity:1;" d="M 12.75 5.03125 C 12.734375 5.171875 12.71875 5.316406 12.703125 5.460938 C 12.695312 5.5625 12.683594 5.664062 12.675781 5.765625 C 12.621094 6.347656 12.410156 6.773438 12.007812 7.195312 C 11.824219 7.414062 11.742188 7.644531 11.75 7.929688 C 11.75 7.949219 11.75 7.972656 11.75 7.992188 C 11.75 8.046875 11.75 8.101562 11.75 8.15625 C 11.648438 8.15625 11.542969 8.15625 11.4375 8.15625 C 11.410156 8.15625 11.378906 8.160156 11.351562 8.160156 C 11.308594 8.160156 11.308594 8.160156 11.265625 8.160156 C 11.238281 8.160156 11.210938 8.160156 11.1875 8.160156 C 11.125 8.15625 11.125 8.15625 11.09375 8.125 C 11.0625 7.792969 11.066406 7.523438 11.28125 7.25 C 11.34375 7.1875 11.40625 7.125 11.46875 7.0625 C 11.816406 6.707031 12.003906 6.179688 12 5.6875 C 12 5.265625 12 5.265625 12.085938 5.136719 C 12.289062 5 12.515625 5.011719 12.75 5.03125 Z M 12.75 5.03125 "/>
<path style=" stroke:none;fill-rule:nonzero;fill:rgb(66.666669%,83.92157%,25.882354%);fill-opacity:1;" d="M 6.1875 5.6875 C 6.222656 5.722656 6.222656 5.722656 6.257812 5.757812 C 6.71875 6.214844 7.261719 6.507812 7.921875 6.507812 C 8.261719 6.503906 8.585938 6.414062 8.882812 6.246094 C 8.898438 6.234375 8.917969 6.226562 8.9375 6.21875 C 8.957031 6.230469 8.976562 6.238281 9 6.25 C 8.691406 6.617188 8.335938 6.929688 7.84375 7 C 7.320312 7.035156 6.886719 6.976562 6.4375 6.6875 C 6.414062 6.675781 6.394531 6.664062 6.371094 6.65625 C 6.296875 6.609375 6.242188 6.570312 6.1875 6.5 C 6.15625 6.359375 6.164062 6.226562 6.171875 6.082031 C 6.171875 6.042969 6.171875 6.007812 6.175781 5.96875 C 6.179688 5.875 6.183594 5.78125 6.1875 5.6875 Z M 6.1875 5.6875 "/>
<path style=" stroke:none;fill-rule:nonzero;fill:rgb(86.274511%,29.019609%,33.725491%);fill-opacity:1;" d="M 11.96875 3.59375 C 12.074219 3.65625 12.167969 3.71875 12.257812 3.800781 C 12.4375 3.945312 12.628906 4.050781 12.828125 4.160156 C 12.9375 4.21875 12.9375 4.21875 13.03125 4.28125 C 13.007812 4.28125 12.984375 4.28125 12.960938 4.28125 C 12.859375 4.28125 12.753906 4.285156 12.648438 4.289062 C 12.613281 4.289062 12.578125 4.289062 12.539062 4.289062 C 12.144531 4.296875 11.855469 4.4375 11.546875 4.679688 C 11.496094 4.714844 11.449219 4.75 11.398438 4.785156 C 11.378906 4.800781 11.359375 4.816406 11.335938 4.832031 C 11.199219 4.9375 11.199219 4.9375 11.117188 4.941406 C 11 4.894531 10.960938 4.820312 10.894531 4.722656 C 10.828125 4.636719 10.753906 4.574219 10.671875 4.507812 C 10.625 4.46875 10.625 4.46875 10.5625 4.40625 C 10.59375 4.394531 10.628906 4.382812 10.660156 4.367188 C 11.152344 4.175781 11.578125 3.949219 11.96875 3.59375 Z M 11.96875 3.59375 "/>
<path style=" stroke:none;fill-rule:nonzero;fill:rgb(43.529412%,73.333335%,77.64706%);fill-opacity:1;" d="M 5.625 1.65625 C 5.65625 1.671875 5.65625 1.671875 5.6875 1.6875 C 5.660156 1.710938 5.632812 1.734375 5.609375 1.753906 C 5.515625 1.832031 5.421875 1.910156 5.332031 1.988281 C 5.292969 2.023438 5.253906 2.054688 5.214844 2.085938 C 4.875 2.375 4.5625 2.695312 4.296875 3.054688 C 4.28125 3.070312 4.269531 3.085938 4.257812 3.101562 C 4.21875 3.15625 4.21875 3.15625 4.183594 3.222656 C 4.140625 3.300781 4.101562 3.351562 4.03125 3.40625 C 3.882812 3.4375 3.734375 3.429688 3.582031 3.421875 C 3.539062 3.421875 3.5 3.421875 3.457031 3.417969 C 3.359375 3.414062 3.257812 3.410156 3.15625 3.40625 C 3.777344 2.671875 4.707031 1.972656 5.625 1.65625 Z M 5.625 1.65625 "/>
<path style=" stroke:none;fill-rule:nonzero;fill:rgb(97.254902%,96.862745%,96.862745%);fill-opacity:1;" d="M 3.0625 5.09375 C 3.125 5.15625 3.144531 5.195312 3.175781 5.277344 C 3.183594 5.300781 3.195312 5.328125 3.203125 5.351562 C 3.214844 5.378906 3.222656 5.40625 3.234375 5.433594 C 3.242188 5.460938 3.253906 5.488281 3.265625 5.515625 C 3.289062 5.574219 3.308594 5.632812 3.328125 5.691406 C 3.363281 5.78125 3.398438 5.871094 3.429688 5.960938 C 3.453125 6.015625 3.472656 6.070312 3.492188 6.128906 C 3.503906 6.15625 3.515625 6.183594 3.523438 6.210938 C 3.53125 6.234375 3.542969 6.257812 3.550781 6.285156 C 3.558594 6.308594 3.570312 6.328125 3.578125 6.351562 C 3.59375 6.40625 3.59375 6.40625 3.59375 6.46875 C 3.253906 6.46875 2.914062 6.46875 2.5625 6.46875 C 2.617188 6.277344 2.675781 6.09375 2.746094 5.910156 C 2.753906 5.886719 2.761719 5.867188 2.769531 5.84375 C 2.789062 5.796875 2.804688 5.753906 2.820312 5.710938 C 2.847656 5.640625 2.875 5.570312 2.898438 5.5 C 2.914062 5.457031 2.933594 5.414062 2.949219 5.371094 C 2.957031 5.351562 2.964844 5.328125 2.972656 5.308594 C 3 5.234375 3.027344 5.164062 3.0625 5.09375 Z M 3.0625 5.09375 "/>
<path style=" stroke:none;fill-rule:nonzero;fill:rgb(86.274511%,29.019609%,33.725491%);fill-opacity:1;" d="M 11.5 1.84375 C 11.820312 1.84375 12.140625 1.84375 12.46875 1.84375 C 12.398438 2.160156 12.398438 2.160156 12.351562 2.261719 C 12.335938 2.296875 12.335938 2.296875 12.320312 2.328125 C 12.308594 2.351562 12.296875 2.375 12.285156 2.398438 C 12.273438 2.417969 12.265625 2.441406 12.253906 2.464844 C 12.1875 2.597656 12.117188 2.722656 12.03125 2.84375 C 11.925781 2.800781 11.882812 2.757812 11.828125 2.65625 C 11.816406 2.632812 11.804688 2.609375 11.789062 2.582031 C 11.769531 2.542969 11.769531 2.542969 11.75 2.5 C 11.734375 2.476562 11.71875 2.453125 11.707031 2.425781 C 11.605469 2.230469 11.5625 2.066406 11.5 1.84375 Z M 11.5 1.84375 "/>
</g>
</svg>
