<?xml version="1.0" encoding="UTF-8"?>
<svg xmlns="http://www.w3.org/2000/svg" xmlns:xlink="http://www.w3.org/1999/xlink" width="64px" height="px" viewBox="0 0 64 64" version="1.1">
<g id="surface1">
<path style=" stroke:none;fill-rule:nonzero;fill:rgb(64.705884%,29.019609%,95.686275%);fill-opacity:1;" d="M 5.917969 5.359375 C 6.023438 5.355469 6.128906 5.355469 6.238281 5.355469 C 6.589844 5.355469 6.9375 5.355469 7.289062 5.355469 C 7.542969 5.355469 7.792969 5.355469 8.046875 5.351562 C 8.730469 5.351562 9.414062 5.351562 10.097656 5.351562 C 10.523438 5.351562 10.953125 5.347656 11.378906 5.347656 C 12.71875 5.347656 14.054688 5.34375 15.394531 5.34375 C 16.9375 5.34375 18.480469 5.34375 20.023438 5.339844 C 21.21875 5.335938 22.410156 5.335938 23.605469 5.335938 C 24.316406 5.335938 25.03125 5.332031 25.742188 5.332031 C 26.414062 5.328125 27.085938 5.328125 27.753906 5.332031 C 28 5.332031 28.246094 5.328125 28.492188 5.328125 C 31.632812 5.3125 31.632812 5.3125 32.875 6.5 C 33.96875 7.71875 34.019531 9.003906 34.019531 10.570312 C 34.019531 10.785156 34.019531 10.785156 34.019531 11.003906 C 34.019531 11.476562 34.019531 11.949219 34.019531 12.421875 C 34.019531 12.75 34.023438 13.078125 34.023438 13.40625 C 34.023438 14.097656 34.023438 14.789062 34.023438 15.476562 C 34.023438 16.273438 34.023438 17.066406 34.027344 17.863281 C 34.027344 18.628906 34.027344 19.398438 34.027344 20.164062 C 34.027344 20.488281 34.027344 20.816406 34.03125 21.140625 C 34.03125 21.59375 34.03125 22.050781 34.03125 22.507812 C 34.03125 22.640625 34.03125 22.773438 34.03125 22.910156 C 34.027344 24.269531 33.867188 25.546875 32.929688 26.59375 C 31.726562 27.707031 30.355469 27.769531 28.796875 27.761719 C 28.660156 27.761719 28.523438 27.761719 28.378906 27.761719 C 27.945312 27.761719 27.507812 27.757812 27.070312 27.757812 C 26.773438 27.757812 26.476562 27.757812 26.179688 27.757812 C 25.453125 27.753906 24.726562 27.753906 24 27.75 C 24.003906 27.964844 24.003906 27.964844 24.007812 28.179688 C 24.011719 28.707031 24.015625 29.234375 24.019531 29.757812 C 24.023438 29.988281 24.023438 30.214844 24.027344 30.441406 C 24.03125 30.769531 24.035156 31.097656 24.035156 31.425781 C 24.039062 31.527344 24.039062 31.628906 24.042969 31.734375 C 24.042969 32.445312 24.042969 32.445312 23.828125 32.71875 C 23.625 32.875 23.625 32.875 23.335938 32.878906 C 22.878906 32.703125 22.578125 32.402344 22.234375 32.0625 C 22.089844 31.925781 21.945312 31.785156 21.800781 31.648438 C 21.726562 31.578125 21.65625 31.511719 21.582031 31.441406 C 21.296875 31.179688 21 30.9375 20.695312 30.695312 C 20.058594 30.183594 19.460938 29.636719 18.867188 29.074219 C 18.765625 28.976562 18.765625 28.976562 18.65625 28.875 C 18.566406 28.789062 18.566406 28.789062 18.472656 28.703125 C 18.398438 28.636719 18.324219 28.570312 18.25 28.5 C 18.144531 28.394531 18.042969 28.289062 17.9375 28.179688 C 17.425781 27.761719 16.933594 27.789062 16.296875 27.796875 C 16.179688 27.796875 16.0625 27.792969 15.9375 27.792969 C 15.546875 27.792969 15.15625 27.792969 14.765625 27.796875 C 14.492188 27.792969 14.21875 27.792969 13.945312 27.792969 C 13.222656 27.789062 12.503906 27.789062 11.785156 27.789062 C 10.636719 27.789062 9.484375 27.785156 8.335938 27.78125 C 7.933594 27.78125 7.535156 27.78125 7.132812 27.78125 C 6.886719 27.78125 6.640625 27.78125 6.390625 27.78125 C 6.28125 27.78125 6.171875 27.78125 6.058594 27.78125 C 4.648438 27.777344 3.59375 27.515625 2.53125 26.570312 C 1.542969 25.445312 1.460938 24.496094 1.464844 23.054688 C 1.460938 22.898438 1.460938 22.742188 1.460938 22.578125 C 1.460938 22.152344 1.457031 21.722656 1.457031 21.296875 C 1.457031 21.027344 1.457031 20.761719 1.457031 20.492188 C 1.453125 19.558594 1.453125 18.621094 1.453125 17.683594 C 1.453125 16.816406 1.453125 15.945312 1.445312 15.074219 C 1.445312 14.328125 1.441406 13.578125 1.441406 12.828125 C 1.441406 12.382812 1.441406 11.9375 1.441406 11.488281 C 1.4375 10.992188 1.4375 10.492188 1.4375 9.996094 C 1.4375 9.847656 1.4375 9.703125 1.433594 9.550781 C 1.445312 8.386719 1.691406 7.324219 2.503906 6.449219 C 3.535156 5.613281 4.625 5.355469 5.917969 5.359375 Z M 5.917969 5.359375 "/>
<path style=" stroke:none;fill-rule:nonzero;fill:rgb(100%,78.823531%,11.372549%);fill-opacity:1;" d="M 31.03125 34.3125 C 31.144531 34.332031 31.257812 34.355469 31.375 34.375 C 31.675781 34.824219 31.65625 35.144531 31.648438 35.660156 C 31.648438 35.75 31.648438 35.839844 31.648438 35.929688 C 31.648438 36.210938 31.644531 36.492188 31.640625 36.773438 C 31.640625 36.964844 31.636719 37.15625 31.636719 37.347656 C 31.632812 37.8125 31.628906 38.28125 31.625 38.75 C 31.785156 38.746094 31.945312 38.746094 32.109375 38.742188 C 32.707031 38.734375 33.300781 38.726562 33.898438 38.722656 C 34.15625 38.71875 34.414062 38.714844 34.671875 38.710938 C 38.007812 38.65625 38.007812 38.65625 39.285156 39.886719 C 40.234375 40.941406 40.414062 42.042969 40.410156 43.421875 C 40.410156 43.550781 40.410156 43.675781 40.410156 43.804688 C 40.414062 44.21875 40.414062 44.636719 40.414062 45.050781 C 40.414062 45.339844 40.414062 45.628906 40.414062 45.917969 C 40.414062 46.527344 40.414062 47.132812 40.414062 47.738281 C 40.414062 48.515625 40.414062 49.289062 40.417969 50.066406 C 40.421875 50.664062 40.421875 51.261719 40.421875 51.859375 C 40.421875 52.144531 40.421875 52.433594 40.421875 52.71875 C 40.425781 53.117188 40.421875 53.519531 40.421875 53.917969 C 40.421875 54.035156 40.421875 54.152344 40.425781 54.273438 C 40.414062 55.484375 40.148438 56.59375 39.277344 57.476562 C 38.3125 58.367188 37.402344 58.640625 36.097656 58.640625 C 35.964844 58.644531 35.964844 58.644531 35.828125 58.644531 C 35.527344 58.644531 35.230469 58.644531 34.929688 58.644531 C 34.714844 58.644531 34.5 58.644531 34.285156 58.648438 C 33.703125 58.648438 33.117188 58.648438 32.535156 58.648438 C 32.171875 58.648438 31.804688 58.652344 31.441406 58.652344 C 30.300781 58.652344 29.15625 58.65625 28.015625 58.65625 C 26.699219 58.65625 25.382812 58.65625 24.066406 58.660156 C 23.046875 58.664062 22.03125 58.664062 21.011719 58.664062 C 20.402344 58.664062 19.796875 58.667969 19.1875 58.667969 C 18.613281 58.671875 18.042969 58.671875 17.472656 58.667969 C 17.261719 58.667969 17.050781 58.671875 16.84375 58.671875 C 15.359375 58.679688 14.066406 58.625 12.882812 57.636719 C 12.164062 56.902344 11.738281 56.070312 11.730469 55.042969 C 11.730469 54.925781 11.726562 54.8125 11.726562 54.691406 C 11.726562 54.5625 11.726562 54.4375 11.722656 54.308594 C 11.722656 54.171875 11.722656 54.039062 11.71875 53.898438 C 11.714844 53.457031 11.714844 53.011719 11.710938 52.566406 C 11.710938 52.414062 11.710938 52.261719 11.707031 52.105469 C 11.703125 51.300781 11.703125 50.492188 11.699219 49.6875 C 11.699219 49.023438 11.691406 48.359375 11.6875 47.691406 C 11.679688 46.886719 11.675781 46.082031 11.675781 45.277344 C 11.671875 44.972656 11.671875 44.667969 11.667969 44.359375 C 11.628906 41.074219 11.628906 41.074219 12.753906 39.847656 C 13.703125 38.929688 14.75 38.726562 16.035156 38.742188 C 16.25 38.742188 16.460938 38.746094 16.675781 38.746094 C 16.84375 38.746094 16.84375 38.746094 17.015625 38.746094 C 17.613281 38.75 18.210938 38.75 18.808594 38.75 C 19.570312 38.75 20.328125 38.75 21.085938 38.757812 C 21.703125 38.761719 22.316406 38.761719 22.933594 38.757812 C 23.167969 38.757812 23.398438 38.757812 23.632812 38.761719 C 25.207031 38.796875 25.207031 38.796875 26.5625 38.082031 C 26.753906 37.890625 26.941406 37.699219 27.125 37.5 C 27.285156 37.355469 27.445312 37.207031 27.605469 37.066406 C 27.746094 36.933594 27.886719 36.804688 28.023438 36.671875 C 28.171875 36.53125 28.320312 36.390625 28.46875 36.253906 C 28.539062 36.1875 28.609375 36.121094 28.679688 36.054688 C 29.003906 35.753906 29.332031 35.464844 29.667969 35.179688 C 29.804688 35.058594 29.941406 34.9375 30.074219 34.808594 C 30.398438 34.511719 30.59375 34.378906 31.03125 34.3125 Z M 31.03125 34.3125 "/>
<path style=" stroke:none;fill-rule:nonzero;fill:rgb(21.568628%,49.019608%,88.627452%);fill-opacity:1;" d="M 41.144531 16.230469 C 41.304688 16.230469 41.464844 16.230469 41.628906 16.230469 C 41.808594 16.230469 41.988281 16.226562 42.167969 16.226562 C 42.355469 16.226562 42.542969 16.226562 42.730469 16.226562 C 43.347656 16.222656 43.964844 16.222656 44.582031 16.21875 C 44.796875 16.21875 45.007812 16.21875 45.222656 16.21875 C 46.222656 16.214844 47.222656 16.214844 48.222656 16.214844 C 49.375 16.210938 50.527344 16.207031 51.679688 16.203125 C 52.570312 16.199219 53.464844 16.199219 54.355469 16.199219 C 54.886719 16.199219 55.421875 16.195312 55.953125 16.191406 C 56.453125 16.191406 56.953125 16.191406 57.457031 16.191406 C 57.640625 16.191406 57.824219 16.191406 58.007812 16.1875 C 59.449219 16.175781 60.453125 16.382812 61.527344 17.375 C 62.332031 18.277344 62.519531 19.15625 62.519531 20.332031 C 62.519531 20.441406 62.519531 20.550781 62.523438 20.664062 C 62.523438 21.023438 62.523438 21.386719 62.527344 21.746094 C 62.527344 22 62.527344 22.25 62.527344 22.503906 C 62.527344 23.03125 62.53125 23.558594 62.53125 24.085938 C 62.53125 24.761719 62.535156 25.433594 62.539062 26.109375 C 62.539062 26.628906 62.539062 27.148438 62.539062 27.667969 C 62.539062 27.917969 62.542969 28.167969 62.542969 28.414062 C 62.546875 28.761719 62.546875 29.113281 62.542969 29.460938 C 62.546875 29.5625 62.546875 29.664062 62.546875 29.769531 C 62.539062 30.824219 62.25 31.851562 61.5 32.625 C 60.402344 33.492188 59.398438 33.777344 58 33.75 C 57.828125 33.75 57.65625 33.746094 57.484375 33.746094 C 57.347656 33.742188 57.347656 33.742188 57.210938 33.742188 C 56.628906 33.734375 56.046875 33.734375 55.464844 33.730469 C 54.957031 33.730469 54.445312 33.726562 53.9375 33.714844 C 53.441406 33.707031 52.949219 33.703125 52.453125 33.707031 C 52.265625 33.707031 52.078125 33.703125 51.890625 33.695312 C 50.921875 33.667969 50.175781 33.746094 49.429688 34.402344 C 49.105469 34.714844 48.804688 35.042969 48.5 35.375 C 48.332031 35.527344 48.164062 35.679688 47.992188 35.828125 C 47.917969 35.894531 47.839844 35.957031 47.761719 36.023438 C 47.675781 36.097656 47.589844 36.171875 47.5 36.25 C 47.378906 36.359375 47.253906 36.46875 47.128906 36.582031 C 46.996094 36.695312 46.859375 36.8125 46.726562 36.929688 C 46.542969 37.09375 46.542969 37.09375 46.355469 37.257812 C 45.976562 37.515625 45.820312 37.582031 45.375 37.5 C 45.125 37.25 45.125 37.25 45.097656 36.898438 C 45.097656 36.753906 45.097656 36.609375 45.101562 36.460938 C 45.101562 36.304688 45.101562 36.144531 45.101562 35.984375 C 45.105469 35.820312 45.105469 35.652344 45.109375 35.484375 C 45.109375 35.316406 45.113281 35.148438 45.113281 34.980469 C 45.117188 34.570312 45.121094 34.160156 45.125 33.75 C 44.953125 33.753906 44.953125 33.753906 44.777344 33.753906 C 44.347656 33.757812 43.914062 33.761719 43.484375 33.765625 C 43.300781 33.765625 43.113281 33.765625 42.929688 33.769531 C 41.332031 33.789062 39.933594 33.773438 38.625 32.75 C 37.742188 31.847656 37.441406 30.832031 37.453125 29.597656 C 37.449219 29.488281 37.449219 29.378906 37.449219 29.265625 C 37.449219 28.902344 37.449219 28.539062 37.449219 28.175781 C 37.449219 27.921875 37.449219 27.667969 37.449219 27.414062 C 37.449219 26.882812 37.449219 26.355469 37.449219 25.824219 C 37.453125 25.144531 37.453125 24.46875 37.449219 23.789062 C 37.449219 23.265625 37.449219 22.742188 37.449219 22.21875 C 37.449219 21.96875 37.449219 21.71875 37.449219 21.46875 C 37.449219 21.117188 37.449219 20.769531 37.453125 20.417969 C 37.449219 20.316406 37.449219 20.214844 37.449219 20.109375 C 37.460938 18.871094 37.847656 18.039062 38.699219 17.144531 C 39.414062 16.503906 40.191406 16.234375 41.144531 16.230469 Z M 41.144531 16.230469 "/>
<path style=" stroke:none;fill-rule:nonzero;fill:rgb(43.137255%,17.254902%,76.47059%);fill-opacity:1;" d="M 31 5.5 C 32.035156 5.753906 32.796875 6.238281 33.421875 7.117188 C 34.011719 8.191406 34.035156 9.417969 34.03125 10.613281 C 34.03125 10.753906 34.035156 10.898438 34.035156 11.046875 C 34.035156 11.515625 34.035156 11.988281 34.03125 12.457031 C 34.035156 12.785156 34.035156 13.113281 34.035156 13.441406 C 34.035156 14.128906 34.035156 14.816406 34.03125 15.507812 C 34.03125 16.296875 34.03125 17.089844 34.03125 17.882812 C 34.035156 18.648438 34.035156 19.414062 34.035156 20.179688 C 34.035156 20.503906 34.035156 20.828125 34.035156 21.152344 C 34.035156 21.605469 34.035156 22.058594 34.03125 22.511719 C 34.03125 22.644531 34.035156 22.777344 34.035156 22.914062 C 34.027344 24.273438 33.863281 25.546875 32.929688 26.59375 C 31.726562 27.707031 30.355469 27.769531 28.796875 27.761719 C 28.660156 27.761719 28.523438 27.761719 28.378906 27.761719 C 27.945312 27.761719 27.507812 27.757812 27.070312 27.757812 C 26.773438 27.757812 26.476562 27.757812 26.179688 27.757812 C 25.453125 27.753906 24.726562 27.753906 24 27.75 C 24.003906 27.890625 24.003906 28.035156 24.007812 28.179688 C 24.011719 28.707031 24.015625 29.234375 24.019531 29.757812 C 24.023438 29.988281 24.023438 30.214844 24.027344 30.441406 C 24.03125 30.769531 24.035156 31.097656 24.035156 31.425781 C 24.039062 31.527344 24.039062 31.628906 24.042969 31.734375 C 24.042969 32.445312 24.042969 32.445312 23.828125 32.71875 C 23.625 32.875 23.625 32.875 23.339844 32.882812 C 22.851562 32.691406 22.542969 32.371094 22.171875 32.007812 C 22.03125 31.871094 21.886719 31.734375 21.746094 31.597656 C 21.652344 31.507812 21.652344 31.507812 21.558594 31.414062 C 21.351562 31.222656 21.351562 31.222656 21 31 C 21 30.917969 21 30.835938 21 30.75 C 21.082031 30.707031 21.164062 30.667969 21.25 30.625 C 21.25 30.507812 21.253906 30.390625 21.253906 30.269531 C 21.257812 29.832031 21.265625 29.394531 21.277344 28.957031 C 21.28125 28.769531 21.28125 28.578125 21.285156 28.390625 C 21.285156 28.117188 21.292969 27.847656 21.296875 27.574219 C 21.300781 27.410156 21.304688 27.246094 21.308594 27.078125 C 21.386719 26.554688 21.542969 26.285156 21.875 25.875 C 22.277344 25.605469 22.378906 25.59375 22.84375 25.597656 C 22.960938 25.597656 23.082031 25.597656 23.207031 25.597656 C 23.335938 25.597656 23.46875 25.597656 23.601562 25.597656 C 23.878906 25.597656 24.15625 25.597656 24.429688 25.59375 C 24.867188 25.59375 25.300781 25.59375 25.738281 25.597656 C 28.175781 25.664062 28.175781 25.664062 30.25 24.519531 C 31.261719 23.449219 31.269531 22.257812 31.269531 20.863281 C 31.269531 20.710938 31.269531 20.558594 31.269531 20.402344 C 31.269531 19.984375 31.269531 19.570312 31.269531 19.15625 C 31.269531 18.894531 31.269531 18.636719 31.273438 18.375 C 31.273438 17.46875 31.273438 16.558594 31.273438 15.652344 C 31.273438 14.808594 31.273438 13.960938 31.277344 13.117188 C 31.277344 12.390625 31.277344 11.664062 31.277344 10.9375 C 31.277344 10.503906 31.277344 10.070312 31.28125 9.636719 C 31.28125 9.152344 31.28125 8.671875 31.28125 8.1875 C 31.28125 8.042969 31.28125 7.902344 31.28125 7.757812 C 31.28125 6.964844 31.203125 6.265625 31 5.5 Z M 31 5.5 "/>
<path style=" stroke:none;fill-rule:nonzero;fill:rgb(100%,66.666669%,10.196079%);fill-opacity:1;" d="M 38.625 39.5 C 39.324219 39.835938 39.785156 40.367188 40.101562 41.078125 C 40.375 41.855469 40.394531 42.5625 40.394531 43.382812 C 40.394531 43.507812 40.394531 43.632812 40.398438 43.761719 C 40.398438 44.179688 40.398438 44.597656 40.398438 45.011719 C 40.402344 45.304688 40.402344 45.59375 40.402344 45.882812 C 40.402344 46.492188 40.40625 47.101562 40.40625 47.710938 C 40.40625 48.488281 40.410156 49.269531 40.414062 50.046875 C 40.414062 50.644531 40.414062 51.246094 40.414062 51.847656 C 40.414062 52.132812 40.417969 52.417969 40.417969 52.707031 C 40.421875 53.109375 40.421875 53.511719 40.417969 53.914062 C 40.421875 54.03125 40.421875 54.148438 40.421875 54.269531 C 40.414062 55.480469 40.148438 56.589844 39.277344 57.476562 C 38.3125 58.367188 37.402344 58.640625 36.097656 58.640625 C 35.964844 58.644531 35.964844 58.644531 35.828125 58.644531 C 35.527344 58.644531 35.230469 58.644531 34.929688 58.644531 C 34.714844 58.644531 34.5 58.644531 34.285156 58.648438 C 33.703125 58.648438 33.117188 58.648438 32.535156 58.648438 C 32.171875 58.648438 31.804688 58.652344 31.441406 58.652344 C 30.300781 58.652344 29.15625 58.65625 28.015625 58.65625 C 26.699219 58.65625 25.382812 58.65625 24.066406 58.660156 C 23.046875 58.664062 22.03125 58.664062 21.011719 58.664062 C 20.402344 58.664062 19.796875 58.667969 19.1875 58.667969 C 18.613281 58.671875 18.042969 58.671875 17.472656 58.667969 C 17.261719 58.667969 17.050781 58.671875 16.84375 58.671875 C 15.1875 58.679688 13.867188 58.574219 12.625 57.375 C 12.367188 57.007812 12.367188 57.007812 12.25 56.75 C 12.324219 56.777344 12.398438 56.804688 12.472656 56.832031 C 13.589844 57.1875 14.671875 57.179688 15.828125 57.175781 C 16.046875 57.175781 16.269531 57.175781 16.488281 57.179688 C 17.082031 57.179688 17.675781 57.179688 18.269531 57.179688 C 18.769531 57.179688 19.265625 57.179688 19.761719 57.179688 C 20.933594 57.183594 22.105469 57.183594 23.28125 57.179688 C 24.488281 57.179688 25.695312 57.179688 26.902344 57.183594 C 27.941406 57.1875 28.980469 57.1875 30.023438 57.1875 C 30.640625 57.1875 31.261719 57.1875 31.882812 57.1875 C 32.464844 57.191406 33.046875 57.191406 33.628906 57.1875 C 33.84375 57.1875 34.054688 57.1875 34.269531 57.191406 C 35.78125 57.199219 36.886719 57.050781 38.035156 55.992188 C 38.574219 55.386719 38.890625 54.628906 38.890625 53.816406 C 38.890625 53.699219 38.894531 53.585938 38.894531 53.46875 C 38.894531 53.34375 38.894531 53.21875 38.894531 53.089844 C 38.894531 52.957031 38.894531 52.824219 38.894531 52.6875 C 38.894531 52.246094 38.894531 51.808594 38.894531 51.371094 C 38.894531 51.066406 38.898438 50.761719 38.898438 50.453125 C 38.898438 49.816406 38.898438 49.175781 38.898438 48.535156 C 38.898438 47.714844 38.898438 46.894531 38.902344 46.078125 C 38.902344 45.445312 38.902344 44.816406 38.902344 44.183594 C 38.902344 43.882812 38.902344 43.582031 38.90625 43.277344 C 38.90625 42.855469 38.90625 42.433594 38.90625 42.007812 C 38.90625 41.886719 38.90625 41.761719 38.90625 41.632812 C 38.902344 40.886719 38.8125 40.226562 38.625 39.5 Z M 38.625 39.5 "/>
<path style=" stroke:none;fill-rule:nonzero;fill:rgb(13.333334%,40.000001%,82.745099%);fill-opacity:1;" d="M 60.75 16.875 C 61.589844 17.277344 62.070312 17.972656 62.398438 18.832031 C 62.636719 19.804688 62.566406 20.824219 62.5625 21.820312 C 62.5625 22.070312 62.5625 22.320312 62.5625 22.574219 C 62.5625 23.097656 62.5625 23.617188 62.558594 24.140625 C 62.554688 24.8125 62.554688 25.480469 62.558594 26.148438 C 62.558594 26.664062 62.554688 27.179688 62.554688 27.699219 C 62.554688 27.945312 62.554688 28.191406 62.554688 28.4375 C 62.554688 28.78125 62.554688 29.128906 62.550781 29.472656 C 62.550781 29.625 62.550781 29.625 62.550781 29.777344 C 62.539062 30.828125 62.246094 31.855469 61.5 32.625 C 60.402344 33.492188 59.398438 33.777344 58 33.75 C 57.828125 33.75 57.65625 33.746094 57.484375 33.746094 C 57.394531 33.742188 57.304688 33.742188 57.210938 33.742188 C 56.628906 33.734375 56.046875 33.734375 55.464844 33.730469 C 54.957031 33.730469 54.445312 33.726562 53.9375 33.714844 C 53.441406 33.707031 52.949219 33.703125 52.453125 33.707031 C 52.265625 33.707031 52.078125 33.703125 51.890625 33.695312 C 50.921875 33.667969 50.175781 33.746094 49.429688 34.402344 C 49.105469 34.714844 48.804688 35.042969 48.5 35.375 C 48.332031 35.527344 48.164062 35.679688 47.992188 35.828125 C 47.917969 35.894531 47.839844 35.957031 47.761719 36.023438 C 47.675781 36.097656 47.589844 36.171875 47.5 36.25 C 47.378906 36.359375 47.253906 36.46875 47.128906 36.582031 C 46.996094 36.695312 46.859375 36.8125 46.726562 36.929688 C 46.605469 37.039062 46.480469 37.144531 46.355469 37.257812 C 45.976562 37.515625 45.820312 37.582031 45.375 37.5 C 45.039062 37.164062 45.058594 36.953125 45.03125 36.484375 C 45.042969 35.726562 45.042969 35.726562 45.351562 35.34375 C 45.5625 35.179688 45.78125 35.027344 46 34.878906 C 46.417969 34.59375 46.769531 34.277344 47.132812 33.929688 C 47.308594 33.761719 47.488281 33.59375 47.671875 33.433594 C 47.882812 33.25 47.882812 33.25 48.085938 33.027344 C 48.984375 32.183594 49.9375 32.257812 51.09375 32.28125 C 51.296875 32.28125 51.5 32.28125 51.703125 32.277344 C 52.234375 32.277344 52.765625 32.28125 53.300781 32.285156 C 54.152344 32.292969 55.003906 32.296875 55.855469 32.292969 C 56.148438 32.296875 56.445312 32.300781 56.742188 32.304688 C 57.714844 32.308594 58.519531 32.265625 59.375 31.75 C 59.507812 31.683594 59.636719 31.617188 59.773438 31.546875 C 60.550781 30.890625 61.050781 29.890625 61.148438 28.875 C 61.15625 28.601562 61.160156 28.324219 61.160156 28.050781 C 61.160156 27.945312 61.160156 27.839844 61.160156 27.734375 C 61.164062 27.390625 61.164062 27.050781 61.164062 26.710938 C 61.164062 26.46875 61.164062 26.230469 61.164062 25.992188 C 61.164062 25.488281 61.164062 24.988281 61.164062 24.488281 C 61.164062 23.847656 61.164062 23.210938 61.167969 22.570312 C 61.171875 22.078125 61.171875 21.582031 61.171875 21.089844 C 61.171875 20.851562 61.171875 20.617188 61.171875 20.382812 C 61.183594 18.597656 61.183594 18.597656 60.75 16.875 Z M 60.75 16.875 "/>
<path style=" stroke:none;fill-rule:nonzero;fill:rgb(53.725493%,22.745098%,86.666667%);fill-opacity:1;" d="M 31 5.5 C 31.371094 5.625 31.742188 5.746094 32.125 5.875 C 32.136719 5.953125 32.152344 6.035156 32.164062 6.117188 C 32.234375 6.433594 32.324219 6.691406 32.441406 6.988281 C 32.683594 7.71875 32.675781 8.417969 32.671875 9.183594 C 32.671875 9.335938 32.671875 9.488281 32.671875 9.644531 C 32.671875 10.058594 32.671875 10.472656 32.671875 10.886719 C 32.667969 11.320312 32.671875 11.757812 32.671875 12.191406 C 32.671875 12.921875 32.667969 13.652344 32.667969 14.382812 C 32.664062 15.226562 32.664062 16.070312 32.664062 16.910156 C 32.664062 17.726562 32.664062 18.539062 32.664062 19.351562 C 32.664062 19.695312 32.664062 20.042969 32.664062 20.386719 C 32.664062 20.867188 32.660156 21.351562 32.660156 21.832031 C 32.660156 21.976562 32.660156 22.117188 32.660156 22.261719 C 32.652344 23.535156 32.460938 24.503906 31.625 25.5 C 30.609375 26.449219 29.675781 26.679688 28.320312 26.667969 C 28.039062 26.667969 27.761719 26.671875 27.480469 26.671875 C 27.042969 26.671875 26.605469 26.671875 26.167969 26.671875 C 25.746094 26.667969 25.320312 26.671875 24.898438 26.675781 C 24.765625 26.671875 24.636719 26.671875 24.5 26.667969 C 23.746094 26.675781 23.746094 26.675781 23.109375 27.050781 C 22.746094 27.554688 22.726562 27.917969 22.710938 28.523438 C 22.707031 28.613281 22.707031 28.703125 22.703125 28.792969 C 22.695312 29.074219 22.6875 29.359375 22.679688 29.640625 C 22.675781 29.832031 22.667969 30.023438 22.664062 30.214844 C 22.648438 30.683594 22.636719 31.15625 22.625 31.625 C 22.316406 31.75 22.316406 31.75 22 31.875 C 21.832031 31.734375 21.667969 31.59375 21.5 31.453125 C 21.40625 31.375 21.3125 31.296875 21.21875 31.214844 C 21.109375 31.109375 21.109375 31.109375 21 31 C 21 30.917969 21 30.835938 21 30.75 C 21.082031 30.707031 21.164062 30.667969 21.25 30.625 C 21.25 30.507812 21.253906 30.390625 21.253906 30.269531 C 21.257812 29.832031 21.265625 29.394531 21.277344 28.957031 C 21.28125 28.769531 21.28125 28.578125 21.285156 28.390625 C 21.285156 28.117188 21.292969 27.847656 21.296875 27.574219 C 21.300781 27.410156 21.304688 27.246094 21.308594 27.078125 C 21.386719 26.554688 21.542969 26.285156 21.875 25.875 C 22.277344 25.605469 22.378906 25.59375 22.84375 25.597656 C 22.960938 25.597656 23.082031 25.597656 23.207031 25.597656 C 23.335938 25.597656 23.46875 25.597656 23.601562 25.597656 C 23.878906 25.597656 24.15625 25.597656 24.429688 25.59375 C 24.867188 25.59375 25.300781 25.59375 25.738281 25.597656 C 28.175781 25.664062 28.175781 25.664062 30.25 24.519531 C 31.261719 23.449219 31.269531 22.257812 31.269531 20.863281 C 31.269531 20.710938 31.269531 20.558594 31.269531 20.402344 C 31.269531 19.984375 31.269531 19.570312 31.269531 19.15625 C 31.269531 18.894531 31.269531 18.636719 31.273438 18.375 C 31.273438 17.46875 31.273438 16.558594 31.273438 15.652344 C 31.273438 14.808594 31.273438 13.960938 31.277344 13.117188 C 31.277344 12.390625 31.277344 11.664062 31.277344 10.9375 C 31.277344 10.503906 31.277344 10.070312 31.28125 9.636719 C 31.28125 9.152344 31.28125 8.671875 31.28125 8.1875 C 31.28125 8.042969 31.28125 7.902344 31.28125 7.757812 C 31.28125 6.964844 31.203125 6.265625 31 5.5 Z M 31 5.5 "/>
<path style=" stroke:none;fill-rule:nonzero;fill:rgb(100%,99.215686%,96.862745%);fill-opacity:1;" d="M 25.96875 43.453125 C 26.089844 43.449219 26.210938 43.445312 26.335938 43.445312 C 27.261719 43.441406 27.949219 43.597656 28.636719 44.246094 C 29.140625 44.992188 29.273438 45.609375 29.125 46.5 C 28.917969 47.28125 28.476562 47.671875 27.8125 48.109375 C 27.421875 48.285156 27.050781 48.328125 26.625 48.375 C 26.621094 48.476562 26.617188 48.578125 26.617188 48.679688 C 26.601562 49.136719 26.585938 49.589844 26.570312 50.046875 C 26.566406 50.207031 26.558594 50.363281 26.554688 50.527344 C 26.550781 50.679688 26.546875 50.832031 26.539062 50.988281 C 26.535156 51.128906 26.53125 51.265625 26.527344 51.410156 C 26.5 51.75 26.5 51.75 26.375 52 C 26.078125 52.015625 26.078125 52.015625 25.75 52 C 25.296875 51.546875 25.449219 50.835938 25.445312 50.222656 C 25.445312 49.972656 25.4375 49.71875 25.433594 49.46875 C 25.425781 48.105469 25.425781 48.105469 25.773438 47.648438 C 26.140625 47.363281 26.367188 47.257812 26.820312 47.179688 C 27.265625 47.074219 27.476562 47.019531 27.835938 46.726562 C 28.054688 46.257812 28.101562 45.882812 28 45.375 C 27.734375 44.945312 27.605469 44.785156 27.125 44.625 C 26.734375 44.585938 26.34375 44.585938 25.953125 44.578125 C 25.847656 44.574219 25.742188 44.570312 25.632812 44.5625 C 25.078125 44.554688 24.828125 44.566406 24.375 44.90625 C 24.152344 45.210938 24.03125 45.421875 23.9375 45.78125 C 23.851562 46.039062 23.851562 46.039062 23.75 46.25 C 23.429688 46.390625 23.429688 46.390625 23.125 46.375 C 22.875 46.125 22.875 46.125 22.820312 45.734375 C 22.90625 44.972656 23.261719 44.46875 23.820312 43.953125 C 24.550781 43.464844 25.105469 43.453125 25.96875 43.453125 Z M 25.96875 43.453125 "/>
<path style=" stroke:none;fill-rule:nonzero;fill:rgb(98.823529%,97.647059%,99.607843%);fill-opacity:1;" d="M 14.375 12.75 C 14.5 12.875 14.5 12.875 14.570312 13.15625 C 14.5 13.5 14.5 13.5 14.324219 13.644531 C 13.597656 14.078125 12.855469 14.472656 12.101562 14.859375 C 11.847656 14.992188 11.59375 15.121094 11.335938 15.253906 C 11.214844 15.316406 11.09375 15.382812 10.96875 15.445312 C 10.308594 15.789062 9.652344 16.144531 9 16.5 C 9.351562 16.777344 9.707031 16.996094 10.109375 17.199219 C 10.226562 17.261719 10.34375 17.320312 10.464844 17.382812 C 10.589844 17.449219 10.714844 17.511719 10.84375 17.578125 C 11.753906 18.046875 12.65625 18.519531 13.546875 19.023438 C 13.628906 19.070312 13.714844 19.117188 13.796875 19.164062 C 14.359375 19.484375 14.359375 19.484375 14.5 19.625 C 14.515625 19.9375 14.515625 19.9375 14.5 20.25 C 14.457031 20.292969 14.417969 20.332031 14.375 20.375 C 13.457031 20.359375 12.722656 19.886719 11.929688 19.460938 C 11.78125 19.382812 11.632812 19.304688 11.484375 19.226562 C 11.027344 18.984375 10.578125 18.742188 10.125 18.5 C 9.984375 18.425781 9.84375 18.351562 9.699219 18.273438 C 7.421875 17.046875 7.421875 17.046875 7.25 16.875 C 7.246094 16.667969 7.246094 16.457031 7.25 16.25 C 8.648438 15.453125 10.058594 14.6875 11.484375 13.9375 C 11.679688 13.835938 11.871094 13.734375 12.066406 13.632812 C 13.789062 12.71875 13.789062 12.71875 14.375 12.75 Z M 14.375 12.75 "/>
<path style=" stroke:none;fill-rule:nonzero;fill:rgb(98.823529%,97.647059%,99.607843%);fill-opacity:1;" d="M 21.125 12.75 C 21.949219 12.78125 22.53125 13.128906 23.234375 13.53125 C 23.476562 13.667969 23.71875 13.804688 23.960938 13.9375 C 24.089844 14.011719 24.214844 14.082031 24.347656 14.15625 C 25.179688 14.609375 26.023438 15.035156 26.871094 15.464844 C 26.996094 15.53125 27.121094 15.59375 27.25 15.660156 C 27.363281 15.71875 27.472656 15.773438 27.589844 15.832031 C 27.863281 15.992188 28.0625 16.113281 28.25 16.375 C 28.214844 16.691406 28.175781 16.832031 27.929688 17.042969 C 27.847656 17.089844 27.765625 17.136719 27.679688 17.1875 C 27.589844 17.238281 27.496094 17.292969 27.40625 17.34375 C 27.3125 17.394531 27.21875 17.449219 27.125 17.5 C 27.042969 17.546875 26.960938 17.589844 26.878906 17.636719 C 26.632812 17.769531 26.386719 17.902344 26.136719 18.03125 C 26.046875 18.078125 25.957031 18.125 25.863281 18.175781 C 25.578125 18.324219 25.292969 18.476562 25.007812 18.625 C 24.722656 18.773438 24.4375 18.925781 24.15625 19.074219 C 23.972656 19.167969 23.789062 19.265625 23.609375 19.359375 C 23.054688 19.652344 22.511719 19.953125 21.980469 20.277344 C 21.679688 20.40625 21.449219 20.410156 21.125 20.375 C 21.042969 20.292969 20.960938 20.210938 20.875 20.125 C 20.882812 19.820312 20.882812 19.820312 21 19.5 C 21.265625 19.300781 21.265625 19.300781 21.617188 19.128906 C 21.746094 19.0625 21.875 18.996094 22.007812 18.929688 C 22.148438 18.863281 22.285156 18.796875 22.429688 18.726562 C 22.714844 18.582031 23 18.441406 23.285156 18.296875 C 23.425781 18.226562 23.566406 18.15625 23.714844 18.082031 C 24.300781 17.785156 24.875 17.46875 25.445312 17.148438 C 25.539062 17.09375 25.636719 17.042969 25.734375 16.988281 C 25.949219 16.867188 26.160156 16.746094 26.375 16.625 C 25.921875 16.238281 25.46875 15.960938 24.941406 15.691406 C 24.863281 15.652344 24.785156 15.613281 24.707031 15.574219 C 24.464844 15.449219 24.21875 15.328125 23.976562 15.203125 C 22.921875 14.667969 21.878906 14.128906 20.875 13.5 C 20.984375 12.890625 20.984375 12.890625 21.125 12.75 Z M 21.125 12.75 "/>
<path style=" stroke:none;fill-rule:nonzero;fill:rgb(96.862745%,98.039216%,99.215686%);fill-opacity:1;" d="M 53.15625 19.703125 C 53.238281 19.699219 53.324219 19.695312 53.410156 19.6875 C 53.90625 19.679688 54.101562 19.730469 54.492188 20.050781 C 54.855469 20.507812 54.886719 20.703125 54.871094 21.28125 C 54.871094 21.410156 54.871094 21.542969 54.871094 21.675781 C 54.867188 21.953125 54.863281 22.230469 54.851562 22.503906 C 54.855469 22.914062 54.871094 23.238281 55 23.625 C 55.378906 23.972656 55.789062 24.164062 56.25 24.375 C 56.332031 24.457031 56.414062 24.539062 56.5 24.625 C 56.488281 24.867188 56.488281 24.867188 56.375 25.125 C 56.125 25.332031 56.125 25.332031 55.820312 25.523438 C 55.71875 25.585938 55.621094 25.652344 55.515625 25.714844 C 55.25 25.875 55.25 25.875 55 26 C 55 26.085938 54.996094 26.175781 54.996094 26.261719 C 54.988281 26.660156 54.980469 27.054688 54.96875 27.453125 C 54.964844 27.660156 54.964844 27.660156 54.964844 27.867188 C 54.941406 28.648438 54.910156 29.160156 54.375 29.75 C 53.992188 29.941406 53.597656 29.894531 53.179688 29.890625 C 53.09375 29.890625 53.003906 29.890625 52.914062 29.890625 C 52.265625 29.890625 52.265625 29.890625 52.125 29.75 C 52.101562 29.445312 52.101562 29.445312 52.125 29.125 C 52.375 28.875 52.375 28.875 52.726562 28.851562 C 52.863281 28.851562 53 28.855469 53.140625 28.859375 C 53.277344 28.863281 53.414062 28.863281 53.554688 28.867188 C 53.660156 28.867188 53.765625 28.871094 53.875 28.875 C 53.871094 28.78125 53.867188 28.6875 53.859375 28.589844 C 53.84375 28.15625 53.832031 27.726562 53.820312 27.296875 C 53.808594 27.074219 53.808594 27.074219 53.796875 26.847656 C 53.777344 25.757812 53.777344 25.757812 54.074219 25.351562 C 54.289062 25.167969 54.5 25.015625 54.75 24.875 C 54.652344 24.78125 54.554688 24.683594 54.453125 24.585938 C 53.980469 24.105469 53.84375 23.84375 53.824219 23.183594 C 53.820312 23.046875 53.8125 22.914062 53.808594 22.777344 C 53.804688 22.636719 53.800781 22.496094 53.796875 22.351562 C 53.792969 22.210938 53.789062 22.070312 53.78125 21.921875 C 53.769531 21.574219 53.757812 21.222656 53.75 20.875 C 53.652344 20.867188 53.558594 20.863281 53.457031 20.855469 C 53.332031 20.847656 53.207031 20.835938 53.078125 20.828125 C 52.890625 20.816406 52.890625 20.816406 52.699219 20.800781 C 52.375 20.75 52.375 20.75 52.125 20.5 C 52.101562 20.179688 52.101562 20.179688 52.125 19.875 C 52.371094 19.628906 52.820312 19.710938 53.15625 19.703125 Z M 53.15625 19.703125 "/>
<path style=" stroke:none;fill-rule:nonzero;fill:rgb(97.254902%,98.039216%,99.607843%);fill-opacity:1;" d="M 46.820312 19.734375 C 46.90625 19.734375 46.996094 19.734375 47.085938 19.734375 C 47.734375 19.734375 47.734375 19.734375 47.875 19.875 C 47.898438 20.179688 47.898438 20.179688 47.875 20.5 C 47.625 20.75 47.625 20.75 47.273438 20.773438 C 47.136719 20.773438 47 20.769531 46.859375 20.765625 C 46.722656 20.761719 46.585938 20.761719 46.445312 20.757812 C 46.339844 20.757812 46.234375 20.753906 46.125 20.75 C 46.128906 20.839844 46.132812 20.929688 46.136719 21.023438 C 46.148438 21.4375 46.15625 21.851562 46.164062 22.265625 C 46.167969 22.410156 46.175781 22.550781 46.179688 22.699219 C 46.195312 23.886719 46.195312 23.886719 45.824219 24.335938 C 45.71875 24.429688 45.609375 24.527344 45.5 24.625 C 45.417969 24.707031 45.335938 24.789062 45.25 24.875 C 45.3125 24.910156 45.375 24.945312 45.441406 24.980469 C 45.867188 25.269531 46.09375 25.472656 46.195312 25.992188 C 46.210938 26.429688 46.203125 26.859375 46.179688 27.296875 C 46.175781 27.449219 46.171875 27.601562 46.167969 27.757812 C 46.15625 28.128906 46.144531 28.503906 46.125 28.875 C 46.230469 28.871094 46.335938 28.871094 46.445312 28.867188 C 46.582031 28.863281 46.71875 28.863281 46.859375 28.859375 C 46.996094 28.855469 47.132812 28.855469 47.273438 28.851562 C 47.625 28.875 47.625 28.875 47.875 29.125 C 47.898438 29.445312 47.898438 29.445312 47.875 29.75 C 47.628906 29.996094 47.179688 29.914062 46.84375 29.921875 C 46.71875 29.929688 46.71875 29.929688 46.589844 29.9375 C 46.09375 29.945312 45.898438 29.894531 45.507812 29.574219 C 45.144531 29.117188 45.113281 28.921875 45.128906 28.34375 C 45.128906 28.214844 45.128906 28.082031 45.128906 27.949219 C 45.132812 27.671875 45.136719 27.394531 45.148438 27.121094 C 45.144531 26.710938 45.128906 26.386719 45 26 C 44.621094 25.652344 44.210938 25.460938 43.75 25.25 C 43.667969 25.167969 43.585938 25.085938 43.5 25 C 43.511719 24.757812 43.511719 24.757812 43.625 24.5 C 43.875 24.292969 43.875 24.292969 44.179688 24.101562 C 44.28125 24.039062 44.378906 23.972656 44.484375 23.910156 C 44.75 23.75 44.75 23.75 45 23.625 C 45 23.539062 45.003906 23.449219 45.003906 23.363281 C 45.011719 22.964844 45.019531 22.570312 45.03125 22.171875 C 45.035156 21.964844 45.035156 21.964844 45.035156 21.757812 C 45.058594 20.976562 45.089844 20.464844 45.625 19.875 C 46.007812 19.683594 46.402344 19.730469 46.820312 19.734375 Z M 46.820312 19.734375 "/>
<path style=" stroke:none;fill-rule:nonzero;fill:rgb(100%,99.215686%,96.862745%);fill-opacity:1;" d="M 30.804688 45.453125 C 31.457031 45.523438 31.929688 45.832031 32.492188 46.15625 C 32.734375 46.292969 32.980469 46.429688 33.222656 46.566406 C 33.351562 46.636719 33.476562 46.710938 33.605469 46.78125 C 34.390625 47.214844 35.1875 47.621094 35.980469 48.03125 C 36.097656 48.089844 36.210938 48.152344 36.332031 48.210938 C 36.484375 48.292969 36.484375 48.292969 36.640625 48.371094 C 36.875 48.5 36.875 48.5 37 48.625 C 37.070312 48.90625 37.070312 48.90625 37 49.25 C 36.207031 49.800781 35.34375 50.226562 34.484375 50.664062 C 33.453125 51.191406 32.441406 51.734375 31.460938 52.351562 C 31.070312 52.523438 30.898438 52.511719 30.5 52.375 C 30.375 52.25 30.375 52.25 30.367188 51.929688 C 30.371094 51.828125 30.371094 51.730469 30.375 51.625 C 30.472656 51.570312 30.574219 51.519531 30.675781 51.464844 C 31.046875 51.265625 31.421875 51.066406 31.792969 50.863281 C 31.957031 50.777344 32.117188 50.695312 32.277344 50.609375 C 33.269531 50.074219 34.261719 49.542969 35.25 49 C 34.460938 48.488281 33.648438 48.050781 32.8125 47.625 C 30.789062 46.59375 30.789062 46.59375 30.375 46.25 C 30.304688 45.90625 30.304688 45.90625 30.375 45.625 C 30.5 45.5 30.5 45.5 30.804688 45.453125 Z M 30.804688 45.453125 "/>
<path style=" stroke:none;fill-rule:nonzero;fill:rgb(100%,99.215686%,96.862745%);fill-opacity:1;" d="M 21.5 45.5 C 21.582031 45.582031 21.664062 45.664062 21.75 45.75 C 21.726562 46 21.726562 46 21.625 46.25 C 20.71875 46.902344 19.683594 47.386719 18.695312 47.90625 C 18.4375 48.042969 18.175781 48.179688 17.917969 48.316406 C 17.757812 48.402344 17.597656 48.488281 17.433594 48.570312 C 17.070312 48.753906 17.070312 48.753906 16.75 49 C 16.851562 49.054688 16.957031 49.105469 17.0625 49.160156 C 17.453125 49.359375 17.839844 49.558594 18.230469 49.761719 C 18.398438 49.847656 18.566406 49.933594 18.730469 50.015625 C 19.28125 50.300781 19.828125 50.585938 20.375 50.875 C 20.503906 50.941406 20.632812 51.011719 20.769531 51.082031 C 20.878906 51.144531 20.992188 51.207031 21.109375 51.273438 C 21.207031 51.324219 21.304688 51.378906 21.40625 51.433594 C 21.625 51.625 21.625 51.625 21.734375 51.945312 C 21.742188 52.09375 21.742188 52.09375 21.75 52.25 C 21.667969 52.332031 21.585938 52.414062 21.5 52.5 C 20.878906 52.464844 20.394531 52.222656 19.859375 51.929688 C 19.773438 51.882812 19.691406 51.839844 19.605469 51.792969 C 19.335938 51.648438 19.070312 51.503906 18.804688 51.359375 C 18.628906 51.265625 18.453125 51.171875 18.277344 51.078125 C 18.019531 50.9375 17.757812 50.796875 17.5 50.65625 C 17.089844 50.433594 16.679688 50.214844 16.265625 50.007812 C 16.1875 49.96875 16.113281 49.929688 16.035156 49.890625 C 15.832031 49.789062 15.625 49.6875 15.421875 49.589844 C 15.125 49.375 15.125 49.375 15.019531 49.035156 C 15.011719 48.941406 15.007812 48.847656 15 48.75 C 15.929688 48.085938 16.921875 47.570312 17.9375 47.054688 C 18.175781 46.933594 18.414062 46.8125 18.652344 46.6875 C 18.808594 46.609375 18.960938 46.53125 19.117188 46.453125 C 19.632812 46.191406 20.136719 45.90625 20.632812 45.605469 C 20.941406 45.472656 21.167969 45.464844 21.5 45.5 Z M 21.5 45.5 "/>
<path style=" stroke:none;fill-rule:nonzero;fill:rgb(98.431373%,97.254902%,99.607843%);fill-opacity:1;" d="M 19.679688 10.851562 C 20 10.875 20 10.875 20.25 11.125 C 20.210938 11.839844 19.90625 12.492188 19.644531 13.152344 C 19.597656 13.277344 19.550781 13.402344 19.5 13.527344 C 19.339844 13.933594 19.183594 14.339844 19.023438 14.742188 C 18.914062 15.019531 18.804688 15.296875 18.699219 15.574219 C 18.535156 15.988281 18.375 16.40625 18.210938 16.820312 C 17.894531 17.632812 17.578125 18.441406 17.265625 19.253906 C 17.234375 19.34375 17.199219 19.4375 17.160156 19.53125 C 16.96875 20.035156 16.96875 20.035156 16.773438 20.539062 C 16.691406 20.761719 16.605469 20.984375 16.519531 21.207031 C 16.472656 21.328125 16.425781 21.449219 16.378906 21.574219 C 16.25 21.875 16.25 21.875 16 22.25 C 15.679688 22.28125 15.679688 22.28125 15.375 22.25 C 15.332031 22.207031 15.292969 22.167969 15.25 22.125 C 15.296875 21.234375 15.523438 20.507812 15.855469 19.6875 C 15.902344 19.5625 15.949219 19.4375 16 19.3125 C 16.160156 18.910156 16.316406 18.507812 16.476562 18.109375 C 16.585938 17.832031 16.691406 17.558594 16.800781 17.28125 C 17.015625 16.734375 17.230469 16.1875 17.449219 15.640625 C 17.714844 14.964844 17.976562 14.289062 18.238281 13.613281 C 18.273438 13.523438 18.308594 13.429688 18.34375 13.335938 C 18.476562 12.996094 18.605469 12.65625 18.734375 12.316406 C 18.820312 12.09375 18.90625 11.867188 18.992188 11.644531 C 19.039062 11.523438 19.085938 11.398438 19.136719 11.273438 C 19.300781 10.878906 19.300781 10.878906 19.679688 10.851562 Z M 19.679688 10.851562 "/>
<path style=" stroke:none;fill-rule:nonzero;fill:rgb(69.01961%,43.529412%,95.686275%);fill-opacity:1;" d="M 3.140625 11.78125 C 3.375 11.875 3.375 11.875 3.5 12 C 3.511719 12.316406 3.515625 12.625 3.515625 12.941406 C 3.515625 13.039062 3.515625 13.140625 3.515625 13.242188 C 3.515625 13.566406 3.515625 13.894531 3.515625 14.222656 C 3.515625 14.449219 3.515625 14.675781 3.515625 14.902344 C 3.515625 15.378906 3.515625 15.851562 3.515625 16.328125 C 3.515625 16.9375 3.515625 17.550781 3.515625 18.160156 C 3.515625 18.628906 3.515625 19.097656 3.515625 19.566406 C 3.515625 19.789062 3.515625 20.015625 3.515625 20.242188 C 3.515625 20.554688 3.515625 20.867188 3.515625 21.183594 C 3.515625 21.277344 3.515625 21.371094 3.515625 21.46875 C 3.515625 22.109375 3.515625 22.109375 3.375 22.25 C 3.070312 22.273438 3.070312 22.273438 2.75 22.25 C 2.441406 21.941406 2.46875 21.765625 2.464844 21.347656 C 2.464844 21.253906 2.464844 21.164062 2.464844 21.070312 C 2.464844 20.976562 2.464844 20.878906 2.464844 20.78125 C 2.460938 20.464844 2.460938 20.144531 2.460938 19.828125 C 2.460938 19.609375 2.460938 19.386719 2.460938 19.167969 C 2.460938 18.707031 2.460938 18.246094 2.460938 17.78125 C 2.460938 17.191406 2.460938 16.597656 2.457031 16.003906 C 2.453125 15.550781 2.453125 15.097656 2.453125 14.640625 C 2.453125 14.421875 2.453125 14.203125 2.453125 13.984375 C 2.449219 13.679688 2.453125 13.375 2.453125 13.070312 C 2.453125 12.980469 2.453125 12.890625 2.449219 12.796875 C 2.453125 12.429688 2.460938 12.183594 2.671875 11.875 C 2.875 11.75 2.875 11.75 3.140625 11.78125 Z M 3.140625 11.78125 "/>
<path style=" stroke:none;fill-rule:nonzero;fill:rgb(94.901961%,96.470588%,99.215686%);fill-opacity:1;" d="M 49.625 25.75 C 49.914062 25.75 50.203125 25.75 50.5 25.75 C 50.65625 26.117188 50.625 26.246094 50.472656 26.625 C 50.402344 26.761719 50.332031 26.894531 50.257812 27.03125 C 50.1875 27.164062 50.117188 27.300781 50.042969 27.4375 C 49.988281 27.542969 49.933594 27.644531 49.875 27.75 C 49.667969 27.707031 49.460938 27.667969 49.25 27.625 C 49.347656 26.304688 49.347656 26.304688 49.625 25.75 Z M 49.625 25.75 "/>
<path style=" stroke:none;fill-rule:nonzero;fill:rgb(100%,98.431373%,93.725491%);fill-opacity:1;" d="M 25.75 52.625 C 26.164062 52.667969 26.328125 52.703125 26.625 53 C 26.65625 53.3125 26.65625 53.3125 26.625 53.625 C 26.375 53.875 26.375 53.875 26 53.914062 C 25.875 53.902344 25.753906 53.886719 25.625 53.875 C 25.375 53.5 25.375 53.5 25.40625 53.179688 C 25.5 52.875 25.5 52.875 25.75 52.625 Z M 25.75 52.625 "/>
<path style=" stroke:none;fill-rule:nonzero;fill:rgb(96.078432%,97.254902%,99.215686%);fill-opacity:1;" d="M 50.328125 22.164062 C 50.625 22.25 50.625 22.25 50.75 22.375 C 50.773438 22.742188 50.773438 22.742188 50.75 23.125 C 50.5 23.375 50.5 23.375 50.1875 23.40625 C 49.875 23.375 49.875 23.375 49.625 23.125 C 49.585938 22.75 49.585938 22.75 49.625 22.375 C 50 22.125 50 22.125 50.328125 22.164062 Z M 50.328125 22.164062 "/>
<path style=" stroke:none;fill-rule:nonzero;fill:rgb(69.01961%,43.137255%,95.686275%);fill-opacity:1;" d="M 3.375 9.875 C 3.5 10 3.5 10 3.515625 10.3125 C 3.5 10.625 3.5 10.625 3.375 10.75 C 3.070312 10.773438 3.070312 10.773438 2.75 10.75 C 2.667969 10.667969 2.585938 10.585938 2.5 10.5 C 2.53125 10.179688 2.53125 10.179688 2.625 9.875 C 2.9375 9.71875 3.050781 9.769531 3.375 9.875 Z M 3.375 9.875 "/>
</g>
</svg>
